<?xml version="1.0" encoding="utf-8"?>
<!-- Generator: Adobe Illustrator 26.3.1, SVG Export Plug-In . SVG Version: 6.00 Build 0)  -->
<svg version="1.1" id="Vrstva_1" xmlns="http://www.w3.org/2000/svg" xmlns:xlink="http://www.w3.org/1999/xlink" x="0px" y="0px"
	 viewBox="0 0 118.74 118.74" style="enable-background:new 0 0 118.74 118.74;" xml:space="preserve">
<style type="text/css">
	.st0{fill:url(#SVGID_1_);}
	.st1{fill:#0E101F;}
	.st2{fill:#FCD213;}
	.st3{fill:#010202;}
</style>
<path class="st2" d="M26.18,2.95C14.36,5.12,5.12,14.36,2.95,26.18C1.04,36.62,0,47.78,0,59.37s1.04,22.75,2.95,33.19
	c2.17,11.81,11.41,21.05,23.22,23.22c10.44,1.92,21.6,2.95,33.19,2.95s22.75-1.04,33.19-2.95c11.81-2.17,21.05-11.41,23.22-23.22
	c1.92-10.44,2.95-21.6,2.95-33.19c0-11.61-1.04-22.78-2.96-33.23C113.61,14.35,104.39,5.13,92.6,2.96C82.15,1.04,70.98,0,59.37,0
	C47.78,0,36.62,1.04,26.18,2.95z"/>
<g>
	<path d="M56.75,28.49c-7.28,0-13.2,5.92-13.2,13.2v8.42h6.83v-8.42c0-3.51,2.86-6.37,6.37-6.37h28.48v7.66
		c0,6.69-5.09,12.21-11.6,12.9c1.75,1.76,3.19,3.81,4.25,6.08c8.18-2.43,14.17-10.02,14.17-18.98V28.49H56.75z"/>
	<path d="M33.51,70.45v-7.66h26.16c3.88,0,7.04,3.16,7.04,7.04h6.83c0-7.64-6.22-13.86-13.86-13.86H26.69v14.49
		c0,10.92,8.88,19.8,19.8,19.8h20.31v-6.83H46.49C39.33,83.42,33.51,77.6,33.51,70.45z"/>
	<polygon points="80.39,69.82 73.56,69.82 73.56,76.59 66.79,76.59 66.79,83.41 73.56,83.41 73.56,90.18 80.39,90.18 80.39,83.41 
		87.15,83.41 87.15,76.59 80.39,76.59 	"/>
</g>
</svg>
