<?xml version="1.0" encoding="utf-8"?>
<!-- Generator: Adobe Illustrator 26.3.1, SVG Export Plug-In . SVG Version: 6.00 Build 0)  -->
<svg version="1.1" id="Vrstva_1" xmlns="http://www.w3.org/2000/svg" xmlns:xlink="http://www.w3.org/1999/xlink" x="0px" y="0px"
	 viewBox="0 0 118.74 118.74" style="enable-background:new 0 0 118.74 118.74;" xml:space="preserve">
<style type="text/css">
	.st0{fill:url(#SVGID_1_);}
	.st1{fill:#0E101F;}
	.st2{fill:#FCD213;}
	.st3{fill:#010202;}
</style>
<g>
</g>
<path class="st2" d="M26.18,2.95C14.36,5.12,5.12,14.36,2.95,26.18C1.04,36.62,0,47.78,0,59.37s1.04,22.75,2.95,33.19
	c2.17,11.81,11.41,21.05,23.22,23.22c10.44,1.92,21.6,2.95,33.19,2.95s22.75-1.04,33.19-2.95c11.81-2.17,21.05-11.41,23.22-23.22
	c1.92-10.44,2.95-21.6,2.95-33.19c0-11.61-1.04-22.78-2.96-33.23C113.61,14.35,104.39,5.13,92.6,2.96C82.15,1.04,70.98,0,59.37,0
	C47.78,0,36.62,1.04,26.18,2.95z"/>
<g>
	<circle cx="55.99" cy="57.59" r="5.24"/>
	<circle cx="39.29" cy="57.59" r="5.24"/>
	<circle cx="72.7" cy="57.59" r="5.24"/>
	<path d="M90.58,81.2V48.57c0-10.92-8.88-19.8-19.8-19.8H41.21c-10.92,0-19.8,8.88-19.8,19.8v35.61h49.21v-6.83H28.23V48.57
		c0-7.15,5.82-12.97,12.97-12.97h29.57c7.15,0,12.97,5.82,12.97,12.97V81.2L77,77.26v6.77l10.17,5.94l10.17-5.94v-6.77L90.58,81.2z"
		/>
</g>
</svg>
