<?xml version="1.0" encoding="utf-8"?>
<!-- Generator: Adobe Illustrator 26.4.1, SVG Export Plug-In . SVG Version: 6.00 Build 0)  -->
<svg version="1.1" id="Vrstva_1" xmlns="http://www.w3.org/2000/svg" xmlns:xlink="http://www.w3.org/1999/xlink" x="0px" y="0px"
	 viewBox="0 0 118.7 118.7" style="enable-background:new 0 0 118.7 118.7;" xml:space="preserve">
<style type="text/css">
	.col{fill:#FCD213;}
</style>
	<path class="col" d="M117.5,36.9L117.5,36.9c-2.1-18.7-16.9-33.5-35.7-35.6l-0.3,0c-14.7-1.7-29.6-1.7-44.3,0l-0.3,0C18.2,3.4,3.4,18.2,1.3,36.9
	l0,0c-1.7,14.7-1.7,29.6,0,44.3l0.1,0.5c2.1,18.8,16.9,33.6,35.7,35.7l0.3,0c14.7,1.7,29.6,1.7,44.3,0l0.3,0
	c18.8-2.1,33.5-16.9,35.7-35.7l0.1-0.5C119.2,66.5,119.2,51.7,117.5,36.9z M100.2,65.9H65.9v34.3H52.8V65.9H18.6V52.8h34.3V18.6
	h13.1v34.3h34.3L100.2,65.9L100.2,65.9z"/>
</svg>
