<?xml version="1.0" encoding="utf-8"?>
<!-- Generator: Adobe Illustrator 26.4.1, SVG Export Plug-In . SVG Version: 6.00 Build 0)  -->
<svg version="1.1" id="Vrstva_1" xmlns="http://www.w3.org/2000/svg" xmlns:xlink="http://www.w3.org/1999/xlink" x="0px" y="0px"
	 viewBox="0 0 118.7 118.7" style="enable-background:new 0 0 118.7 118.7;" xml:space="preserve">
<style type="text/css">
	.col{fill:#FCD213;transform: scale(2) translate(-10, 5);}
</style>
	<g>
	<path class="col" d="M59.4,55.5c4.7,0,8.5-3.8,8.5-8.5v-9.3c0-4.7-3.8-8.5-8.5-8.5s-8.5,3.8-8.5,8.5v9.3C50.9,51.7,54.7,55.5,59.4,55.5z"/>
	<path class="col" d="M59.4,61.9c-8.1,0-14.8-6.6-14.8-14.8H32.9c0,12.6,8.8,23.1,20.6,25.8v3.9h-4.2v11.7h20V76.7h-4.2v-3.9
		C77,70.2,85.8,59.7,85.8,47.1H74.1C74.1,55.3,67.5,61.9,59.4,61.9z"/>
	<path class="col" d="M84.8,11.8H34c-18.8,0-34,15.2-34,34v61.1h72.7h12.1c18.8,0,34-15.2,34-34V60.9V45.8C118.7,27,103.5,11.8,84.8,11.8z
		 M107,73c0,12.3-10,22.3-22.3,22.3h-73V45.8c0-12.3,10-22.3,22.3-22.3h50.8c12.3,0,22.3,10,22.3,22.3L107,73L107,73z"/>
</g>
</svg>
