<?xml version="1.0" encoding="utf-8"?>
<!-- Generator: Adobe Illustrator 26.4.1, SVG Export Plug-In . SVG Version: 6.00 Build 0)  -->
<svg version="1.1" id="Vrstva_1" xmlns="http://www.w3.org/2000/svg" xmlns:xlink="http://www.w3.org/1999/xlink" x="0px" y="0px"
	 viewBox="0 0 118.7 118.7" style="enable-background:new 0 0 118.7 118.7;" xml:space="preserve">

	<style type="text/css">
	.col{fill:#FCD213;}
</style>
	<g>
	<path class="col" d="M101.7,10.9H90.1V0H78.2v10.9H40.6V0H28.7v10.9H17c-7.2,0-13,5.8-13,13v81.8c0,7.2,5.8,13,13,13h84.7c7.2,0,13-5.8,13-13
		V23.9C114.8,16.7,108.9,10.9,101.7,10.9z M102.8,105.7c0,0.6-0.5,1.1-1.1,1.1H17c-0.6,0-1.1-0.5-1.1-1.1V23.9
		c0-0.6,0.5-1.1,1.1-1.1h84.7c0.6,0,1.1,0.5,1.1,1.1V105.7z"/>
	<rect class="col" x="51.8" y="32.7" width="15.1" height="15.1"/>
	<rect class="col" x="77.4" y="32.7" width="15.1" height="15.1"/>
	<rect class="col" x="26.2" y="57.3" width="15.1" height="15.1"/>
	<rect class="col" x="51.8" y="57.3" width="15.1" height="15.1"/>
	<rect class="col" x="77.4" y="57.3" width="15.1" height="15.1"/>
	<rect class="col" x="26.2" y="81.7" width="15.1" height="15.1"/>
	<rect class="col" x="51.8" y="81.7" width="15.1" height="15.1"/>
</g>
</svg>
