<?xml version="1.0" encoding="utf-8"?>
<svg version="1.1" xmlns="http://www.w3.org/2000/svg" xmlns:xlink="http://www.w3.org/1999/xlink" viewBox="0 0 118.7 118.7" style="enable-background:new 0 0 118.7 118.7;" xml:space="preserve">
 <path fill="#FCD213" d="M90.5,118.8c-8.2,0-16.3-3.1-22.5-9.3L9.3,50.8C-3.1,38.4-3.1,18.1,9.3,5.7c7.6-7.6,20-7.6,27.6,0l16.6,16.6	c3.7,3.7,5.7,8.6,5.7,13.8c0,5.2-2,10.1-5.7,13.8l-4.3,4.3L39.1,44.1l4.3-4.3c1-1,1.5-2.3,1.5-3.7c0-1.4-0.5-2.7-1.5-3.7L26.8,15.8	c-2-2-5.3-2-7.4,0c-6.9,6.9-6.9,18,0,24.9l58.6,58.6c6.9,6.9,18,6.9,24.9,0c2-2,2-5.3,0-7.4L86.4,75.3c-2-2-5.4-2-7.4,0l-4.3,4.3	L64.5,69.5l4.3-4.3c3.7-3.7,8.6-5.7,13.8-5.7c5.2,0,10.1,2,13.8,5.7L113,81.8c7.6,7.6,7.6,20,0,27.6	C106.8,115.7,98.7,118.8,90.5,118.8z"/>
</svg>
