<?xml version="1.0" encoding="utf-8"?>
<!-- Generator: Adobe Illustrator 26.4.1, SVG Export Plug-In . SVG Version: 6.00 Build 0)  -->
<svg version="1.1" id="Vrstva_1" xmlns="http://www.w3.org/2000/svg" xmlns:xlink="http://www.w3.org/1999/xlink" x="0px" y="0px"
	 viewBox="0 0 118.7 118.7" style="enable-background:new 0 0 118.7 118.7;" xml:space="preserve">
<style>.col { fill:#dd0000;}</style>
	<g>
	<polygon class="col" points="96.8,51.6 106.7,41.7 91.2,37.6 118.8,10.1 108.7,0 81,27.8 76.9,11.9 66.9,21.8 73.1,45.4 	"/>
	<path class="col" d="M90.7,75.4c-5.9-5.9-15.6-5.9-21.5,0c-3.1,3.1-7.1,4.8-11.5,4.8s-8.4-1.7-11.5-4.8l-2.8-2.7c-6.3-6.3-6.3-16.6,0-22.9
		C46.4,46.8,48,43,48,38.9s-1.6-7.9-4.5-10.8L30.7,15.3c-4.5-4.5-11.5-5.7-17.3-2.9l-0.7,0.4c-1.3,0.9-2.6,1.8-3.8,2.9L8.6,16
		c-1.4,1.5-2.8,3.1-4,4.8l-0.2,0.4c-10,16.3-2.2,43.8,18.9,67l7.1,7.2l0.2,0.2c16.5,15.1,35,23.2,50.2,23.2c8.6,0,16.1-2.6,21.6-8.1
		c1.6-1.6,3-3.4,4.2-5.5l0.3-0.5l0.2-0.6c2-5.5,0.6-11.8-3.5-15.9L90.7,75.4z"/>
</g>
</svg>
