<?xml version="1.0" encoding="utf-8"?>
<!-- Generator: Adobe Illustrator 26.4.1, SVG Export Plug-In . SVG Version: 6.00 Build 0)  -->
<svg version="1.1" id="Vrstva_1" xmlns="http://www.w3.org/2000/svg" xmlns:xlink="http://www.w3.org/1999/xlink" x="0px" y="0px"
	 viewBox="0 0 118.7 118.7" style="enable-background:new 0 0 118.7 118.7;" xml:space="preserve">
	<style type="text/css">
	.col{fill:#FCD213;}
</style>
	<path class="col" d="M92.4,39.9c-7-12.5-20.3-20.4-34.9-20.4c-18.1,0-33.5,11.9-38.4,28.9C8.1,51.4,0,61.6,0,73.4c0,12.2,8.6,22.9,20.5,25.5
	l0.7,0.2L92,99.3l0.4,0c15-1.8,26.3-14.5,26.3-29.7C118.7,54.3,107.2,41.6,92.4,39.9z M91.2,86.2L66,86.1V70l13.5,7.9V64.5
	L59.4,52.8L39.3,64.5v13.4l13.2-7.7V86l-29.8-0.1c-5.6-1.5-9.6-6.7-9.6-12.5c0-6.7,5.2-12.4,11.9-12.9l5.1-0.4l0.8-5
	C33.1,42,44.3,32.5,57.5,32.5c10.8,0,20.5,6.4,24.8,16.3l1.8,4.1l4.4-0.1c0.2,0,0.4,0,0.5,0c9.3,0,16.8,7.6,16.8,16.8
	C105.7,78,99.5,85.1,91.2,86.2z"/>
</svg>
