<?xml version="1.0" encoding="utf-8"?>
<svg version="1.1" xmlns="http://www.w3.org/2000/svg" xmlns:xlink="http://www.w3.org/1999/xlink" viewBox="0 0 118.7 118.7" style="enable-background:new 0 0 118.7 118.7;" xml:space="preserve">
 <circle fill="#FCD213" cx="62.4" cy="45.2" r="9.3"/>
 <path fill="#FCD213" d="M78.2,0H46.7C29.6,0,15.3,12.3,12.2,28.4H5.4v12.1h18.2v-5.4h0.1c0-12.7,10.3-23,23-23h31.5c12.7,0,23,10.3,23,23v48.5	c0,12.7-10.3,23-23,23H46.7c-12.7,0-23-10.3-23-23h-0.1v-5.5H5.4v12.1h6.8c3.1,16.2,17.4,28.5,34.5,28.5h31.5	c19.4,0,35.1-15.8,35.1-35.1V35.2C113.3,15.8,97.6,0,78.2,0z"/>
 <rect fill="#FCD213" x="5.4" y="53.3" width="18.2" height="12.1"/>
	<path fill="#FCD213" d="M41.2,80.7h12.1c0-5,4.1-9.1,9.1-9.1s9.1,4.1,9.1,9.1h12.1c0-11.7-9.5-21.3-21.3-21.3S41.2,69,41.2,80.7z"/>
</svg>
