<?xml version="1.0" encoding="utf-8"?>
<!-- Generator: Adobe Illustrator 26.4.1, SVG Export Plug-In . SVG Version: 6.00 Build 0)  -->
<svg version="1.1" id="Vrstva_1" xmlns="http://www.w3.org/2000/svg" xmlns:xlink="http://www.w3.org/1999/xlink" x="0px" y="0px"
	 viewBox="0 0 118.7 118.7" style="enable-background:new 0 0 118.7 118.7;" xml:space="preserve">
	<style type="text/css">
	.col{fill:#FCD213;}
</style>
	<g>
	<path class="col" d="M53.7,53.5c14.8,0,26.8-12,26.8-26.8S68.5,0,53.7,0S26.9,12,26.9,26.8C26.9,41.5,38.9,53.5,53.7,53.5z M53.7,14.4
		C60.5,14.4,66,20,66,26.8s-5.5,12.3-12.3,12.3s-12.3-5.5-12.3-12.3S46.9,14.4,53.7,14.4z"/>
	<path class="col" d="M54.1,73.4c5,0,9.7,1.2,13.9,3.4c2.8-2.7,6.6-4.6,10.8-5.1l0.1,0c2-0.2,4-0.4,6-0.5c-8-7.6-18.9-12.3-30.8-12.3
		C29.3,58.9,9.2,79,9.2,103.8h52.8c-0.3-4.8-0.2-9.6,0.3-14.4h-35C32.5,79.8,42.6,73.4,54.1,73.4z"/>
	<polygon class="col" points="95.3,92 95.3,77.9 82.8,77.9 82.8,92 68.6,92 68.6,104.6 82.8,104.6 82.8,118.7 95.3,118.7 95.3,104.6
		109.5,104.6 109.5,92 	"/>
</g>
</svg>
