<?xml version="1.0" encoding="utf-8"?>
<svg version="1.1" id="Vrstva_1" xmlns="http://www.w3.org/2000/svg" xmlns:xlink="http://www.w3.org/1999/xlink" x="0px" y="0px" viewBox="0 0 118.7 118.7" style="enable-background:new 0 0 118.7 118.7;" xml:space="preserve">
 <path d="M107.4,58.7c-3.5,0-6.7,1.6-8.8,4.2l-6-1.1c0.1-0.8,0.1-1.6,0.1-2.3c0-9.2-3.9-17.5-10.1-23.3l4.8-6.5c1,0.3,2,0.4,3,0.4 c6.2,0,11.3-5.1,11.3-11.3S96.8,7.4,90.6,7.4s-11.3,5.1-11.3,11.3c0,2.6,0.9,5,2.4,6.9l-4.6,6.2c-4.8-2.9-10.4-4.5-16.4-4.5 c-4.5,0-8.8,0.9-12.7,2.6l-4.5-7.6c2-2.1,3.3-4.9,3.3-8C46.8,8.1,41.7,3,35.5,3S24.2,8.1,24.2,14.3c0,6.2,5.1,11.3,11.3,11.3 c0.6,0,1.1-0.1,1.7-0.1l4.7,7.9C36.3,37.5,32,43.3,30,50l-7.4-1.4C22,43,17.1,38.5,11.3,38.5C5.1,38.5,0,43.6,0,49.8 C0,56,5.1,61.1,11.3,61.1c4.1,0,7.7-2.2,9.7-5.5l7.7,1.4c-0.1,0.8-0.1,1.6-0.1,2.4c0,8.1,3,15.4,7.9,21.1l-4.7,5.6 c-1.3-0.5-2.6-0.8-4.1-0.8c-6.2,0-11.3,5.1-11.3,11.3c0,6.2,5.1,11.3,11.3,11.3S39,102.9,39,96.6c0-2.2-0.7-4.3-1.8-6.1l4.5-5.3 c5.3,3.9,11.9,6.3,19,6.3c2.9,0,5.7-0.4,8.4-1.2l2.1,5.2c-2.7,2.1-4.4,5.3-4.4,8.9c0,6.2,5.1,11.3,11.3,11.3 c6.2,0,11.3-5.1,11.3-11.3c0-6.2-5.1-11.3-11.3-11.3c-0.1,0-0.2,0-0.3,0l-2.1-5.3c7.5-4,13.2-10.8,15.7-19.1l4.7,0.9 c0,0.1,0,0.3,0,0.4c0,6.2,5.1,11.3,11.3,11.3s11.3-5.1,11.3-11.3C118.8,63.7,113.7,58.7,107.4,58.7z M90.6,14.4 c2.3,0,4.2,1.9,4.2,4.2c0,2.3-1.9,4.2-4.2,4.2c-2.3,0-4.2-1.9-4.2-4.2C86.4,16.3,88.3,14.4,90.6,14.4z M31.2,14.3 c0-2.3,1.9-4.2,4.2-4.2s4.2,1.9,4.2,4.2s-1.9,4.2-4.2,4.2S31.2,16.7,31.2,14.3z M11.3,54c-2.3,0-4.2-1.9-4.2-4.2s1.9-4.2,4.2-4.2 s4.2,1.9,4.2,4.2S13.6,54,11.3,54z M82.3,104.4c0,2.3-1.9,4.2-4.2,4.2s-4.2-1.9-4.2-4.2c0-2.3,1.9-4.2,4.2-4.2 S82.3,102.1,82.3,104.4z M27.7,100.9c-2.3,0-4.2-1.9-4.2-4.2c0-2.3,1.9-4.2,4.2-4.2s4.2,1.9,4.2,4.2C31.9,99,30,100.9,27.7,100.9z M60.7,84.4c-13.8,0-25-11.2-25-25s11.2-25,25-25s25,11.2,25,25S74.5,84.4,60.7,84.4z M107.4,74.2c-2.3,0-4.2-1.9-4.2-4.2 s1.9-4.2,4.2-4.2c2.3,0,4.2,1.9,4.2,4.2S109.8,74.2,107.4,74.2z"/>
 <polygon points="56.4,61.7 56.4,78.9 65.7,70.8 65.7,61.6 80.3,47.3 69.9,47.3 	"/>
 <polygon points="52.7,47.3 41.9,47.3 56.4,61.7 58.2,53.3 	"/>
</svg>
