<?xml version="1.0" encoding="utf-8"?>
<svg version="1.1" xmlns="http://www.w3.org/2000/svg" xmlns:xlink="http://www.w3.org/1999/xlink" x="0px" y="0px" viewBox="0 0 118.7 118.7" style="enable-background:new 0 0 118.7 118.7;" xml:space="preserve">
 <path d="M109.1,17.6c-6.2-6.2-14.5-9.6-23.2-9.6s-17,3.4-23.2,9.6c-1.2,1.2-2.3,2.5-3.3,3.8c-1-1.4-2.1-2.6-3.3-3.8 C43.3,4.8,22.4,4.8,9.6,17.6c-12.8,12.8-12.8,33.7,0,46.5l45.1,45.1c1.1,1.1,2.5,1.6,3.9,1.6c1.4,0,2.7-0.5,3.8-1.5l8.4-8l-7.6-8 l-4.6,4.3L17.4,56.3c-8.5-8.5-8.5-22.4,0-30.9s22.4-8.5,30.9,0c2.8,2.8,4.8,6.3,5.7,10.2c0.6,2.5,2.8,4.2,5.3,4.2 c2.5,0,4.7-1.7,5.3-4.2c1-3.9,2.9-7.4,5.7-10.2c4.1-4.1,9.6-6.4,15.4-6.4c5.8,0,11.3,2.3,15.5,6.4c4.4,4.4,6.5,10.3,6.4,16.1h11 C118.9,32.8,115.7,24.1,109.1,17.6z"/>
 <polygon points="109,54 95.1,54 77.3,72.6 77.3,95.3 89.6,84.6 89.6,72.6"/>
 <polygon points="72.4,54 58.1,54 77.3,72.6 79.7,61.8"/>
</svg>
