<?xml version="1.0" encoding="utf-8"?>
<!-- Generator: Adobe Illustrator 26.4.1, SVG Export Plug-In . SVG Version: 6.00 Build 0)  -->
<svg version="1.1" id="Vrstva_1" xmlns="http://www.w3.org/2000/svg" xmlns:xlink="http://www.w3.org/1999/xlink" x="0px" y="0px"
	 viewBox="0 0 118.7 118.7" style="enable-background:new 0 0 118.7 118.7;" xml:space="preserve">
	<style type="text/css">
	.col{fill:#FCD213;}
</style>
	<g>
	<path class="col" d="M59.4,0C26.6,0,0,26.6,0,59.4s26.6,59.4,59.4,59.4s59.4-26.6,59.4-59.4S92.1,0,59.4,0z M59.4,104.7
		c-25,0-45.4-20.4-45.4-45.4S34.4,14,59.4,14s45.4,20.4,45.4,45.4S84.4,104.7,59.4,104.7z"/>
	<path class="col" d="M54.3,49.2c0-5.9-4.8-10.7-10.7-10.7S33,43.3,33,49.2c0,5.9,4.8,10.7,10.7,10.7S54.3,55.1,54.3,49.2z"/>
	<path class="col" d="M74.8,38.5c-5.9,0-10.7,4.8-10.7,10.7s4.8,10.7,10.7,10.7s10.7-4.8,10.7-10.7C85.5,43.3,80.7,38.5,74.8,38.5z"/>
	<path class="col" d="M59.4,87c10.6,0,19.6-7.2,22.3-17H37.1C39.8,79.8,48.7,87,59.4,87z"/>
</g>
</svg>
