<?xml version="1.0" encoding="utf-8"?>
<!-- Generator: Adobe Illustrator 26.4.1, SVG Export Plug-In . SVG Version: 6.00 Build 0)  -->
<svg version="1.1" id="Vrstva_1" xmlns="http://www.w3.org/2000/svg" xmlns:xlink="http://www.w3.org/1999/xlink" x="0px" y="0px"
	 viewBox="0 0 118.7 118.7" style="enable-background:new 0 0 118.7 118.7;" xml:space="preserve">
<style>
	.col { fill:#7f0000;}
</style>
	<g>
	<path class="col" d="M39.1,53.5V33.8c0-10.6,7.8-19.8,18.4-20.8c12.1-1.1,22.3,8.4,22.3,20.2h12.9C92.6,15.1,78,0.3,59.9,0
		C41.4-0.3,26.2,15.5,26.2,34.1v19.4h-7.9c-3.1,0-5.7,2.5-5.7,5.7v53.8c0,3.1,2.5,5.7,5.7,5.7h82.1c3.1,0,5.7-2.5,5.7-5.7V59.2
		c0-3.1-2.5-5.7-5.7-5.7H39.1z M93.2,105.9H25.5V66.4h67.7L93.2,105.9L93.2,105.9z"/>
	<path class="col" d="M60.1,78h-1.5c-3.1,0-5.7,2.5-5.7,5.7v3.7c0,3.1,2.5,5.7,5.7,5.7h1.5c3.1,0,5.7-2.5,5.7-5.7v-3.7
		C65.8,80.6,63.3,78,60.1,78z"/>
</g>
</svg>
