<?xml version="1.0" encoding="utf-8"?>
<!-- Generator: Adobe Illustrator 26.4.1, SVG Export Plug-In . SVG Version: 6.00 Build 0)  -->
<svg version="1.1" id="Vrstva_1" xmlns="http://www.w3.org/2000/svg" xmlns:xlink="http://www.w3.org/1999/xlink" x="0px" y="0px"
	 viewBox="0 0 118.7 118.7" style="enable-background:new 0 0 118.7 118.7;" xml:space="preserve">
	<style type="text/css">
	.col{fill:#FCD213;}
</style>
	<g>
	<path class="col" d="M87.8,21.5l-2.5,6.8H8.8c-5.9,0-10,5.9-8,11.5l16.2,44.9c1.2,3.4,4.4,5.6,8,5.6h48.6c3.6,0,6.8-2.3,8-5.6L86,72.4l0.1,0
		l16.4-45.6c2.4-6.7,8.8-11.2,15.9-11.2V0C104.8,0,92.5,8.7,87.8,21.5z M29.9,74.7L18.9,44h60.8L68.6,74.7H29.9z"/>
	<ellipse class="col" cx="32.5" cy="107" rx="11.7" ry="11.7"/>
	<circle class="col" cx="66.1" cy="107" r="11.7"/>
</g>
</svg>
