<?xml version="1.0" encoding="utf-8"?>
 <svg version="1.1" id="Vrstva_1" xmlns="http://www.w3.org/2000/svg" xmlns:xlink="http://www.w3.org/1999/xlink" x="0px" y="0px" viewBox="0 0 118.7 118.7" style="enable-background:new 0 0 118.7 118.7;" xml:space="preserve">
 <path d="M101.7,10.9H90.1V0H78.2v10.9H40.6V0H28.7v10.9H17c-7.2,0-13,5.8-13,13v81.8c0,7.2,5.8,13,13,13h84.7c7.2,0,13-5.8,13-13 V23.9C114.8,16.7,108.9,10.9,101.7,10.9z M102.8,105.7c0,0.6-0.5,1.1-1.1,1.1H17c-0.6,0-1.1-0.5-1.1-1.1V23.9 c0-0.6,0.5-1.1,1.1-1.1h84.7c0.6,0,1.1,0.5,1.1,1.1V105.7z"/>
 <polygon points="65.2,58.2 59.4,40.2 53.5,58.2 34.6,58.2 49.9,69.3 44.1,87.3 59.4,76.2 74.7,87.3 68.8,69.3 84.1,58.2"/>
</svg>
