<?xml version="1.0" encoding="utf-8"?>
<!-- Generator: Adobe Illustrator 26.4.1, SVG Export Plug-In . SVG Version: 6.00 Build 0)  -->
<svg version="1.1" id="Vrstva_1" xmlns="http://www.w3.org/2000/svg" xmlns:xlink="http://www.w3.org/1999/xlink" x="0px" y="0px"
	 viewBox="0 0 118.7 118.7" style="enable-background:new 0 0 118.7 118.7;" xml:space="preserve">
<path d="M60.2,103.5c-1,0-2-0.2-3-0.7c-2.2-1.1-3.6-3.4-3.6-5.8V84.4c-11.1,2.4-31.6,7.7-43.4,15.7c-2.1,1.4-4.7,1.5-6.9,0.3
	s-3.4-3.6-3.3-6.1c2.1-38.3,33.3-54.4,53.6-58.7V21.8c0-2.5,1.4-4.7,3.6-5.8c2.2-1.1,4.8-0.9,6.8,0.5l52,37.6
	c1.7,1.2,2.7,3.2,2.7,5.3c0,2.1-1,4.1-2.7,5.3l-52,37.6C62.9,103.1,61.5,103.5,60.2,103.5z M60.2,69.8c1.5,0,3,0.5,4.2,1.5
	c1.5,1.3,2.3,3.1,2.3,5v7.8L101,59.4L66.7,34.6v6.5c0,3.3-2.5,6.2-5.8,6.5c-1.6,0.2-36.5,4.6-45.7,34.9
	c19.1-8.4,42.6-12.5,43.8-12.7C59.5,69.8,59.8,69.8,60.2,69.8z"/>
</svg>
