<?xml version="1.0" encoding="utf-8"?>
<!-- Generator: Adobe Illustrator 26.4.1, SVG Export Plug-In . SVG Version: 6.00 Build 0)  -->
<svg version="1.1" id="Vrstva_1" xmlns="http://www.w3.org/2000/svg" xmlns:xlink="http://www.w3.org/1999/xlink" x="0px" y="0px"
	 viewBox="0 0 118.7 118.7" style="enable-background:new 0 0 118.7 118.7;" xml:space="preserve">
	<style type="text/css">
	.col{fill:#FCD213;}
</style>
<g>
	<path class="col" d="M117.8,79.6l-11.3-38l-0.1-0.4c-5.5-14.9-19.4-25-34.7-25H47.1c-15.3,0-29.3,10-34.7,25L1,79.6
		c-1.9,5.3-1.1,11.2,2.1,15.7c3.1,4.5,8,7,13.3,7c4.5,0,8.9-2,12-5.4l16.9-18.7c0.6-0.7,1.4-1,2.2-1h23.5c0.8,0,1.6,0.4,2.2,1
		l16.9,18.7c3.1,3.4,7.5,5.4,12,5.4c5.3,0,10.2-2.6,13.3-7C118.8,90.8,119.6,84.9,117.8,79.6z M104.8,87.8c-0.4,0.5-1.2,1.4-2.5,1.4
		c-0.8,0-1.6-0.4-2.2-1L83.2,69.5c-3.1-3.4-7.5-5.4-12-5.4H47.6c-4.5,0-8.9,2-12,5.4L18.7,88.1c-0.6,0.7-1.4,1-2.2,1
		c-1.3,0-2.1-0.9-2.5-1.4c-0.8-1.1-0.9-2.5-0.5-3.8l11.4-38.3c3.7-9.8,12.4-16.1,22.3-16.1h24.5c9.9,0,18.6,6.3,22.3,16.1l11.3,37.9
		l0.1,0.4C105.7,85.3,105.6,86.7,104.8,87.8z"/>
	<circle class="col" cx="45.7" cy="50.6" r="8.8"/>
	<polygon class="col" points="78.3,40 74.8,40 74.8,48.8 66,48.8 66,52.3 74.8,52.3 74.8,61.1 78.3,61.1 78.3,52.3 87.1,52.3
		87.1,48.8 78.3,48.8 	"/>
</g>
</svg>
