<?xml version="1.0" encoding="utf-8"?>
<!-- Generator: Adobe Illustrator 27.9.0, SVG Export Plug-In . SVG Version: 6.00 Build 0)  -->
<svg version="1.1" id="Vrstva_1" xmlns="http://www.w3.org/2000/svg" xmlns:xlink="http://www.w3.org/1999/xlink" x="0px" y="0px"
	 viewBox="0 0 118.74 118.74" style="enable-background:new 0 0 118.74 118.74;" xml:space="preserve">
<style type="text/css">
	.st0{fill:url(#SVGID_1_);}
	.st1{fill:#0E101F;}
	.st2{fill:#FCD213;}
	.st3{fill:#010202;}
	.st4{fill:none;stroke:#000000;stroke-width:7;stroke-miterlimit:10;}
	.st5{fill:#FDD213;}
	.st6{fill:#6BB42D;}
	.st7{fill:#E83C3D;}
</style>
<path class="st2" d="M26.18,2.95C14.36,5.12,5.12,14.36,2.95,26.18C1.04,36.62,0,47.78,0,59.37s1.04,22.75,2.95,33.19
	c2.17,11.81,11.41,21.05,23.22,23.22c10.44,1.92,21.6,2.95,33.19,2.95s22.75-1.04,33.19-2.95c11.81-2.17,21.05-11.41,23.22-23.22
	c1.92-10.44,2.95-21.6,2.95-33.19c0-11.61-1.04-22.78-2.96-33.23C113.61,14.35,104.39,5.13,92.6,2.96C82.15,1.04,70.98,0,59.37,0
	C47.78,0,36.62,1.04,26.18,2.95z"/>
<path d="M59.37,33.24c-14.43,0-26.14,11.7-26.14,26.14s11.7,26.14,26.14,26.14s26.14-11.7,26.14-26.14S73.8,33.24,59.37,33.24z
	 M46.65,63.36c-2.2,0-3.99-1.78-3.99-3.99s1.78-3.99,3.99-3.99c2.2,0,3.99,1.78,3.99,3.99S48.85,63.36,46.65,63.36z M59.37,63.36
	c-2.2,0-3.99-1.78-3.99-3.99s1.78-3.99,3.99-3.99s3.99,1.78,3.99,3.99S61.57,63.36,59.37,63.36z M72.09,63.36
	c-2.2,0-3.99-1.78-3.99-3.99s1.78-3.99,3.99-3.99c2.2,0,3.99,1.78,3.99,3.99S74.29,63.36,72.09,63.36z"/>
</svg>
