<?xml version="1.0" encoding="utf-8"?>
<!-- Generator: Adobe Illustrator 27.9.0, SVG Export Plug-In . SVG Version: 6.00 Build 0)  -->
<svg version="1.1" id="Vrstva_1" xmlns="http://www.w3.org/2000/svg" xmlns:xlink="http://www.w3.org/1999/xlink" x="0px" y="0px"
	 viewBox="0 0 118.74 118.74" style="enable-background:new 0 0 118.74 118.74;" xml:space="preserve">
<style type="text/css">
	.st0{fill:url(#SVGID_1_);}
	.st1{fill:#0E101F;}
	.st2{fill:#FCD213;}
	.st3{fill:#010202;}
	.st4{fill:none;stroke:#000000;stroke-width:7;stroke-miterlimit:10;}
	.st5{fill:#FDD213;}
	.st6{fill:#6BB42D;}
	.st7{fill:#E83C3D;}
</style>
<path class="st2" d="M26.18,2.95C14.36,5.12,5.12,14.36,2.95,26.18C1.04,36.62,0,47.78,0,59.37s1.04,22.75,2.95,33.19
	c2.17,11.81,11.41,21.05,23.22,23.22c10.44,1.92,21.6,2.95,33.19,2.95s22.75-1.04,33.19-2.95c11.81-2.17,21.05-11.41,23.22-23.22
	c1.92-10.44,2.95-21.6,2.95-33.19c0-11.61-1.04-22.78-2.96-33.23C113.61,14.35,104.39,5.13,92.6,2.96C82.15,1.04,70.98,0,59.37,0
	C47.78,0,36.62,1.04,26.18,2.95z"/>
<g>
	<path d="M43.43,56.68h-5.46c-1.53,0-2.77,1.24-2.77,2.77v21.04c0,1.53,1.24,2.77,2.77,2.77h5.46c1.53,0,2.77-1.24,2.77-2.77V59.45
		C46.2,57.92,44.96,56.68,43.43,56.68z"/>
	<path d="M79.59,58.55c2.18,0,3.96-1.77,3.96-3.96s-1.77-3.96-3.96-3.96H69.12l0,0h-4.16V44.2c0-4.82-3.91-8.73-8.73-8.73
		c0,7.07-2.09,13.99-6.02,19.87l-1.32,1.98v24.95h20.22l0,0h4.99c2.18,0,3.96-1.77,3.96-3.96c0-2.18-1.77-3.96-3.96-3.96h3.1
		c2.18,0,3.96-1.77,3.96-3.95l0,0c0-2.18-1.77-3.96-3.96-3.96h2.39c2.18,0,3.96-1.77,3.96-3.95v0
		C83.55,60.33,81.78,58.55,79.59,58.55z"/>
</g>
</svg>
