<?xml version="1.0" encoding="utf-8"?>
<!-- Generator: Adobe Illustrator 27.9.0, SVG Export Plug-In . SVG Version: 6.00 Build 0)  -->
<svg version="1.1" id="Vrstva_1" xmlns="http://www.w3.org/2000/svg" xmlns:xlink="http://www.w3.org/1999/xlink" x="0px" y="0px"
	 viewBox="0 0 118.74 118.74" style="enable-background:new 0 0 118.74 118.74;" xml:space="preserve">
<style type="text/css">
	.st0{fill:url(#SVGID_1_);}
	.st1{fill:#0E101F;}
	.st2{fill:#FCD213;}
	.st3{fill:#010202;}
	.st4{fill:none;stroke:#000000;stroke-width:7;stroke-miterlimit:10;}
	.st5{fill:#FDD213;}
	.st6{fill:#6BB42D;}
	.st7{fill:#E83C3D;}
</style>
<path class="st2" d="M26.18,2.95C14.36,5.12,5.12,14.36,2.95,26.18C1.04,36.62,0,47.78,0,59.37s1.04,22.75,2.95,33.19
	c2.17,11.81,11.41,21.05,23.22,23.22c10.44,1.92,21.6,2.95,33.19,2.95s22.75-1.04,33.19-2.95c11.81-2.17,21.05-11.41,23.22-23.22
	c1.92-10.44,2.95-21.6,2.95-33.19c0-11.61-1.04-22.78-2.96-33.23C113.61,14.35,104.39,5.13,92.6,2.96C82.15,1.04,70.98,0,59.37,0
	C47.78,0,36.62,1.04,26.18,2.95z"/>
<g>
	<path d="M62.27,33.61c-1.71-0.34-3.48,0.28-4.75,1.48l-11.6,10.95H32.99c-1.66,0-3,1.34-3,3V69.7c0,1.66,1.34,3,3,3h12.93
		l11.73,11.08c1,0.95,2.3,1.44,3.63,1.44c1.05,0,2.11-0.31,3.05-0.96c1.45-1.01,2.23-2.73,2.23-4.5V38.8
		C66.56,36.32,64.82,34.11,62.27,33.61z M59.76,76.41L48.63,65.9H36.79V52.84h11.84l11.14-10.51V76.41z"/>
	<polygon points="90.98,53.31 86.52,48.86 80.46,54.92 74.41,48.86 69.95,53.31 76.01,59.37 69.95,65.43 74.41,69.88 80.46,63.83 
		86.52,69.88 90.98,65.43 84.92,59.37 	"/>
</g>
</svg>
