<?xml version="1.0" encoding="utf-8"?>
<!-- Generator: Adobe Illustrator 27.9.0, SVG Export Plug-In . SVG Version: 6.00 Build 0)  -->
<svg version="1.1" id="Vrstva_1" xmlns="http://www.w3.org/2000/svg" xmlns:xlink="http://www.w3.org/1999/xlink" x="0px" y="0px"
	 viewBox="0 0 118.74 118.74" style="enable-background:new 0 0 118.74 118.74;" xml:space="preserve">
<style type="text/css">
	.st0{fill:url(#SVGID_1_);}
	.st1{fill:#0E101F;}
	.st2{fill:#FCD213;}
	.st3{fill:#010202;}
	.st4{fill:none;stroke:#000000;stroke-width:7;stroke-miterlimit:10;}
	.st5{fill:#FDD213;}
	.st6{fill:#6BB42D;}
	.st7{fill:#E83C3D;}
</style>
<path class="st2" d="M26.18,2.95C14.36,5.12,5.12,14.36,2.95,26.18C1.04,36.62,0,47.78,0,59.37s1.04,22.75,2.95,33.19
	c2.17,11.81,11.41,21.05,23.22,23.22c10.44,1.92,21.6,2.95,33.19,2.95s22.75-1.04,33.19-2.95c11.81-2.17,21.05-11.41,23.22-23.22
	c1.92-10.44,2.95-21.6,2.95-33.19c0-11.61-1.04-22.78-2.96-33.23C113.61,14.35,104.39,5.13,92.6,2.96C82.15,1.04,70.98,0,59.37,0
	C47.78,0,36.62,1.04,26.18,2.95z"/>
<g>
	<path d="M70.41,51.69c-3.56,0-6.45-2.89-6.45-6.45v-9.33H48.84c-3.56,0-6.45,2.89-6.45,6.45v29.37l11.34-11.34h0l2.12-2.12l0.3-0.3
		L59,55.11c1.07-1.07,2.5-1.66,4.02-1.66c1.52,0,2.95,0.59,4.02,1.66l3.08,3.08c2.22,2.22,2.21,5.82,0,8.04l-2.84,2.84l-2.12,2.12
		L53.5,82.83h19.8c3.56,0,6.45-2.89,6.45-6.45v-24.7H70.41z"/>
	<polygon points="68.46,36.16 68.46,47.19 79.49,47.19 	"/>
	<polygon points="55.85,62.5 42.39,75.96 42.39,76.39 42.39,82.79 42.44,82.79 42.44,82.83 48.84,82.83 49.26,82.83 62.72,69.37 	
		"/>
	<path d="M65.14,66.95l2.84-2.84c0.02-0.02,0.04-0.05,0.06-0.08c0.14-0.16,0.26-0.33,0.36-0.5c0.14-0.25,0.25-0.52,0.31-0.8
		c0.03-0.17,0.05-0.34,0.05-0.51c0-0.52-0.15-1.03-0.44-1.48c-0.1-0.15-0.21-0.29-0.34-0.42l-3.08-3.07
		c-0.13-0.13-0.26-0.24-0.41-0.34s-0.3-0.18-0.46-0.25c-0.32-0.13-0.67-0.2-1.03-0.2c-0.18,0-0.36,0.02-0.53,0.05
		c-0.28,0.05-0.53,0.16-0.78,0.3c-0.21,0.12-0.41,0.26-0.59,0.43l-1.57,1.57l-1.27,1.27l-0.3,0.3l6.87,6.87L65.14,66.95z"/>
</g>
</svg>
