<?xml version="1.0" encoding="utf-8"?>
<!-- Generator: Adobe Illustrator 27.9.0, SVG Export Plug-In . SVG Version: 6.00 Build 0)  -->
<svg version="1.1" id="Vrstva_1" xmlns="http://www.w3.org/2000/svg" xmlns:xlink="http://www.w3.org/1999/xlink" x="0px" y="0px"
	 viewBox="0 0 118.74 118.74" style="enable-background:new 0 0 118.74 118.74;" xml:space="preserve">
<style type="text/css">
	.st0{fill:url(#SVGID_1_);}
	.st1{fill:#0E101F;}
	.st2{fill:#FCD213;}
	.st3{fill:#010202;}
	.st4{fill:none;stroke:#000000;stroke-width:7;stroke-miterlimit:10;}
	.st5{fill:#FDD213;}
	.st6{fill:#6BB42D;}
	.st7{fill:#E83C3D;}
</style>
<path class="st2" d="M26.18,2.95C14.36,5.12,5.12,14.36,2.95,26.18C1.04,36.62,0,47.78,0,59.37s1.04,22.75,2.95,33.19
	c2.17,11.81,11.41,21.05,23.22,23.22c10.44,1.92,21.6,2.95,33.19,2.95s22.75-1.04,33.19-2.95c11.81-2.17,21.05-11.41,23.22-23.22
	c1.92-10.44,2.95-21.6,2.95-33.19c0-11.61-1.04-22.78-2.96-33.23C113.61,14.35,104.39,5.13,92.6,2.96C82.15,1.04,70.98,0,59.37,0
	C47.78,0,36.62,1.04,26.18,2.95z"/>
<g>
	<path d="M66.44,56.24c2.89,0,5.24-2.34,5.24-5.24s-2.34-5.24-5.24-5.24s-5.24,2.34-5.24,5.24S63.55,56.24,66.44,56.24z"/>
	<path d="M84.44,45.76c-2.89,0-5.24,2.34-5.24,5.24s2.34,5.24,5.24,5.24c2.89,0,5.24-2.34,5.24-5.24S87.33,45.76,84.44,45.76z"/>
	<path d="M72.78,64.45c-1.39-1.39-3.23-2.15-5.19-2.15c-1.96,0-3.8,0.76-5.19,2.15c-1.48,1.48-3.44,2.29-5.52,2.29
		s-4.05-0.81-5.52-2.29l-1.33-1.33c-1.48-1.48-2.29-3.44-2.29-5.52s0.81-4.05,2.29-5.52c2.86-2.86,2.86-7.52,0-10.38l-6.17-6.17
		c-2.19-2.19-5.55-2.76-8.36-1.41l-0.34,0.19c-0.64,0.4-1.25,0.87-1.81,1.38l-0.15,0.15c-0.69,0.72-1.33,1.5-1.92,2.34l-0.12,0.18
		c-4.83,7.86-1.08,21.13,9.1,32.28l3.45,3.45l0.11,0.11C51.77,81.45,60.7,85.36,68,85.36c4.15,0,7.78-1.26,10.4-3.89l0,0
		c0.78-0.78,1.45-1.66,2.01-2.63l0.15-0.26l0.1-0.28c0.96-2.67,0.29-5.68-1.71-7.68L72.78,64.45z"/>
</g>
</svg>
