<?xml version="1.0" encoding="utf-8"?>
<!-- Generator: Adobe Illustrator 27.9.0, SVG Export Plug-In . SVG Version: 6.00 Build 0)  -->
<svg version="1.1" id="Vrstva_1" xmlns="http://www.w3.org/2000/svg" xmlns:xlink="http://www.w3.org/1999/xlink" x="0px" y="0px"
	 viewBox="0 0 118.74 118.74" style="enable-background:new 0 0 118.74 118.74;" xml:space="preserve">
<style type="text/css">
	.st0{fill:url(#SVGID_1_);}
	.st1{fill:#0E101F;}
	.st2{fill:#FCD213;}
	.st3{fill:#010202;}
	.st4{fill:none;stroke:#000000;stroke-width:7;stroke-miterlimit:10;}
	.st5{fill:#FDD213;}
	.st6{fill:#6BB42D;}
	.st7{fill:#E83C3D;}
</style>
<path class="st6" d="M26.18,2.95C14.36,5.12,5.12,14.36,2.95,26.18C1.04,36.62,0,47.78,0,59.37s1.04,22.75,2.95,33.19
	c2.17,11.81,11.41,21.05,23.22,23.22c10.44,1.92,21.6,2.95,33.19,2.95s22.75-1.04,33.19-2.95c11.81-2.17,21.05-11.41,23.22-23.22
	c1.92-10.44,2.95-21.6,2.95-33.19c0-11.61-1.04-22.78-2.96-33.23C113.61,14.35,104.39,5.13,92.6,2.96C82.15,1.04,70.98,0,59.37,0
	C47.78,0,36.62,1.04,26.18,2.95z"/>
<path d="M83.87,69.97L77.7,63.8c-1.36-1.36-3.17-2.11-5.09-2.11s-3.73,0.75-5.09,2.11c-0.82,0.82-1.92,1.28-3.09,1.28
	c-1.17,0-2.26-0.45-3.09-1.28l-6.4-6.4c-0.82-0.83-1.28-1.92-1.28-3.09c0-1.17,0.45-2.26,1.28-3.09c1.36-1.36,2.11-3.17,2.11-5.09
	c0-1.92-0.75-3.73-2.11-5.09l-6.17-6.17c-2.8-2.81-7.37-2.81-10.18,0c-7.75,7.75-7.75,20.37,0,28.12l17.16,17.16
	c3.76,3.76,8.75,5.83,14.06,5.83s10.31-2.07,14.06-5.82c1.36-1.36,2.11-3.17,2.11-5.09C85.98,73.14,85.23,71.33,83.87,69.97z
	 M79.29,75.57c-2.53,2.53-5.9,3.93-9.48,3.93c-3.58,0-6.95-1.4-9.48-3.93L43.17,58.42c-5.23-5.23-5.23-13.74,0-18.96
	c0.14-0.14,0.33-0.21,0.51-0.21s0.37,0.07,0.51,0.21l6.17,6.17c0.17,0.17,0.21,0.37,0.21,0.51c0,0.14-0.04,0.33-0.21,0.51
	c-4.23,4.23-4.23,11.11,0,15.33l6.4,6.4c4.23,4.23,11.11,4.23,15.33,0h0c0.17-0.17,0.37-0.21,0.51-0.21c0.14,0,0.33,0.04,0.51,0.21
	l6.17,6.17c0.17,0.17,0.21,0.37,0.21,0.51C79.5,75.2,79.46,75.4,79.29,75.57z"/>
</svg>
