<?xml version="1.0" encoding="utf-8"?>
<!-- Generator: Adobe Illustrator 27.9.0, SVG Export Plug-In . SVG Version: 6.00 Build 0)  -->
<svg version="1.1" id="Vrstva_1" xmlns="http://www.w3.org/2000/svg" xmlns:xlink="http://www.w3.org/1999/xlink" x="0px" y="0px"
	 viewBox="0 0 118.74 118.74" style="enable-background:new 0 0 118.74 118.74;" xml:space="preserve">
<style type="text/css">
	.st0{fill:url(#SVGID_1_);}
	.st1{fill:#0E101F;}
	.st2{fill:#FCD213;}
	.st3{fill:#010202;}
	.st4{fill:none;stroke:#000000;stroke-width:7;stroke-miterlimit:10;}
	.st5{fill:#FDD213;}
	.st6{fill:#6BB42D;}
	.st7{fill:#E83C3D;}
</style>
<path class="st2" d="M26.18,2.95C14.36,5.12,5.12,14.36,2.95,26.18C1.04,36.62,0,47.78,0,59.37s1.04,22.75,2.95,33.19
	c2.17,11.81,11.41,21.05,23.22,23.22c10.44,1.92,21.6,2.95,33.19,2.95s22.75-1.04,33.19-2.95c11.81-2.17,21.05-11.41,23.22-23.22
	c1.92-10.44,2.95-21.6,2.95-33.19c0-11.61-1.04-22.78-2.96-33.23C113.61,14.35,104.39,5.13,92.6,2.96C82.15,1.04,70.98,0,59.37,0
	C47.78,0,36.62,1.04,26.18,2.95z"/>
<g>
	<path d="M56.62,56.54c7.16,0,12.97-5.81,12.97-12.97c0-7.16-5.81-12.97-12.97-12.97c-7.16,0-12.97,5.81-12.97,12.97
		C43.65,50.73,49.46,56.54,56.62,56.54z"/>
	<path d="M68.84,65.34c0.97-0.11,1.94-0.18,2.92-0.22c-3.89-3.69-9.15-5.96-14.94-5.96c-12,0-21.73,9.73-21.73,21.73h25.59
		c-0.16-2.55-0.1-5.1,0.19-7.64h0c0.47-4.16,3.75-7.44,7.91-7.91L68.84,65.34z"/>
	<polygon points="76.79,75.2 76.79,68.33 70.72,68.33 70.72,75.2 63.85,75.2 63.85,81.27 70.72,81.27 70.72,88.14 76.79,88.14 
		76.79,81.27 83.66,81.27 83.66,75.2 	"/>
</g>
</svg>
