<?xml version="1.0" encoding="utf-8"?>
<!-- Generator: Adobe Illustrator 27.9.0, SVG Export Plug-In . SVG Version: 6.00 Build 0)  -->
<svg version="1.1" id="Vrstva_1" xmlns="http://www.w3.org/2000/svg" xmlns:xlink="http://www.w3.org/1999/xlink" x="0px" y="0px"
	 viewBox="0 0 118.74 118.74" style="enable-background:new 0 0 118.74 118.74;" xml:space="preserve">
<style type="text/css">
	.st0{fill:url(#SVGID_1_);}
	.st1{fill:#0E101F;}
	.st2{fill:#FCD213;}
	.st3{fill:#010202;}
	.st4{fill:none;stroke:#000000;stroke-width:7;stroke-miterlimit:10;}
	.st5{fill:#FDD213;}
	.st6{fill:#6BB42D;}
	.st7{fill:#E83C3D;}
</style>
<path class="st2" d="M26.18,2.95C14.36,5.12,5.12,14.36,2.95,26.18C1.04,36.62,0,47.78,0,59.37s1.04,22.75,2.95,33.19
	c2.17,11.81,11.41,21.05,23.22,23.22c10.44,1.92,21.6,2.95,33.19,2.95s22.75-1.04,33.19-2.95c11.81-2.17,21.05-11.41,23.22-23.22
	c1.92-10.44,2.95-21.6,2.95-33.19c0-11.61-1.04-22.78-2.96-33.23C113.61,14.35,104.39,5.13,92.6,2.96C82.15,1.04,70.98,0,59.37,0
	C47.78,0,36.62,1.04,26.18,2.95z"/>
<g>
	<path d="M80.55,42.4l-0.74-0.3c0.02,0.3,0.04,0.61,0.03,0.9l-0.77,21.49l5.3-13.08C85.8,47.87,84.09,43.83,80.55,42.4z"/>
	<path d="M77.27,58.68l0.57-15.75c0.02-0.58-0.04-1.15-0.15-1.69c-0.65-3.03-3.27-5.35-6.51-5.47l-1.35-0.05
		c0.03,0.09,0.07,0.17,0.1,0.26L77.27,58.68z"/>
	<path d="M77.94,67.25l-0.88-2.73l-9.04-27.94c-0.11-0.33-0.25-0.65-0.4-0.95c-1.5-3.02-5.01-4.57-8.31-3.5l-8.89,2.88l-6.01,1.95
		l-5.74,1.86c-3.64,1.18-5.63,5.08-4.45,8.71l5.94,18.36l1.17,3.62l4.09,12.64c0.39,1.2,1.07,2.21,1.94,3
		c1.78,1.6,4.33,2.25,6.77,1.46l0.99-0.32l2.33-0.76l17.32-5.6c0.64-0.21,1.23-0.51,1.77-0.87c2.47-1.69,3.65-4.85,2.69-7.84
		L77.94,67.25z M59.92,69.37l-8.71-8.24l2.3-11.76l8.71,8.24L59.92,69.37z"/>
</g>
</svg>
