<?xml version="1.0" encoding="utf-8"?>
<!-- Generator: Adobe Illustrator 27.9.0, SVG Export Plug-In . SVG Version: 6.00 Build 0)  -->
<svg version="1.1" id="Vrstva_1" xmlns="http://www.w3.org/2000/svg" xmlns:xlink="http://www.w3.org/1999/xlink" x="0px" y="0px"
	 viewBox="0 0 118.74 118.74" style="enable-background:new 0 0 118.74 118.74;" xml:space="preserve">
<style type="text/css">
	.st0{fill:url(#SVGID_1_);}
	.st1{fill:#0E101F;}
	.st2{fill:#FCD213;}
	.st3{fill:#010202;}
	.st4{fill:none;stroke:#000000;stroke-width:7;stroke-miterlimit:10;}
	.st5{fill:#FDD213;}
	.st6{fill:#6BB42D;}
	.st7{fill:#E83C3D;}
</style>
<path class="st2" d="M26.18,2.95C14.36,5.12,5.12,14.36,2.95,26.18C1.04,36.62,0,47.78,0,59.37s1.04,22.75,2.95,33.19
	c2.17,11.81,11.41,21.05,23.22,23.22c10.44,1.92,21.6,2.95,33.19,2.95s22.75-1.04,33.19-2.95c11.81-2.17,21.05-11.41,23.22-23.22
	c1.92-10.44,2.95-21.6,2.95-33.19c0-11.61-1.04-22.78-2.96-33.23C113.61,14.35,104.39,5.13,92.6,2.96C82.15,1.04,70.98,0,59.37,0
	C47.78,0,36.62,1.04,26.18,2.95z"/>
<g>
	<path d="M60.26,53.69h0.56c0.76,0,1.38,0.62,1.38,1.38h4.73c0-2.63-1.68-4.88-4.02-5.73v-2.77h-4.73v2.77
		c-2.34,0.86-4.02,3.1-4.02,5.73v0.56c0,3.37,2.74,6.11,6.11,6.11h0.56c0.76,0,1.38,0.62,1.38,1.38v0.56c0,0.76-0.62,1.38-1.38,1.38
		h-0.56c-0.76,0-1.38-0.62-1.38-1.38h-4.73c0,2.63,1.68,4.88,4.02,5.73v2.77h4.73v-2.77c2.34-0.86,4.02-3.1,4.02-5.73v-0.56
		c0-3.37-2.74-6.11-6.11-6.11h-0.56c-0.76,0-1.38-0.62-1.38-1.38v-0.56C58.88,54.31,59.5,53.69,60.26,53.69z"/>
	<path d="M91.48,58.89c-2.36,0-4.47,1.09-5.86,2.79l-3.99-0.75c0.04-0.52,0.08-1.04,0.08-1.56c0-6.13-2.6-11.66-6.74-15.57
		l3.22-4.35c0.65,0.18,1.32,0.28,2.02,0.28c4.16,0,7.55-3.39,7.55-7.55s-3.39-7.55-7.55-7.55c-4.17,0-7.55,3.39-7.55,7.55
		c0,1.75,0.6,3.35,1.6,4.63l-3.07,4.14c-3.21-1.91-6.94-3.03-10.94-3.03c-3.01,0-5.88,0.63-8.48,1.76l-3-5.06
		c1.36-1.37,2.2-3.25,2.2-5.32c0-4.17-3.39-7.55-7.55-7.55c-4.17,0-7.55,3.39-7.55,7.55c0,4.16,3.39,7.55,7.55,7.55
		c0.38,0,0.76-0.04,1.13-0.09l3.13,5.27c-3.73,2.72-6.57,6.59-7.94,11.11l-4.96-0.92c-0.38-3.81-3.61-6.79-7.51-6.79
		c-4.16,0-7.55,3.39-7.55,7.55c0,4.17,3.39,7.55,7.55,7.55c2.75,0,5.16-1.49,6.48-3.7l5.14,0.96c-0.04,0.52-0.08,1.05-0.08,1.58
		c0,5.38,2.01,10.3,5.29,14.07l-3.16,3.77c-0.84-0.32-1.75-0.51-2.71-0.51c-4.16,0-7.55,3.39-7.55,7.55s3.39,7.55,7.55,7.55
		c4.17,0,7.55-3.39,7.55-7.55c0-1.49-0.44-2.88-1.19-4.05l2.99-3.57c3.56,2.62,7.93,4.18,12.67,4.18c1.94,0,3.82-0.28,5.61-0.77
		l1.37,3.44c-1.77,1.38-2.91,3.53-2.91,5.95c0,4.17,3.39,7.55,7.55,7.55c4.17,0,7.55-3.39,7.55-7.55s-3.39-7.55-7.55-7.55
		c-0.06,0-0.12,0.01-0.18,0.01l-1.42-3.57c5.01-2.66,8.84-7.23,10.51-12.74l3.16,0.59c0,0.09-0.01,0.18-0.01,0.27
		c0,4.16,3.39,7.55,7.55,7.55c4.16,0,7.55-3.39,7.55-7.55C99.03,62.28,95.65,58.89,91.48,58.89z M80.22,29.36
		c1.56,0,2.82,1.27,2.82,2.82S81.77,35,80.22,35c-1.56,0-2.82-1.27-2.82-2.82S78.66,29.36,80.22,29.36z M40.59,29.3
		c0-1.56,1.27-2.82,2.82-2.82c1.56,0,2.82,1.27,2.82,2.82s-1.27,2.82-2.82,2.82C41.86,32.12,40.59,30.85,40.59,29.3z M27.26,55.8
		c-1.56,0-2.82-1.27-2.82-2.82s1.27-2.82,2.82-2.82c1.56,0,2.82,1.27,2.82,2.82S28.82,55.8,27.26,55.8z M74.7,89.44
		c0,1.56-1.27,2.82-2.82,2.82c-1.56,0-2.82-1.27-2.82-2.82s1.27-2.82,2.82-2.82C73.43,86.62,74.7,87.89,74.7,89.44z M38.22,87.08
		c-1.56,0-2.82-1.27-2.82-2.82s1.27-2.82,2.82-2.82c1.56,0,2.82,1.27,2.82,2.82S39.78,87.08,38.22,87.08z M60.26,76.09
		c-9.22,0-16.72-7.5-16.72-16.72c0-9.22,7.5-16.72,16.72-16.72c9.22,0,16.72,7.5,16.72,16.72C76.98,68.59,69.48,76.09,60.26,76.09z
		 M91.48,69.27c-1.56,0-2.82-1.27-2.82-2.82s1.27-2.82,2.82-2.82c1.56,0,2.82,1.27,2.82,2.82S93.04,69.27,91.48,69.27z"/>
</g>
</svg>
