<?xml version="1.0" encoding="utf-8"?>
<!-- Generator: Adobe Illustrator 27.9.0, SVG Export Plug-In . SVG Version: 6.00 Build 0)  -->
<svg version="1.1" id="Vrstva_1" xmlns="http://www.w3.org/2000/svg" xmlns:xlink="http://www.w3.org/1999/xlink" x="0px" y="0px"
	 viewBox="0 0 118.74 118.74" style="enable-background:new 0 0 118.74 118.74;" xml:space="preserve">
<style type="text/css">
	.st0{fill:url(#SVGID_1_);}
	.st1{fill:#0E101F;}
	.st2{fill:#FCD213;}
	.st3{fill:#010202;}
	.st4{fill:none;stroke:#000000;stroke-width:7;stroke-miterlimit:10;}
	.st5{fill:#FDD213;}
	.st6{fill:#6BB42D;}
	.st7{fill:#E83C3D;}
</style>
<path class="st2" d="M26.18,2.95C14.36,5.12,5.12,14.36,2.95,26.18C1.04,36.62,0,47.78,0,59.37s1.04,22.75,2.95,33.19
	c2.17,11.81,11.41,21.05,23.22,23.22c10.44,1.92,21.6,2.95,33.19,2.95s22.75-1.04,33.19-2.95c11.81-2.17,21.05-11.41,23.22-23.22
	c1.92-10.44,2.95-21.6,2.95-33.19c0-11.61-1.04-22.78-2.96-33.23C113.61,14.35,104.39,5.13,92.6,2.96C82.15,1.04,70.98,0,59.37,0
	C47.78,0,36.62,1.04,26.18,2.95z"/>
<g>
	<path d="M50.71,62.49h1.06c3.31,0,6.01-2.63,6.1-5.94l0.54-23.33h-8.67l-4.91,21.53C43.75,58.65,46.68,62.49,50.71,62.49z"/>
	<path d="M66.97,62.49h1.06c4.04,0,6.96-3.85,5.88-7.74L69,33.23h-8.67l0.54,23.33C60.96,59.86,63.67,62.49,66.97,62.49z"/>
	<path d="M89.07,53.32l-9.48-20.09h-8.67l7.05,25V79.9H65.25c0-0.09,0.01-0.19,0.01-0.28v-7.17c0-3.25-2.64-5.89-5.89-5.89
		c-3.25,0-5.89,2.64-5.89,5.89v7.17c0,0.1,0.01,0.19,0.01,0.28H40.77V58.23l7.05-25h-8.67l-9.48,20.09
		c-2.23,3.84,0.25,8.59,4.49,9.12v24.07h50.42V62.44C88.82,61.91,91.3,57.15,89.07,53.32z"/>
</g>
</svg>
