<?xml version="1.0" encoding="utf-8"?>
<!-- Generator: Adobe Illustrator 27.9.0, SVG Export Plug-In . SVG Version: 6.00 Build 0)  -->
<svg version="1.1" id="Vrstva_1" xmlns="http://www.w3.org/2000/svg" xmlns:xlink="http://www.w3.org/1999/xlink" x="0px" y="0px"
	 viewBox="0 0 118.74 118.74" style="enable-background:new 0 0 118.74 118.74;" xml:space="preserve">
<style type="text/css">
	.st0{fill:url(#SVGID_1_);}
	.st1{fill:#0E101F;}
	.st2{fill:#FCD213;}
	.st3{fill:#010202;}
	.st4{fill:none;stroke:#000000;stroke-width:7;stroke-miterlimit:10;}
	.st5{fill:#FDD213;}
	.st6{fill:#6BB42D;}
	.st7{fill:#E83C3D;}
</style>
<path class="st2" d="M26.18,2.95C14.36,5.12,5.12,14.36,2.95,26.18C1.04,36.62,0,47.78,0,59.37s1.04,22.75,2.95,33.19
	c2.17,11.81,11.41,21.05,23.22,23.22c10.44,1.92,21.6,2.95,33.19,2.95s22.75-1.04,33.19-2.95c11.81-2.17,21.05-11.41,23.22-23.22
	c1.92-10.44,2.95-21.6,2.95-33.19c0-11.61-1.04-22.78-2.96-33.23C113.61,14.35,104.39,5.13,92.6,2.96C82.15,1.04,70.98,0,59.37,0
	C47.78,0,36.62,1.04,26.18,2.95z"/>
<g>
	<path d="M70.39,85.97H48.35c-1.79,0-3.24,1.45-3.24,3.24s1.45,3.24,3.24,3.24h22.04c1.79,0,3.24-1.45,3.24-3.24
		S72.18,85.97,70.39,85.97z"/>
	<path d="M93.56,48.82c-0.06-1.05-0.2-2.07-0.42-3.06c-1.27-5.96-5.09-10.86-10.22-13.07c-0.85-0.37-1.74-0.66-2.67-0.87
		c-0.8-0.18-1.61-0.36-2.42-0.52c-5.73-1.14-11.96-1.76-18.47-1.76c-7.44,0-14.51,0.81-20.89,2.28c-1.57,0.36-3.04,0.97-4.4,1.77
		c-0.41,0.24-0.8,0.49-1.19,0.77c-0.6,0.43-1.18,0.88-1.72,1.38c-0.78,0.73-1.49,1.54-2.14,2.41c-0.38,0.51-0.73,1.04-1.06,1.59
		c-0.34,0.58-0.67,1.17-0.96,1.78c-0.21,0.44-0.4,0.9-0.57,1.36c-0.35,0.93-0.63,1.89-0.84,2.89c-0.21,0.99-0.35,2.02-0.42,3.06
		c-0.07,1.15-0.12,2.32-0.16,3.49c-0.04,1.17-0.05,2.35-0.05,3.54c0,1.15,0.02,2.3,0.05,3.44c0.04,1.21,0.09,2.41,0.16,3.59
		c0.06,1.05,0.2,2.07,0.42,3.06c1.48,6.96,6.44,12.46,12.88,13.95c0.8,0.18,1.61,0.36,2.42,0.52c5.73,1.14,11.96,1.76,18.47,1.76
		c5.58,0,10.95-0.46,15.98-1.31c1.68-0.28,3.31-0.61,4.91-0.97c0.46-0.11,0.91-0.23,1.36-0.38c2.22-0.73,4.24-1.95,5.95-3.54
		c2.75-2.55,4.73-6.05,5.57-10.03c0.21-0.99,0.35-2.02,0.42-3.06c0.14-2.31,0.21-4.65,0.21-7.03S93.7,51.12,93.56,48.82z
		 M72.98,56.72l-10.22,7.39c-1.08,0.78-2.58,0.01-2.58-1.32v-2.62c0,0-9.98,1.71-15.08,5.13c0.74-13.44,15.08-15.04,15.08-15.04
		v-2.25c0-1.33,1.5-2.1,2.58-1.32l10.22,7.39C73.88,54.73,73.88,56.07,72.98,56.72z"/>
</g>
</svg>
