<?xml version="1.0" encoding="utf-8"?>
<!-- Generator: Adobe Illustrator 27.9.0, SVG Export Plug-In . SVG Version: 6.00 Build 0)  -->
<svg version="1.1" id="Vrstva_1" xmlns="http://www.w3.org/2000/svg" xmlns:xlink="http://www.w3.org/1999/xlink" x="0px" y="0px"
	 viewBox="0 0 118.74 118.74" style="enable-background:new 0 0 118.74 118.74;" xml:space="preserve">
<style type="text/css">
	.st0{fill:url(#SVGID_1_);}
	.st1{fill:#0E101F;}
	.st2{fill:#FCD213;}
	.st3{fill:#010202;}
	.st4{fill:none;stroke:#000000;stroke-width:7;stroke-miterlimit:10;}
	.st5{fill:#FDD213;}
	.st6{fill:#6BB42D;}
	.st7{fill:#E83C3D;}
</style>
<path class="st2" d="M26.18,2.95C14.36,5.12,5.12,14.36,2.95,26.18C1.04,36.62,0,47.78,0,59.37s1.04,22.75,2.95,33.19
	c2.17,11.81,11.41,21.05,23.22,23.22c10.44,1.92,21.6,2.95,33.19,2.95s22.75-1.04,33.19-2.95c11.81-2.17,21.05-11.41,23.22-23.22
	c1.92-10.44,2.95-21.6,2.95-33.19c0-11.61-1.04-22.78-2.96-33.23C113.61,14.35,104.39,5.13,92.6,2.96C82.15,1.04,70.98,0,59.37,0
	C47.78,0,36.62,1.04,26.18,2.95z"/>
<g>
	<polygon points="59.65,65.33 62.72,62.26 67.05,57.92 70.29,54.69 70.57,54.41 80.93,44.05 75.98,39.1 67.76,47.32 54.04,61.04 
		52.32,62.76 47.37,67.71 37.81,77.27 37.81,77.27 37.81,77.27 42.76,82.22 53.61,71.37 	"/>
	<path d="M50.31,60.52c-1.18-1.75-1.87-3.85-1.87-6.11h-7c0,4.2,1.46,8.05,3.88,11.11L50.31,60.52z"/>
	<path d="M67.26,61.96l-0.35,0.35L55.87,73.35v5.04h-5.04l-3.45,3.45v3.55h23.98v-7h-8.49V72c8.22-1.63,14.43-8.89,14.43-17.59
		h-2.49L67.26,61.96z"/>
	<path d="M67.76,43.08v-1.67c0-4.62-3.76-8.38-8.38-8.38c-4.62,0-8.39,3.76-8.39,8.38v13.17c0,1.51,0.41,2.93,1.11,4.16L67.76,43.08
		z"/>
</g>
</svg>
