<?xml version="1.0" encoding="utf-8"?>
<!-- Generator: Adobe Illustrator 27.9.0, SVG Export Plug-In . SVG Version: 6.00 Build 0)  -->
<svg version="1.1" id="Vrstva_1" xmlns="http://www.w3.org/2000/svg" xmlns:xlink="http://www.w3.org/1999/xlink" x="0px" y="0px"
	 viewBox="0 0 118.74 118.74" style="enable-background:new 0 0 118.74 118.74;" xml:space="preserve">
<style type="text/css">
	.st0{fill:url(#SVGID_1_);}
	.st1{fill:#0E101F;}
	.st2{fill:#FCD213;}
	.st3{fill:#010202;}
	.st4{fill:none;stroke:#000000;stroke-width:7;stroke-miterlimit:10;}
	.st5{fill:#FDD213;}
	.st6{fill:#6BB42D;}
	.st7{fill:#E83C3D;}
</style>
<path class="st2" d="M26.18,2.95C14.36,5.12,5.12,14.36,2.95,26.18C1.04,36.62,0,47.78,0,59.37s1.04,22.75,2.95,33.19
	c2.17,11.81,11.41,21.05,23.22,23.22c10.44,1.92,21.6,2.95,33.19,2.95s22.75-1.04,33.19-2.95c11.81-2.17,21.05-11.41,23.22-23.22
	c1.92-10.44,2.95-21.6,2.95-33.19c0-11.61-1.04-22.78-2.96-33.23C113.61,14.35,104.39,5.13,92.6,2.96C82.15,1.04,70.98,0,59.37,0
	C47.78,0,36.62,1.04,26.18,2.95z"/>
<g>
	<path d="M43.43,54.7h-5.46c-1.53,0-2.77,1.24-2.77,2.77v21.04c0,1.53,1.24,2.77,2.77,2.77h5.46c1.53,0,2.77-1.24,2.77-2.77V57.48
		C46.2,55.95,44.96,54.7,43.43,54.7z"/>
	<path d="M88.13,56.64c0.42-1.01,0.66-2.12,0.66-3.29c0-4.7-3.82-8.53-8.53-8.53h-6.93v-0.12c0-6.89-5.6-12.49-12.49-12.49H55.6
		v5.24c0,4.86-1.43,9.57-4.12,13.61l-1.1,1.65l-0.88,1.32v1.59v20.74v5.24h5.24h11.69h5.12h4.15c4.7,0,8.53-3.82,8.53-8.53
		c0-0.16,0-0.31-0.01-0.46c1.6-1.55,2.59-3.72,2.59-6.11c0-0.35-0.02-0.7-0.06-1.03c1.28-1.49,2.05-3.43,2.05-5.54
		C88.79,58.76,88.55,57.65,88.13,56.64z M83.55,59.92c0,1.82-1.47,3.29-3.29,3.29h-1.99c1.82,0,3.29,1.47,3.29,3.29
		c0,1.82-1.47,3.29-3.29,3.29H75.7c1.82,0,3.29,1.47,3.29,3.29s-1.47,3.29-3.29,3.29h-4.15h-5.12H54.74V55.62l1.1-1.65
		c3.26-4.89,5-10.64,5-16.52c4.01,0,7.25,3.25,7.25,7.25v5.35h3.46h8.71c1.82,0,3.29,1.47,3.29,3.29s-1.47,3.29-3.29,3.29
		C82.08,56.64,83.55,58.11,83.55,59.92z"/>
</g>
</svg>
