<?xml version="1.0" encoding="utf-8"?>
<!-- Generator: Adobe Illustrator 27.9.0, SVG Export Plug-In . SVG Version: 6.00 Build 0)  -->
<svg version="1.1" id="Vrstva_1" xmlns="http://www.w3.org/2000/svg" xmlns:xlink="http://www.w3.org/1999/xlink" x="0px" y="0px"
	 viewBox="0 0 118.74 118.74" style="enable-background:new 0 0 118.74 118.74;" xml:space="preserve">
<style type="text/css">
	.st0{fill:url(#SVGID_1_);}
	.st1{fill:#0E101F;}
	.st2{fill:#FCD213;}
	.st3{fill:#010202;}
	.st4{fill:none;stroke:#000000;stroke-width:7;stroke-miterlimit:10;}
	.st5{fill:#FDD213;}
	.st6{fill:#6BB42D;}
	.st7{fill:#E83C3D;}
</style>
<path class="st2" d="M26.18,2.95C14.36,5.12,5.12,14.36,2.95,26.18C1.04,36.62,0,47.78,0,59.37s1.04,22.75,2.95,33.19
	c2.17,11.81,11.41,21.05,23.22,23.22c10.44,1.92,21.6,2.95,33.19,2.95s22.75-1.04,33.19-2.95c11.81-2.17,21.05-11.41,23.22-23.22
	c1.92-10.44,2.95-21.6,2.95-33.19c0-11.61-1.04-22.78-2.96-33.23C113.61,14.35,104.39,5.13,92.6,2.96C82.15,1.04,70.98,0,59.37,0
	C47.78,0,36.62,1.04,26.18,2.95z"/>
<path d="M88.73,48.03c-1.08-9.47-8.55-16.94-18.02-18.01L70.57,30c-7.44-0.84-14.95-0.84-22.39,0l-0.15,0.02
	c-9.47,1.07-16.94,8.54-18.02,18.01c-0.43,3.77-0.64,7.56-0.64,11.35c0,0,0,0.23,0,0.27c0,17.18,2.27,27.45,2.27,27.46v0h0
	c0.01,0,10.28,2.27,27.45,2.27c0.03,0,0.06,0,0.09,0c0.06,0,0.12,0,0.18,0c3.74,0,7.48-0.21,11.2-0.63l0.13-0.01
	c9.48-1.07,16.96-8.55,18.02-18.03l0.03-0.27C89.58,62.98,89.58,55.47,88.73,48.03z M72.29,61.92L61.04,73.18l-1.67,1.67l-1.67-1.67
	L46.45,61.92c-3.34-3.34-3.34-8.75,0-12.09s8.75-3.34,12.09,0c0.31,0.31,0.58,0.64,0.83,0.98c0.25-0.34,0.52-0.67,0.83-0.98
	c3.34-3.34,8.75-3.34,12.09,0S75.63,58.58,72.29,61.92z"/>
</svg>
