<?xml version="1.0" encoding="utf-8"?>
<!-- Generator: Adobe Illustrator 27.9.0, SVG Export Plug-In . SVG Version: 6.00 Build 0)  -->
<svg version="1.1" id="Vrstva_1" xmlns="http://www.w3.org/2000/svg" xmlns:xlink="http://www.w3.org/1999/xlink" x="0px" y="0px"
	 viewBox="0 0 118.74 118.74" style="enable-background:new 0 0 118.74 118.74;" xml:space="preserve">
<style type="text/css">
	.st0{fill:url(#SVGID_1_);}
	.st1{fill:#0E101F;}
	.st2{fill:#FCD213;}
	.st3{fill:#010202;}
	.st4{fill:none;stroke:#000000;stroke-width:7;stroke-miterlimit:10;}
	.st5{fill:#FDD213;}
	.st6{fill:#6BB42D;}
	.st7{fill:#E83C3D;}
</style>
<path class="st2" d="M26.18,2.95C14.36,5.12,5.12,14.36,2.95,26.18C1.04,36.62,0,47.78,0,59.37s1.04,22.75,2.95,33.19
	c2.17,11.81,11.41,21.05,23.22,23.22c10.44,1.92,21.6,2.95,33.19,2.95s22.75-1.04,33.19-2.95c11.81-2.17,21.05-11.41,23.22-23.22
	c1.92-10.44,2.95-21.6,2.95-33.19c0-11.61-1.04-22.78-2.96-33.23C113.61,14.35,104.39,5.13,92.6,2.96C82.15,1.04,70.98,0,59.37,0
	C47.78,0,36.62,1.04,26.18,2.95z"/>
<path d="M75.92,56.86c-0.27,0.63-0.62,1.23-1.05,1.79c-1.64,2.16-4.14,3.4-6.85,3.4h-1.06c-3.31,0-6.17-1.84-7.6-4.57
	c-1.44,2.73-4.29,4.57-7.6,4.57h-1.06c-2.71,0-5.21-1.24-6.85-3.4c-0.43-0.56-0.77-1.16-1.05-1.79c-1.01,2.33-2.97,4.07-5.35,4.8
	v18.6h16.01v-7.81c0-3.25,2.64-5.89,5.89-5.89h0c3.25,0,5.89,2.64,5.89,5.89v7.81h16.01v-18.6C78.9,60.94,76.94,59.2,75.92,56.86z"
	/>
<g>
	<g>
		<path d="M47.18,30.28h-8.03l-9.48,20.09c-2.37,4.07,0.57,9.18,5.28,9.18c0.89,0,1.74-0.21,2.51-0.56
			c1.52-0.69,2.73-1.97,3.28-3.62l0.71-2.53l3-10.63l3.36-11.93H47.18z"/>
	</g>
	<g>
		<path d="M50.42,30.28h-0.68l-2.85,12.51l-2.06,9.02c-0.1,0.35-0.15,0.69-0.18,1.03c-0.36,3.51,2.39,6.7,6.07,6.7h1.06
			c3.31,0,6.01-2.63,6.1-5.94l0.02-0.77l0.23-10.05l0.29-12.51h-0.58H50.42z"/>
	</g>
	<g>
		<path d="M73.91,51.81l-2.05-8.98L69,30.28h-0.68h-7.41h-0.58l0.29,12.51l0.23,10.05l0.02,0.77c0.09,3.3,2.8,5.94,6.1,5.94h1.06
			c3.68,0,6.42-3.2,6.07-6.7C74.06,52.5,74.01,52.16,73.91,51.81z"/>
	</g>
	<g>
		<path d="M89.07,50.37l-9.48-20.09h-8.03h-0.64l3.36,11.92l3,10.64L78,55.37c0.55,1.65,1.76,2.93,3.28,3.62
			c0.77,0.35,1.62,0.56,2.51,0.56C88.5,59.55,91.44,54.44,89.07,50.37z"/>
	</g>
</g>
</svg>
