<?xml version="1.0" encoding="utf-8"?>
<!-- Generator: Adobe Illustrator 27.9.0, SVG Export Plug-In . SVG Version: 6.00 Build 0)  -->
<svg version="1.1" id="Vrstva_1" xmlns="http://www.w3.org/2000/svg" xmlns:xlink="http://www.w3.org/1999/xlink" x="0px" y="0px"
	 viewBox="0 0 118.74 118.74" style="enable-background:new 0 0 118.74 118.74;" xml:space="preserve">
<style type="text/css">
	.st0{fill:url(#SVGID_1_);}
	.st1{fill:#0E101F;}
	.st2{fill:#FCD213;}
	.st3{fill:#010202;}
	.st4{fill:none;stroke:#000000;stroke-width:7;stroke-miterlimit:10;}
	.st5{fill:#FDD213;}
	.st6{fill:#6BB42D;}
	.st7{fill:#E83C3D;}
</style>
<path class="st2" d="M92.56,115.79c11.81-2.17,21.05-11.41,23.22-23.22c1.92-10.44,2.95-21.6,2.95-33.19
	c0-11.59-1.04-22.75-2.95-33.19c-2.17-11.81-11.41-21.05-23.22-23.22C82.12,1.04,70.96,0,59.37,0S36.62,1.04,26.18,2.95
	C14.36,5.12,5.12,14.36,2.95,26.18C1.04,36.62,0,47.78,0,59.37C0,70.98,1.04,82.15,2.96,92.6c2.17,11.79,11.39,21.01,23.18,23.18
	c10.45,1.92,21.62,2.96,33.23,2.96C70.96,118.74,82.12,117.7,92.56,115.79z"/>
<g>
	<path d="M80.78,37.45h-5.46c-1.53,0-2.77,1.24-2.77,2.77v21.04c0,1.53,1.24,2.77,2.77,2.77h5.46c1.53,0,2.77-1.24,2.77-2.77V40.22
		C83.55,38.69,82.31,37.45,80.78,37.45z"/>
	<path d="M52.31,37.14h-5.12h-4.15c-4.7,0-8.53,3.82-8.53,8.53c0,0.16,0,0.31,0.01,0.46c-1.6,1.55-2.59,3.72-2.59,6.11
		c0,0.35,0.02,0.7,0.06,1.03c-1.28,1.49-2.05,3.43-2.05,5.54c0,1.16,0.23,2.28,0.66,3.29c-0.42,1.01-0.66,2.12-0.66,3.29
		c0,4.7,3.82,8.53,8.53,8.53h6.93v0.12c0,6.89,5.6,12.49,12.49,12.49h5.24v-5.24c0-4.86,1.43-9.57,4.12-13.61l1.1-1.65l0.88-1.32
		v-1.59V42.38v-5.24H64H52.31z M64,63.12l-1.1,1.65c-3.26,4.89-5,10.64-5,16.52c-4.01,0-7.25-3.25-7.25-7.25v-5.35h-3.46h-8.71
		c-1.82,0-3.29-1.47-3.29-3.29c0-1.82,1.47-3.29,3.29-3.29c-1.82,0-3.29-1.47-3.29-3.29s1.47-3.29,3.29-3.29h1.99
		c-1.82,0-3.29-1.47-3.29-3.29s1.47-3.29,3.29-3.29h2.58c-1.82,0-3.29-1.47-3.29-3.29s1.47-3.29,3.29-3.29h4.15h5.12H64V63.12z"/>
</g>
</svg>
