<?xml version="1.0" encoding="utf-8"?>
<!-- Generator: Adobe Illustrator 27.9.0, SVG Export Plug-In . SVG Version: 6.00 Build 0)  -->
<svg version="1.1" id="Vrstva_1" xmlns="http://www.w3.org/2000/svg" xmlns:xlink="http://www.w3.org/1999/xlink" x="0px" y="0px"
	 viewBox="0 0 118.74 118.74" style="enable-background:new 0 0 118.74 118.74;" xml:space="preserve">
<style type="text/css">
	.st0{fill:url(#SVGID_1_);}
	.st1{fill:#0E101F;}
	.st2{fill:#FCD213;}
	.st3{fill:#010202;}
	.st4{fill:none;stroke:#000000;stroke-width:7;stroke-miterlimit:10;}
	.st5{fill:#FDD213;}
	.st6{fill:#6BB42D;}
	.st7{fill:#E83C3D;}
</style>
<path class="st7" d="M26.18,2.95C14.36,5.12,5.12,14.36,2.95,26.18C1.04,36.62,0,47.78,0,59.37s1.04,22.75,2.95,33.19
	c2.17,11.81,11.41,21.05,23.22,23.22c10.44,1.92,21.6,2.95,33.19,2.95s22.75-1.04,33.19-2.95c11.81-2.17,21.05-11.41,23.22-23.22
	c1.92-10.44,2.95-21.6,2.95-33.19c0-11.61-1.04-22.78-2.96-33.23C113.61,14.35,104.39,5.13,92.6,2.96C82.15,1.04,70.98,0,59.37,0
	C47.78,0,36.62,1.04,26.18,2.95z"/>
<path d="M91.49,65.31c-0.02-0.99-0.12-2.01-0.29-3.01l-0.04-0.21c-2.14-8.97-14.18-15.71-29.26-16.4l-0.08,0l-4.8,0l-0.15,0
	c-16.88,0.76-29.62,9.06-29.62,19.31c0,1.1,0.15,2.2,0.44,3.28l0.08,0.29l0.13,0.27c1.21,2.56,3.81,4.22,6.63,4.22h8.73
	c4.05,0,7.34-3.29,7.34-7.34c0-4.31,3.5-7.81,7.81-7.81h1.87c4.31,0,7.81,3.5,7.81,7.81c0,4.05,3.29,7.34,7.34,7.34h8.73
	c3.1,0,5.88-1.97,6.91-4.91l0.11-0.37c0.17-0.74,0.27-1.5,0.3-2.26l0-0.11L91.49,65.31z"/>
</svg>
