<?xml version="1.0" encoding="utf-8"?>
<!-- Generator: Adobe Illustrator 27.9.0, SVG Export Plug-In . SVG Version: 6.00 Build 0)  -->
<svg version="1.1" id="Vrstva_1" xmlns="http://www.w3.org/2000/svg" xmlns:xlink="http://www.w3.org/1999/xlink" x="0px" y="0px"
	 viewBox="0 0 118.74 118.74" style="enable-background:new 0 0 118.74 118.74;" xml:space="preserve">
<style type="text/css">
	.st0{fill:url(#SVGID_1_);}
	.st1{fill:#0E101F;}
	.st2{fill:#FCD213;}
	.st3{fill:#010202;}
	.st4{fill:none;stroke:#000000;stroke-width:7;stroke-miterlimit:10;}
	.st5{fill:#FDD213;}
	.st6{fill:#6BB42D;}
	.st7{fill:#E83C3D;}
</style>
<path class="st2" d="M26.18,2.95C14.36,5.12,5.12,14.36,2.95,26.18C1.04,36.62,0,47.78,0,59.37s1.04,22.75,2.95,33.19
	c2.17,11.81,11.41,21.05,23.22,23.22c10.44,1.92,21.6,2.95,33.19,2.95s22.75-1.04,33.19-2.95c11.81-2.17,21.05-11.41,23.22-23.22
	c1.92-10.44,2.95-21.6,2.95-33.19c0-11.61-1.04-22.78-2.96-33.23C113.61,14.35,104.39,5.13,92.6,2.96C82.15,1.04,70.98,0,59.37,0
	C47.78,0,36.62,1.04,26.18,2.95z"/>
<path d="M76.04,49.52c-3.55-6.34-10.27-10.33-17.64-10.33c-9.13,0-16.96,6.01-19.42,14.6c-5.56,1.57-9.63,6.73-9.63,12.68
	c0,6.15,4.35,11.56,10.36,12.87l0.34,0.08l35.82,0.14l0.2-0.02c7.59-0.91,13.31-7.35,13.31-15C89.38,56.79,83.54,50.4,76.04,49.52z
	 M75.47,72.95L62.71,72.9v-8.15l6.83,3.99v-6.77l-10.17-5.94L49.2,61.96v6.77l6.68-3.9v8.03l-15.06-0.06
	c-2.83-0.76-4.85-3.38-4.85-6.34c0-3.39,2.65-6.26,6.03-6.54l2.57-0.21l0.42-2.54c1.09-6.6,6.74-11.38,13.42-11.38
	c5.45,0,10.36,3.24,12.52,8.25l0.89,2.06l2.24-0.06c0.09,0,0.18-0.01,0.23-0.01c4.69,0,8.51,3.82,8.51,8.51
	C82.78,68.77,79.65,72.36,75.47,72.95z"/>
</svg>
