<?xml version="1.0" encoding="utf-8"?>
<!-- Generator: Adobe Illustrator 27.9.0, SVG Export Plug-In . SVG Version: 6.00 Build 0)  -->
<svg version="1.1" id="Vrstva_1" xmlns="http://www.w3.org/2000/svg" xmlns:xlink="http://www.w3.org/1999/xlink" x="0px" y="0px"
	 viewBox="0 0 118.74 118.74" style="enable-background:new 0 0 118.74 118.74;" xml:space="preserve">
<style type="text/css">
	.st0{fill:url(#SVGID_1_);}
	.st1{fill:#0E101F;}
	.st2{fill:#FCD213;}
	.st3{fill:#010202;}
	.st4{fill:none;stroke:#000000;stroke-width:7;stroke-miterlimit:10;}
	.st5{fill:#FDD213;}
	.st6{fill:#6BB42D;}
	.st7{fill:#E83C3D;}
</style>
<path class="st2" d="M26.18,2.95C14.36,5.12,5.12,14.36,2.95,26.18C1.04,36.62,0,47.78,0,59.37s1.04,22.75,2.95,33.19
	c2.17,11.81,11.41,21.05,23.22,23.22c10.44,1.92,21.6,2.95,33.19,2.95s22.75-1.04,33.19-2.95c11.81-2.17,21.05-11.41,23.22-23.22
	c1.92-10.44,2.95-21.6,2.95-33.19c0-11.61-1.04-22.78-2.96-33.23C113.61,14.35,104.39,5.13,92.6,2.96C82.15,1.04,70.98,0,59.37,0
	C47.78,0,36.62,1.04,26.18,2.95z"/>
<g>
	<polygon points="59.37,47.12 51.89,58.15 59.37,62.79 59.37,71.62 66.85,60.59 59.37,55.95 	"/>
	<path d="M89.74,55.05v-4H81.7v-3.98c0-5.54-4.49-10.03-10.03-10.03h-3.98V29h-4v8.03h-8.64V29h-4v8.03h-3.98
		c-5.54,0-10.03,4.49-10.03,10.03v3.98H29v4h8.03v8.64H29v4h8.03v3.98c0,5.54,4.49,10.03,10.03,10.03h3.98v8.03h4V81.7h8.64v8.03h4
		V81.7h3.98c5.54,0,10.03-4.49,10.03-10.03v-3.98h8.03v-4H81.7v-8.64H89.74z M75.71,71.67c0,2.23-1.81,4.04-4.04,4.04h-24.6
		c-2.23,0-4.04-1.81-4.04-4.04v-24.6c0-2.23,1.81-4.04,4.04-4.04h24.6c2.23,0,4.04,1.81,4.04,4.04V71.67z"/>
</g>
</svg>
