<?xml version="1.0" encoding="utf-8"?>
<!-- Generator: Adobe Illustrator 27.9.0, SVG Export Plug-In . SVG Version: 6.00 Build 0)  -->
<svg version="1.1" id="Vrstva_1" xmlns="http://www.w3.org/2000/svg" xmlns:xlink="http://www.w3.org/1999/xlink" x="0px" y="0px"
	 viewBox="0 0 118.74 118.74" style="enable-background:new 0 0 118.74 118.74;" xml:space="preserve">
<style type="text/css">
	.st0{fill:url(#SVGID_1_);}
	.st1{fill:#0E101F;}
	.st2{fill:#FCD213;}
	.st3{fill:#010202;}
	.st4{fill:none;stroke:#000000;stroke-width:7;stroke-miterlimit:10;}
	.st5{fill:#FDD213;}
	.st6{fill:#6BB42D;}
	.st7{fill:#E83C3D;}
</style>
<path class="st2" d="M26.18,2.95C14.36,5.12,5.12,14.36,2.95,26.18C1.04,36.62,0,47.78,0,59.37s1.04,22.75,2.95,33.19
	c2.17,11.81,11.41,21.05,23.22,23.22c10.44,1.92,21.6,2.95,33.19,2.95s22.75-1.04,33.19-2.95c11.81-2.17,21.05-11.41,23.22-23.22
	c1.92-10.44,2.95-21.6,2.95-33.19c0-11.61-1.04-22.78-2.96-33.23C113.61,14.35,104.39,5.13,92.6,2.96C82.15,1.04,70.98,0,59.37,0
	C47.78,0,36.62,1.04,26.18,2.95z"/>
<g>
	<path class="st3" d="M92.68,70.94l-6.42-21.67l-0.08-0.23C83.06,40.52,75.1,34.8,66.36,34.8H52.38c-8.73,0-16.7,5.72-19.82,14.24
		l-6.5,21.9c-1.06,3.02-0.61,6.37,1.21,8.98c1.78,2.55,4.56,4.02,7.61,4.02c2.59,0,5.08-1.12,6.85-3.07l9.66-10.65
		c0.35-0.38,0.79-0.59,1.26-0.59h13.43c0.47,0,0.92,0.21,1.26,0.59l9.66,10.66c1.77,1.95,4.26,3.07,6.85,3.07
		c3.05,0,5.83-1.46,7.61-4.02C93.29,77.31,93.74,73.96,92.68,70.94z M85.29,75.6c-0.21,0.3-0.67,0.79-1.43,0.79
		c-0.47,0-0.92-0.21-1.26-0.59l-9.66-10.66c-1.77-1.95-4.26-3.07-6.85-3.07H52.66c-2.59,0-5.08,1.12-6.85,3.07l-9.66,10.65
		c-0.35,0.38-0.79,0.59-1.26,0.59c-0.76,0-1.22-0.5-1.43-0.79c-0.44-0.63-0.54-1.45-0.27-2.19l6.49-21.88
		c2.09-5.59,7.07-9.19,12.7-9.19h13.98c5.63,0,10.61,3.6,12.7,9.19l6.42,21.65l0.08,0.23C85.83,74.15,85.73,74.97,85.29,75.6z"/>
	<circle class="st3" cx="51.56" cy="54.34" r="5"/>
	<polygon class="st3" points="70.16,48.3 68.16,48.3 68.16,53.32 63.13,53.32 63.13,55.32 68.16,55.32 68.16,60.34 70.16,60.34 
		70.16,55.32 75.18,55.32 75.18,53.32 70.16,53.32 	"/>
</g>
</svg>
