<?xml version="1.0" encoding="utf-8"?>
<!-- Generator: Adobe Illustrator 27.9.0, SVG Export Plug-In . SVG Version: 6.00 Build 0)  -->
<svg version="1.1" id="Vrstva_1" xmlns="http://www.w3.org/2000/svg" xmlns:xlink="http://www.w3.org/1999/xlink" x="0px" y="0px"
	 viewBox="0 0 118.74 118.74" style="enable-background:new 0 0 118.74 118.74;" xml:space="preserve">
<style type="text/css">
	.st0{fill:url(#SVGID_1_);}
	.st1{fill:#0E101F;}
	.st2{fill:#FCD213;}
	.st3{fill:#010202;}
	.st4{fill:none;stroke:#000000;stroke-width:7;stroke-miterlimit:10;}
	.st5{fill:#FDD213;}
	.st6{fill:#6BB42D;}
	.st7{fill:#E83C3D;}
</style>
<path class="st2" d="M26.18,2.95C14.36,5.12,5.12,14.36,2.95,26.18C1.04,36.62,0,47.78,0,59.37s1.04,22.75,2.95,33.19
	c2.17,11.81,11.41,21.05,23.22,23.22c10.44,1.92,21.6,2.95,33.19,2.95s22.75-1.04,33.19-2.95c11.81-2.17,21.05-11.41,23.22-23.22
	c1.92-10.44,2.95-21.6,2.95-33.19c0-11.61-1.04-22.78-2.96-33.23C113.61,14.35,104.39,5.13,92.6,2.96C82.15,1.04,70.98,0,59.37,0
	C47.78,0,36.62,1.04,26.18,2.95z"/>
<path d="M87.7,35.96c-6.6-6.6-17.3-6.6-23.9,0c-2.25,2.25-3.72,4.99-4.43,7.88c-0.71-2.89-2.18-5.62-4.43-7.88
	c-6.6-6.6-17.3-6.6-23.9,0c-6.6,6.6-6.6,17.3,0,23.9L58.9,87.73l6.69-6.48V67.53L53.76,56.06h8.82l4.49,4.81l-1.47,6.66l11.03-11.48
	h8.55L73.2,67.51v6.38l14.5-14.03C94.3,53.26,94.3,42.56,87.7,35.96z"/>
</svg>
