<?xml version="1.0" encoding="utf-8"?>
<!-- Generator: Adobe Illustrator 27.9.0, SVG Export Plug-In . SVG Version: 6.00 Build 0)  -->
<svg version="1.1" id="Vrstva_1" xmlns="http://www.w3.org/2000/svg" xmlns:xlink="http://www.w3.org/1999/xlink" x="0px" y="0px"
	 viewBox="0 0 118.74 118.74" style="enable-background:new 0 0 118.74 118.74;" xml:space="preserve">
<style type="text/css">
	.st0{fill:url(#SVGID_1_);}
	.st1{fill:#0E101F;}
	.st2{fill:#FCD213;}
	.st3{fill:#010202;}
	.st4{fill:none;stroke:#000000;stroke-width:7;stroke-miterlimit:10;}
	.st5{fill:#FDD213;}
	.st6{fill:#6BB42D;}
	.st7{fill:#E83C3D;}
</style>
<path class="st2" d="M26.18,2.95C14.36,5.12,5.12,14.36,2.95,26.18C1.04,36.62,0,47.78,0,59.37s1.04,22.75,2.95,33.19
	c2.17,11.81,11.41,21.05,23.22,23.22c10.44,1.92,21.6,2.95,33.19,2.95s22.75-1.04,33.19-2.95c11.81-2.17,21.05-11.41,23.22-23.22
	c1.92-10.44,2.95-21.6,2.95-33.19c0-11.61-1.04-22.78-2.96-33.23C113.61,14.35,104.39,5.13,92.6,2.96C82.15,1.04,70.98,0,59.37,0
	C47.78,0,36.62,1.04,26.18,2.95z"/>
<g>
	<path class="st5" d="M59.37,68.7c4.38,0,7.93,3.55,7.93,7.93c0,4.38-3.55,7.93-7.93,7.93s-7.93-3.55-7.93-7.93
		C51.44,72.25,54.99,68.7,59.37,68.7"/>
	<g>
		<ellipse transform="matrix(0.9871 -0.1602 0.1602 0.9871 -11.5089 10.4996)" cx="59.37" cy="76.63" rx="7.93" ry="7.93"/>
		<path d="M59.37,30.93c-13.16,0-25.53,5.12-34.84,14.43l4.58,4.58c8.08-8.08,18.83-12.53,30.26-12.53
			c11.43,0,22.18,4.45,30.26,12.53l4.58-4.58C84.9,36.06,72.53,30.93,59.37,30.93z"/>
		<path d="M33.61,53.66l4.58,4.58c11.68-11.68,30.68-11.68,42.37,0l4.58-4.58C70.93,39.46,47.81,39.46,33.61,53.66z"/>
		<path d="M42.6,62.63l4.58,4.58c6.72-6.72,17.66-6.72,24.38,0l4.58-4.58C66.89,53.38,51.85,53.38,42.6,62.63z"/>
	</g>
</g>
</svg>
