<?xml version="1.0" encoding="utf-8"?>
<!-- Generator: Adobe Illustrator 27.9.0, SVG Export Plug-In . SVG Version: 6.00 Build 0)  -->
<svg version="1.1" id="Vrstva_1" xmlns="http://www.w3.org/2000/svg" xmlns:xlink="http://www.w3.org/1999/xlink" x="0px" y="0px"
	 viewBox="0 0 118.74 118.74" style="enable-background:new 0 0 118.74 118.74;" xml:space="preserve">
<style type="text/css">
	.st0{fill:url(#SVGID_1_);}
	.st1{fill:#0E101F;}
	.st2{fill:#FCD213;}
	.st3{fill:#010202;}
	.st4{fill:none;stroke:#000000;stroke-width:7;stroke-miterlimit:10;}
	.st5{fill:#FDD213;}
	.st6{fill:#6BB42D;}
	.st7{fill:#E83C3D;}
</style>
<path class="st2" d="M26.18,2.95C14.36,5.12,5.12,14.36,2.95,26.18C1.04,36.62,0,47.78,0,59.37s1.04,22.75,2.95,33.19
	c2.17,11.81,11.41,21.05,23.22,23.22c10.44,1.92,21.6,2.95,33.19,2.95s22.75-1.04,33.19-2.95c11.81-2.17,21.05-11.41,23.22-23.22
	c1.92-10.44,2.95-21.6,2.95-33.19c0-11.61-1.04-22.78-2.96-33.23C113.61,14.35,104.39,5.13,92.6,2.96C82.15,1.04,70.98,0,59.37,0
	C47.78,0,36.62,1.04,26.18,2.95z"/>
<path d="M63.85,52.53c-0.05-0.07-0.1-0.14-0.15-0.2c-0.34-0.4-0.7-0.78-1.08-1.15c-0.03-0.03-0.05-0.06-0.08-0.08
	c-0.4-0.39-0.83-0.76-1.27-1.12c-0.01-0.01-0.01-0.01-0.02-0.02c-3.64-2.91-8.66-4.72-14.22-4.72c-11.09,0-20.09,7.19-20.09,16.06
	c0,3.89,1.74,7.46,4.62,10.24v5.16L36.61,75c3.04,1.48,6.59,2.35,10.41,2.35c0.42,0,0.84-0.03,1.26-0.05
	c-0.43-1.49-0.66-3.05-0.66-4.64c0-5.47,2.64-10.43,6.92-14.05c2.76-2.33,6.19-4.11,10.03-5.11C64.35,53.16,64.1,52.84,63.85,52.53z
	"/>
<path d="M82.58,35.84v-5.16l-5.06,1.68c-3.04-1.48-6.59-2.34-10.41-2.34c-8.99,0-16.59,4.72-19.16,11.22
	c9.22,0.29,17.13,4.92,20.86,11.5c0.95-0.1,1.91-0.16,2.89-0.16c4.33,0,8.4,0.96,11.91,2.64c2.25-2.59,3.58-5.75,3.58-9.15
	C87.2,42.19,85.47,38.62,82.58,35.84z"/>
<path d="M91.8,72.65c0-8.87-8.99-16.06-20.09-16.06c-11.09,0-20.09,7.19-20.09,16.06s8.99,16.06,20.09,16.06
	c3.82,0,7.37-0.87,10.41-2.35l5.06,1.69V82.9C90.07,80.12,91.8,76.55,91.8,72.65z"/>
</svg>
