<?xml version="1.0" encoding="utf-8"?>
<!-- Generator: Adobe Illustrator 27.9.0, SVG Export Plug-In . SVG Version: 6.00 Build 0)  -->
<svg version="1.1" id="Vrstva_1" xmlns="http://www.w3.org/2000/svg" xmlns:xlink="http://www.w3.org/1999/xlink" x="0px" y="0px"
	 viewBox="0 0 118.74 118.74" style="enable-background:new 0 0 118.74 118.74;" xml:space="preserve">
<style type="text/css">
	.st0{fill:url(#SVGID_1_);}
	.st1{fill:#0E101F;}
	.st2{fill:#FCD213;}
	.st3{fill:#010202;}
	.st4{fill:none;stroke:#000000;stroke-width:7;stroke-miterlimit:10;}
	.st5{fill:#FDD213;}
	.st6{fill:#6BB42D;}
	.st7{fill:#E83C3D;}
</style>
<path class="st2" d="M26.18,2.95C14.36,5.12,5.12,14.36,2.95,26.18C1.04,36.62,0,47.78,0,59.37s1.04,22.75,2.95,33.19
	c2.17,11.81,11.41,21.05,23.22,23.22c10.44,1.92,21.6,2.95,33.19,2.95s22.75-1.04,33.19-2.95c11.81-2.17,21.05-11.41,23.22-23.22
	c1.92-10.44,2.95-21.6,2.95-33.19c0-11.61-1.04-22.78-2.96-33.23C113.61,14.35,104.39,5.13,92.6,2.96C82.15,1.04,70.98,0,59.37,0
	C47.78,0,36.62,1.04,26.18,2.95z"/>
<g>
	<path d="M88.05,55.33c-3.56-3.55-9.35-3.55-12.9,0l-4.23,4.23c-0.77-0.25-1.57-0.39-2.37-0.4l-17.66-0.14l-0.16,0
		c-1.06,0-2.09,0.21-3.07,0.62c-0.98,0.41-1.86,0.99-2.61,1.74L29.32,77.12l4.67,4.67l15.73-15.74c0.13-0.13,0.29-0.23,0.47-0.31
		c0.16-0.07,0.34-0.11,0.5-0.11l17.81,0.14c0.15,0,0.31,0.03,0.44,0.08L69,65.88c0.05,0.02,0.09,0.05,0.15,0.08l0.17,0.11
		c0.2,0.15,0.54,0.49,0.56,1.03c0.03,0.7-0.42,1.29-1.11,1.44l-9.75,2.1l1.39,6.46l9.76-2.1c3.85-0.83,6.5-4.29,6.31-8.22
		c-0.05-0.96-0.28-1.89-0.66-2.76l4-4c0.98-0.98,2.58-0.98,3.55,0c0.5,0.5,0.55,1.29,0.12,1.85L69.29,80.3
		c-0.24,0.31-0.6,0.51-1,0.54l-18.7,1.56c-0.86,0.07-1.67,0.44-2.31,1.06l-5.81,5.81l4.67,4.67l5.05-5.05l17.65-1.47
		c2.24-0.19,4.31-1.31,5.68-3.09l14.21-18.45C91.18,62.71,90.89,58.18,88.05,55.33z"/>
	<path d="M62.03,55.81c7.92,0,14.34-6.42,14.34-14.34c0-7.92-6.42-14.34-14.34-14.34s-14.34,6.42-14.34,14.34
		C47.69,49.39,54.11,55.81,62.03,55.81z M62.03,33.73c4.26,0,7.73,3.47,7.73,7.73s-3.47,7.73-7.73,7.73s-7.73-3.47-7.73-7.73
		S57.76,33.73,62.03,33.73z"/>
</g>
</svg>
