<?xml version="1.0" encoding="utf-8"?>
<!-- Generator: Adobe Illustrator 27.9.0, SVG Export Plug-In . SVG Version: 6.00 Build 0)  -->
<svg version="1.1" id="Vrstva_1" xmlns="http://www.w3.org/2000/svg" xmlns:xlink="http://www.w3.org/1999/xlink" x="0px" y="0px"
	 viewBox="0 0 118.74 118.74" style="enable-background:new 0 0 118.74 118.74;" xml:space="preserve">
<style type="text/css">
	.st0{fill:url(#SVGID_1_);}
	.st1{fill:#0E101F;}
	.st2{fill:#FCD213;}
	.st3{fill:#010202;}
	.st4{fill:none;stroke:#000000;stroke-width:7;stroke-miterlimit:10;}
	.st5{fill:#FDD213;}
	.st6{fill:#6BB42D;}
	.st7{fill:#E83C3D;}
</style>
<path class="st2" d="M26.18,2.95C14.36,5.12,5.12,14.36,2.95,26.18C1.04,36.62,0,47.78,0,59.37s1.04,22.75,2.95,33.19
	c2.17,11.81,11.41,21.05,23.22,23.22c10.44,1.92,21.6,2.95,33.19,2.95s22.75-1.04,33.19-2.95c11.81-2.17,21.05-11.41,23.22-23.22
	c1.92-10.44,2.95-21.6,2.95-33.19c0-11.61-1.04-22.78-2.96-33.23C113.61,14.35,104.39,5.13,92.6,2.96C82.15,1.04,70.98,0,59.37,0
	C47.78,0,36.62,1.04,26.18,2.95z"/>
<g>
	<path class="st3" d="M80.81,35.32H46.26c-1.45,0-2.62,1.17-2.62,2.62v38.71c0,0.84-0.71,1.54-1.54,1.54s-1.54-0.71-1.54-1.54V42.66
		h-5.24v33.99c0,3.74,3.04,6.78,6.78,6.78h34.38c3.83,0,6.95-3.12,6.95-6.95V37.93C83.43,36.49,82.25,35.32,80.81,35.32z
		 M78.19,76.47c0,0.94-0.77,1.71-1.71,1.71H48.7c0.01-0.03,0.01-0.05,0.01-0.08c0.04-0.17,0.06-0.33,0.09-0.5
		c0.01-0.07,0.03-0.14,0.03-0.22c0.03-0.25,0.04-0.49,0.04-0.75V40.55h29.31V76.47z"/>
	<rect x="54.44" y="47.09" class="st3" width="18.45" height="3.05"/>
	<rect x="54.44" y="57.84" class="st3" width="18.45" height="3.05"/>
	<rect x="63.67" y="68.6" class="st3" width="9.23" height="3.05"/>
</g>
</svg>
