<?xml version="1.0" encoding="utf-8"?>
<!-- Generator: Adobe Illustrator 27.9.0, SVG Export Plug-In . SVG Version: 6.00 Build 0)  -->
<svg version="1.1" id="Vrstva_1" xmlns="http://www.w3.org/2000/svg" xmlns:xlink="http://www.w3.org/1999/xlink" x="0px" y="0px"
	 viewBox="0 0 118.74 118.74" style="enable-background:new 0 0 118.74 118.74;" xml:space="preserve">
<style type="text/css">
	.st0{fill:url(#SVGID_1_);}
	.st1{fill:#0E101F;}
	.st2{fill:#FCD213;}
	.st3{fill:#010202;}
	.st4{fill:none;stroke:#000000;stroke-width:7;stroke-miterlimit:10;}
	.st5{fill:#FDD213;}
	.st6{fill:#6BB42D;}
	.st7{fill:#E83C3D;}
</style>
<path class="st2" d="M26.18,2.95C14.36,5.12,5.12,14.36,2.95,26.18C1.04,36.62,0,47.78,0,59.37s1.04,22.75,2.95,33.19
	c2.17,11.81,11.41,21.05,23.22,23.22c10.44,1.92,21.6,2.95,33.19,2.95s22.75-1.04,33.19-2.95c11.81-2.17,21.05-11.41,23.22-23.22
	c1.92-10.44,2.95-21.6,2.95-33.19c0-11.61-1.04-22.78-2.96-33.23C113.61,14.35,104.39,5.13,92.6,2.96C82.15,1.04,70.98,0,59.37,0
	C47.78,0,36.62,1.04,26.18,2.95z"/>
<g>
	<path d="M64.11,39.43c-0.66-2.62-2.69-4.66-5.31-5.32c-2.62-0.66-5.38,0.16-7.2,2.15l-10.82,11.8c-0.04,0.05-0.1,0.08-0.11,0.08
		l-12.55,2.93c-1.9,0.48-3.5,1.66-4.5,3.34s-1.3,3.65-0.82,5.55l2.84,11.31c0.48,1.9,1.66,3.5,3.34,4.5
		c1.68,1.01,3.65,1.3,5.49,0.83l4.72-1.1l2.38,9.49l6.79-1.7l-2.35-9.38l1.01-0.24c0.07-0.02,0.13-0.01,0.19,0.01l15.1,5.3
		c0.79,0.28,1.62,0.41,2.43,0.41c1.8,0,3.56-0.66,4.94-1.92c2-1.82,2.83-4.58,2.17-7.2L64.11,39.43z"/>
	<path d="M92.15,48.59c-2.38-9.83-12.28-15.88-22.12-13.5l1.54,6.35c6.32-1.53,12.7,2.37,14.23,8.69
		c1.53,6.32-2.37,12.71-8.69,14.23l1.54,6.34C88.49,68.33,94.53,58.43,92.15,48.59z"/>
	<path d="M79.19,51.73c-0.65-2.67-3.35-4.32-6.03-3.68l2.35,9.7C78.19,57.11,79.84,54.4,79.19,51.73z"/>
</g>
</svg>
