<?xml version="1.0" encoding="utf-8"?>
<!-- Generator: Adobe Illustrator 26.4.1, SVG Export Plug-In . SVG Version: 6.00 Build 0)  -->
<svg version="1.1" id="Vrstva_1" xmlns="http://www.w3.org/2000/svg" xmlns:xlink="http://www.w3.org/1999/xlink" x="0px" y="0px"
	 viewBox="0 0 118.7 118.7" style="enable-background:new 0 0 118.7 118.7;" xml:space="preserve">
<g>
	<path d="M18.2,54.5H6.1c-3.4,0-6.1,2.7-6.1,6.1v46.6c0,3.4,2.7,6.1,6.1,6.1h12.1c3.4,0,6.1-2.7,6.1-6.1V60.6
		C24.4,57.3,21.6,54.5,18.2,54.5z"/>
	<path d="M117.2,58.8c0.9-2.2,1.5-4.7,1.5-7.3c0-10.4-8.5-18.9-18.9-18.9H84.5v-0.3c0-15.3-12.4-27.7-27.7-27.7H45.2v11.6
		c0,10.8-3.2,21.2-9.1,30.1l-2.4,3.7L31.7,53v3.5v45.9v11.6h11.6h25.9h11.3h9.2c10.4,0,18.9-8.5,18.9-18.9c0-0.4,0-0.7,0-1
		c3.5-3.4,5.7-8.2,5.7-13.5c0-0.8,0-1.6-0.1-2.3c2.8-3.3,4.5-7.6,4.5-12.3C118.7,63.5,118.2,61,117.2,58.8z M107.1,66
		c0,4-3.3,7.3-7.3,7.3h-4.4c4,0,7.3,3.3,7.3,7.3c0,4-3.3,7.3-7.3,7.3h-5.7c4,0,7.3,3.3,7.3,7.3s-3.3,7.3-7.3,7.3h-9.2H69.2H43.3v-46
		l2.4-3.7C52.9,42,56.8,29.3,56.8,16.3c8.9,0,16.1,7.2,16.1,16.1v11.8h7.7h19.3c4,0,7.3,3.3,7.3,7.3s-3.3,7.3-7.3,7.3
		C103.8,58.8,107.1,62,107.1,66z"/>
</g>
</svg>
