<?xml version="1.0" encoding="utf-8"?>
<!-- Generator: Adobe Illustrator 26.4.1, SVG Export Plug-In . SVG Version: 6.00 Build 0)  -->
<svg version="1.1" id="Vrstva_1" xmlns="http://www.w3.org/2000/svg" xmlns:xlink="http://www.w3.org/1999/xlink" x="0px" y="0px"
	 viewBox="0 0 118.7 118.7" style="enable-background:new 0 0 118.7 118.7;" xml:space="preserve">
	<style type="text/css">
	.col{fill:#FCD213;}
</style>
	<g>
	<path class="col" d="M94.2,14.4C84.9,5.1,72.5,0,59.4,0S33.9,5.1,24.6,14.4S10.2,36,10.2,49.2S15.3,74.7,24.6,84l34.8,34.8L94.2,84
		C113.3,64.8,113.3,33.6,94.2,14.4z M86.5,76.3l-27.1,27.1L32.3,76.3c-15-15-15-39.3,0-54.3c7.5-7.5,17.3-11.2,27.1-11.2
		c9.8,0,19.6,3.7,27.1,11.2c7.2,7.2,11.2,16.9,11.2,27.1S93.7,69.1,86.5,76.3z"/>
	<path class="col" d="M59.4,40.8c-4.6,0-8.3,3.7-8.3,8.3s3.7,8.3,8.3,8.3s8.3-3.7,8.3-8.3S64,40.8,59.4,40.8z"/>
</g>
</svg>
