<svg xmlns="http://www.w3.org/2000/svg" xmlns:xlink="http://www.w3.org/1999/xlink" version="1.1" x="0px" y="0px" viewBox="0 0 100 125" enable-background="new 0 0 100 100" xml:space="preserve"><g><g><g><g><g><path d="M68,54.7c0.3,0.1,0.5,0.3,0.8,0.3c0.7,0,1.2-0.7,1.2-1.4c0-0.3-0.1-0.6-0.3-0.9c-0.6-0.8-2-1-2.9-1v-0.8       c0-0.3-0.1-0.5-0.5-0.5c-0.4,0-0.5,0.2-0.5,0.5v0.8c-2.2,0.2-4,1.7-4,4.1c0,1.3,0.6,2.2,2.2,3c0.5,0.2,1.1,0.5,1.8,0.6v2.8       c-1.2,0-2.1-0.8-2.8-0.8c-0.7,0-1.3,0.7-1.3,1.5c0,1.3,1.7,1.8,3,2c0.4,0.1,0.7,0.1,1,0.1v0.8c0,0.3,0.1,0.5,0.5,0.5       c0.4,0,0.5-0.2,0.5-0.5V65c1.7-0.1,4.1-1.4,4.1-4.2c0-0.6-0.1-1.1-0.3-1.5c-0.6-1.4-2.2-2-3.7-2.5v-0.9v-1.7       C67.2,54.3,67.6,54.5,68,54.7z M78.5,48.4c2.2,2.7,3.4,6.1,3.4,9.8c0,8.7-7,15.7-15.7,15.7c-3.2,0-6.2-1-8.7-2.6       c-3.3,2.8-6.1,5.2-6.7,5.7l-1.6,1.4L47.7,77c-2.4-2-13.2-11.2-17.1-15c-5.3-5.2-17.8-17.5-10.1-30.3c3.2-5.4,9.1-8.6,15.8-8.6       c5,0,9.7,1.9,13,5.1c3.3-3.3,8-5.1,13-5.1c6.7,0,12.5,3.2,15.8,8.6C81.6,37.6,80.9,43.4,78.5,48.4z M74.5,44.9       c1.3-3.5,1.3-7.1-0.8-10.7c-2.3-3.8-6.6-6.1-11.5-6.1c-4.5,0-8.6,2-10.9,5.4l-2.1,3l-2-3c-2.3-3.4-6.4-5.4-10.9-5.4       c-4.9,0-9.2,2.3-11.5,6.1c-5,8.3,1.5,16.5,9.3,24.1c3.2,3.2,11.3,10.2,15.1,13.4c1.2-1,2.8-2.4,4.6-4c-2.1-2.6-3.3-6-3.3-9.6       c0-8.7,7-15.7,15.7-15.7C69.3,42.5,72.1,43.4,74.5,44.9z"/><path d="M66.8,62.2v-2.5c0.6,0.2,1,0.5,1,1.3C67.8,61.6,67.4,62.2,66.8,62.2z"/><path d="M64.7,55.4c0-0.6,0.4-1.1,1-1.2v2.2C65.2,56.4,64.7,56,64.7,55.4z"/></g></g></g></g></g><text x="0" y="115" fill="#000000" font-size="5px" font-weight="bold" font-family="'Helvetica Neue', Helvetica, Arial-Unicode, Arial, Sans-serif">Created by Mrfa Studio</text><text x="0" y="120" fill="#000000" font-size="5px" font-weight="bold" font-family="'Helvetica Neue', Helvetica, Arial-Unicode, Arial, Sans-serif">from the Noun Project</text></svg>