<?xml version="1.0" encoding="utf-8"?>
<!-- Generator: Adobe Illustrator 26.4.1, SVG Export Plug-In . SVG Version: 6.00 Build 0)  -->
<svg version="1.1" id="Vrstva_1" xmlns="http://www.w3.org/2000/svg" xmlns:xlink="http://www.w3.org/1999/xlink" x="0px" y="0px"
	 viewBox="0 0 118.7 118.7" style="enable-background:new 0 0 118.7 118.7;" xml:space="preserve">
<g>
	<path d="M59.4,51.4c-4.4,0-8,3.6-8,8s3.6,8,8,8c4.4,0,8-3.6,8-8S63.8,51.4,59.4,51.4z"/>
	<path d="M33.8,51.4c-4.4,0-8,3.6-8,8s3.6,8,8,8s8-3.6,8-8S38.2,51.4,33.8,51.4z"/>
	<path d="M84.9,51.4c-4.4,0-8,3.6-8,8s3.6,8,8,8s8-3.6,8-8S89.4,51.4,84.9,51.4z"/>
	<path d="M59.4,0C26.6,0,0,26.6,0,59.4s26.6,59.4,59.4,59.4s59.3-26.6,59.3-59.4C118.7,26.6,92.1,0,59.4,0z M59.4,105.1
		c-25.2,0-45.7-20.5-45.7-45.7s20.5-45.7,45.7-45.7s45.7,20.5,45.7,45.7S84.6,105.1,59.4,105.1z"/>
</g>
</svg>
