<?xml version="1.0" encoding="utf-8"?>
<!-- Generator: Adobe Illustrator 28.4.1, SVG Export Plug-In . SVG Version: 6.00 Build 0)  -->
<svg version="1.1" id="Vrstva_1" xmlns="http://www.w3.org/2000/svg" xmlns:xlink="http://www.w3.org/1999/xlink" x="0px" y="0px"
	 viewBox="0 0 118.7 118.7" style="enable-background:new 0 0 118.7 118.7;" xml:space="preserve">
<g>
	<path d="M91.4,47.4v37.8c0,12.1-9.8,21.9-21.9,21.9H48.2c-12.1,0-21.9-9.8-21.9-21.9V44.2c0-0.4,0-0.9,0-1.3V32.3
		c0-6.5,2.1-12.6,5.8-17.5c-10.4,5.7-17.4,16.7-17.4,29.4v41.1c0,18.5,15,33.5,33.5,33.5h21.3c18.5,0,33.5-15,33.5-33.5V44.2
		c0-1.3-0.1-2.5-0.2-3.7C99.8,43.7,95.9,46.2,91.4,47.4z"/>
	<path d="M71.9,0C52.4,0,36.6,15.8,36.6,35.2v5.9h37.2c16.7,0,30.2-13.6,30.2-30.2V0L71.9,0L71.9,0z M73.8,29.3H49.2
		C51.8,19.3,61,11.8,71.9,11.8h20.3C91.7,21.5,83.7,29.3,73.8,29.3z"/>
	<circle cx="44.9" cy="61.7" r="8.9"/>
	<circle cx="72.8" cy="61.7" r="8.9"/>
</g>
</svg>
