<?xml version="1.0" encoding="utf-8"?>
<!-- Generator: Adobe Illustrator 26.4.1, SVG Export Plug-In . SVG Version: 6.00 Build 0)  -->
<svg version="1.1" id="Vrstva_1" xmlns="http://www.w3.org/2000/svg" xmlns:xlink="http://www.w3.org/1999/xlink" x="0px" y="0px"
	 viewBox="0 0 118.7 118.7" style="enable-background:new 0 0 118.7 118.7;" xml:space="preserve">
	<style type="text/css">
	.col{fill:#FCD213;}
</style>
	<path class="col" d="M23.9,12c1.1,0,2.2,0.3,3.3,0.9l71,40.7c4.4,2.5,4.4,8.9,0,11.5l-71,40.8c-1.1,0.6-2.2,0.9-3.3,0.9c-4.1,0-7.7-4-6.4-8.5
	l8.5-29c0.7-2.3,2.5-4.1,4.9-4.6l23.5-5.3L31,54.1c-2.3-0.5-4.2-2.3-4.9-4.6l-8.5-29C16.2,16,19.8,12,23.9,12 M23.9,0.1
	C18.1,0.1,12.5,2.9,9,7.6S4.4,18.2,6.1,23.9l8.5,29c0.7,2.4,1.9,4.6,3.4,6.5c-1.5,1.9-2.7,4.1-3.4,6.5L6.1,94.9
	c-1.7,5.7-0.6,11.6,2.9,16.3c3.5,4.7,9.1,7.5,14.9,7.5c3.2,0,6.4-0.9,9.3-2.5l71-40.7c5.8-3.3,9.3-9.5,9.3-16.1s-3.6-12.8-9.3-16.1
	l-71-40.7C30.4,0.9,27.1,0.1,23.9,0.1L23.9,0.1z"/>
</svg>
