<?xml version="1.0" encoding="utf-8"?>
<!-- Generator: Adobe Illustrator 26.4.1, SVG Export Plug-In . SVG Version: 6.00 Build 0)  -->
<svg version="1.1" id="Vrstva_1" xmlns="http://www.w3.org/2000/svg" xmlns:xlink="http://www.w3.org/1999/xlink" x="0px" y="0px"
	 viewBox="0 0 118.7 118.7" style="enable-background:new 0 0 118.7 118.7;" xml:space="preserve">
	<style type="text/css">
	.col{fill:#FCD213;}
</style>
	<g>
	<path class="col" d="M59.4,0C26.6,0,0,26.6,0,59.4s26.6,59.4,59.4,59.4s59.3-26.6,59.3-59.4C118.7,26.6,92.1,0,59.4,0z M59.4,105.1
		c-25.2,0-45.7-20.5-45.7-45.7s20.5-45.7,45.7-45.7s45.7,20.5,45.7,45.7S84.6,105.1,59.4,105.1z"/>
	<path class="col" d="M78.7,42.4L53.2,67.9l-11-11c-2.4-2.4-6.2-2.4-8.5,0l-1.1,1.1c-2.4,2.4-2.4,6.2,0,8.5L49,83c2.4,2.4,6.2,2.4,8.5,0
		l30.9-30.9c2.4-2.4,2.4-6.2,0-8.5l-1.1-1.1C84.9,40.1,81.1,40.1,78.7,42.4z"/>
</g>
</svg>
