<?xml version="1.0" encoding="utf-8"?>
<!-- Generator: Adobe Illustrator 26.4.1, SVG Export Plug-In . SVG Version: 6.00 Build 0)  -->
<svg version="1.1" id="Vrstva_1" xmlns="http://www.w3.org/2000/svg" xmlns:xlink="http://www.w3.org/1999/xlink" x="0px" y="0px"
	 viewBox="0 0 118.7 118.7" style="enable-background:new 0 0 118.7 118.7;" xml:space="preserve">
	<style type="text/css">
	.col{fill:#FCD213;}
</style>
	<g>
	<polygon class="col" points="49.1,68.8 49.2,68.8 49.2,68.9 63.5,68.9 92.2,40.1 77.9,25.8 49.1,54.5 	"/>
	<path class="col" d="M102.6,29.7c2.2-2.2,2.2-5.7,0-7.9l-6.4-6.4c-1.1-1.1-2.5-1.6-4-1.6c-1.5,0-2.9,0.6-4,1.6L81.7,22L96,36.3L102.6,29.7z"/>
	<path class="col" d="M116.9,34.7l-9.9,9.9c0,0.4,0.1,0.8,0.1,1.1v27.1c0,12.3-10,22.3-22.3,22.3h-73V45.8c0-12.3,10-22.3,22.3-22.3h22.6
		l11.7-11.7H34c-18.8,0-34,15.2-34,34v61.1h72.7h12.1c18.8,0,34-15.2,34-34V60.9V45.8C118.7,41.9,118.1,38.2,116.9,34.7z"/>
</g>
</svg>
