<?xml version="1.0" encoding="utf-8"?>
<!-- Generator: Adobe Illustrator 26.4.1, SVG Export Plug-In . SVG Version: 6.00 Build 0)  -->
<svg version="1.1" id="Vrstva_1" xmlns="http://www.w3.org/2000/svg" xmlns:xlink="http://www.w3.org/1999/xlink" x="0px" y="0px"
	 viewBox="0 0 118.7 118.7" style="enable-background:new 0 0 118.7 118.7;" xml:space="preserve">
	<style type="text/css">
	.col{fill:#FCD213;}
</style>
	<g>
	<path class="col" d="M106.1,5.9H12.6C5.6,5.9,0,11.6,0,18.5v66.2c0,7,5.7,12.6,12.6,12.6h40.8v3.6H38.9v11.9h41v-11.9H65.3v-3.6h40.8
		c7,0,12.6-5.7,12.6-12.6V18.5C118.8,11.6,113.1,5.9,106.1,5.9z M106.9,84.7c0,0.4-0.3,0.7-0.7,0.7H12.6c-0.4,0-0.7-0.3-0.7-0.7
		V18.5c0-0.4,0.3-0.7,0.7-0.7h93.5c0.4,0,0.7,0.3,0.7,0.7C106.9,18.5,106.9,84.7,106.9,84.7z"/>
	<circle class="col" cx="38.9" cy="45.5" r="10.6"/>
	<path class="col" d="M38.9,58c-9.6,0-17.3,7.7-17.3,17.3h34.6C56.2,65.8,48.5,58,38.9,58z"/>
	<path class="col" d="M79.8,56.1c5.8,0,10.6-4.7,10.6-10.6s-4.7-10.6-10.6-10.6c-5.8,0-10.6,4.7-10.6,10.6S74,56.1,79.8,56.1z"/>
	<path class="col" d="M79.8,58c-9.6,0-17.3,7.7-17.3,17.3h34.6C97.2,65.8,89.4,58,79.8,58z"/>
</g>
</svg>
