<?xml version="1.0" encoding="utf-8"?>
<!-- Generator: Adobe Illustrator 26.4.1, SVG Export Plug-In . SVG Version: 6.00 Build 0)  -->
<svg version="1.1" id="Vrstva_1" xmlns="http://www.w3.org/2000/svg" xmlns:xlink="http://www.w3.org/1999/xlink" x="0px" y="0px"
	 viewBox="0 0 118.7 118.7" style="enable-background:new 0 0 118.7 118.7;" xml:space="preserve">
<g>
	<path d="M117.5,57c-11.9-23.4-34.2-38-58.2-38S13.1,33.6,1.2,57L0,59.4l1.2,2.4c11.9,23.4,34.2,38,58.2,38s46.2-14.6,58.2-38
		l1.2-2.4L117.5,57z M59.4,89.3c-19.2,0-37.3-11.4-47.7-30c10.4-18.6,28.4-30,47.7-30s37.3,11.4,47.7,30
		C96.6,77.9,78.6,89.3,59.4,89.3z"/>
	<path d="M59.4,35.9c-12.9,0-23.5,10.5-23.5,23.5s10.5,23.5,23.5,23.5s23.5-10.5,23.5-23.5S72.3,35.9,59.4,35.9z M59.4,72.5
		c-7.2,0-13.1-5.9-13.1-13.1s5.9-13.1,13.1-13.1s13.1,5.9,13.1,13.1S66.6,72.5,59.4,72.5z"/>
</g>
</svg>
