<?xml version="1.0" encoding="utf-8"?>
<svg version="1.1" xmlns="http://www.w3.org/2000/svg" xmlns:xlink="http://www.w3.org/1999/xlink" x="0px" y="0px" viewBox="0 0 118.7 118.7" style="enable-background:new 0 0 118.7 118.7;">
	<path fill="#F86" d="M59.4,0C26.6,0,0,26.6,0,59.4s26.6,59.4,59.4,59.4s59.4-26.6,59.4-59.4S92.1,0,59.4,0z M59.4,108.1
		c-26.9,0-48.7-21.8-48.7-48.7c0-26.9,21.8-48.7,48.7-48.7c26.9,0,48.7,21.8,48.7,48.7C108.1,86.3,86.3,108.1,59.4,108.1z"/>
	<polygon fill="#F86" points="75.4,39.6 50.7,66 50.7,97.5 67.8,82.6 67.8,65.9 94.6,39.6 	"/>
	<polygon fill="#F86" points="43.9,39.6 24.1,39.6 50.7,66 54,50.6 	"/>
</svg>
