<svg width="118.74" height="118.74" xmlns="http://www.w3.org/2000/svg" xml:space="preserve" version="1.1">

 <g>
  <title>Layer 1</title>
  <g id="svg_1"/>
  <path id="svg_2" fill="#FCD213" d="m-96.82,112.95c-11.82,2.17 -21.06,11.41 -23.23,23.23c-1.91,10.44 -2.95,21.6 -2.95,33.19s1.04,22.75 2.95,33.19c2.17,11.81 11.41,21.05 23.22,23.22c10.44,1.92 21.6,2.95 33.19,2.95s22.75,-1.04 33.19,-2.95c11.81,-2.17 21.05,-11.41 23.22,-23.22c1.92,-10.44 2.95,-21.6 2.95,-33.19c0,-11.61 -1.04,-22.78 -2.96,-33.23c-2.15,-11.79 -11.37,-21.01 -23.16,-23.18c-10.45,-1.92 -21.62,-2.96 -33.23,-2.96c-11.59,0 -22.75,1.04 -33.19,2.95z" class="st2"/>
  <g stroke="null" id="svg_3">
   <path stroke="null" id="svg_4" d="m89.70167,54.04424l0,-17.74753c0,-16.95183 -13.87283,-31.39549 -30.82466,-31.11872c-16.48479,0.27676 -29.80409,13.76904 -29.80409,30.30573l0,18.54323l-7.17858,0c-2.87143,0 -5.18934,2.3179 -5.18934,5.18934l0,49.16032c0,2.87143 2.3179,5.18934 5.18934,5.18934l74.95132,0c2.87143,0 5.18934,-2.3179 5.18934,-5.18934l0,-49.14302c0,-2.87143 -2.3179,-5.18934 -5.18934,-5.18934l-7.14399,0zm-48.86626,-18.54323c0,-10.22299 8.32024,-18.54323 18.56053,-18.54323s18.54323,8.30294 18.54323,18.54323l0,18.54323l-37.10376,0l0,-18.54323zm49.45438,66.33702l-61.8223,0l0,-36.0313l61.805,0l0,36.0313l0.0173,0z"/>
   <path stroke="null" id="svg_5" d="m60.07056,76.42758l-1.38382,0c-2.87143,0 -5.18934,2.3179 -5.18934,5.18934l0,3.35577c0,2.87143 2.3179,5.18934 5.18934,5.18934l1.38382,0c2.87143,0 5.18934,-2.3179 5.18934,-5.18934l0,-3.35577c0,-2.87143 -2.3179,-5.18934 -5.18934,-5.18934z"/>
  </g>
 </g>
</svg>