<svg width="118.74" height="118.74" xmlns="http://www.w3.org/2000/svg" xml:space="preserve" version="1.1">
 <g>
  <title>Layer 1</title>
  <g id="svg_1"/>
  <g id="svg_3" stroke="null">
   <path fill="#ff0000" id="svg_6" d="m40.83543,54.01829l0,-18.00699c0,-9.65216 7.14399,-18.11078 16.76155,-19.01027c11.03599,-1.03786 20.3422,7.64563 20.3422,18.47404l11.7625,0c0,-16.53669 -13.3193,-30.02896 -29.80409,-30.30573c-16.95183,-0.27677 -30.82467,14.14959 -30.82467,31.11872l0,17.74754l-7.17858,0c-2.87143,0 -5.18933,2.3179 -5.18933,5.18933l0,49.16032c0,2.87143 2.3179,5.18933 5.18933,5.18933l74.95132,0c2.87143,0 5.18933,-2.3179 5.18933,-5.18933l0,-49.17762c0,-2.87143 -2.3179,-5.18933 -5.18933,-5.18933l-56.01024,0l0.00001,-0.00001zm49.45438,47.7938l-61.8223,0l0,-36.0313l61.805,0l0,36.0313l0.0173,0z" stroke="null"/>
   <path fill="#ff0000" id="svg_7" d="m60.07058,76.40162l-1.38382,0c-2.87143,0 -5.18933,2.3179 -5.18933,5.18933l0,3.35577c0,2.87143 2.3179,5.18933 5.18933,5.18933l1.38382,0c2.87143,0 5.18933,-2.3179 5.18933,-5.18933l0,-3.35577c0,-2.87143 -2.3179,-5.18933 -5.18933,-5.18933z" stroke="null"/>
  </g>
 </g>

</svg>