<?xml version="1.0" encoding="utf-8"?>
<!-- Generator: Adobe Illustrator 26.3.1, SVG Export Plug-In . SVG Version: 6.00 Build 0)  -->
<svg version="1.1" id="Vrstva_1" xmlns="http://www.w3.org/2000/svg" xmlns:xlink="http://www.w3.org/1999/xlink" x="0px" y="0px"
	 viewBox="0 0 118.74 118.74" style="enable-background:new 0 0 118.74 118.74;" xml:space="preserve">
<style type="text/css">
	.st0{fill:url(#SVGID_1_);}
	.st1{fill:#0E101F;}
	.st2{fill:#FCD213;}
	.st3{fill:#010202;}
</style>
<g>
</g>
<path class="st2" d="M26.18,2.95C14.36,5.12,5.12,14.36,2.95,26.18C1.04,36.62,0,47.78,0,59.37s1.04,22.75,2.95,33.19
	c2.17,11.81,11.41,21.05,23.22,23.22c10.44,1.92,21.6,2.95,33.19,2.95s22.75-1.04,33.19-2.95c11.81-2.17,21.05-11.41,23.22-23.22
	c1.92-10.44,2.95-21.6,2.95-33.19c0-11.61-1.04-22.78-2.96-33.23C113.61,14.35,104.39,5.13,92.6,2.96C82.15,1.04,70.98,0,59.37,0
	C47.78,0,36.62,1.04,26.18,2.95z"/>
<g>
	<path d="M74.17,87.61c-3.88,0-7.76-1.48-10.72-4.43L35.57,55.29c-5.91-5.91-5.91-15.53,0-21.44c3.62-3.62,9.51-3.62,13.13,0
		l7.88,7.88c1.75,1.75,2.72,4.08,2.72,6.56c0,2.48-0.97,4.81-2.72,6.56l-2.06,2.06l-4.81-4.81l2.06-2.06
		c0.47-0.47,0.73-1.09,0.73-1.76c0-0.66-0.26-1.29-0.73-1.76l-7.88-7.88c-0.97-0.97-2.54-0.97-3.51,0c-3.26,3.26-3.26,8.56,0,11.82
		l27.88,27.88c3.26,3.26,8.56,3.26,11.82,0c0.97-0.97,0.97-2.54,0-3.51l-7.88-7.88c-0.94-0.94-2.57-0.94-3.51,0l-2.06,2.06
		l-4.81-4.81l2.06-2.06c1.75-1.75,4.08-2.72,6.56-2.72c2.48,0,4.81,0.97,6.56,2.72l7.88,7.88c3.62,3.62,3.62,9.51,0,13.13
		C81.94,86.13,78.05,87.61,74.17,87.61z"/>
</g>
</svg>
