<?xml version="1.0" encoding="utf-8"?>
<!-- Generator: Adobe Illustrator 26.3.1, SVG Export Plug-In . SVG Version: 6.00 Build 0)  -->
<svg version="1.1" id="Vrstva_1" xmlns="http://www.w3.org/2000/svg" xmlns:xlink="http://www.w3.org/1999/xlink" x="0px" y="0px"
	 viewBox="0 0 118.74 118.74" style="enable-background:new 0 0 118.74 118.74;" xml:space="preserve">
<style type="text/css">
	.st0{fill:url(#SVGID_1_);}
	.st1{fill:#0E101F;}
	.st2{fill:#FCD213;}
	.st3{fill:#010202;}
</style>
<g>
</g>
<path class="st2" d="M26.18,2.95C14.36,5.12,5.12,14.36,2.95,26.18C1.04,36.62,0,47.78,0,59.37s1.04,22.75,2.95,33.19
	c2.17,11.81,11.41,21.05,23.22,23.22c10.44,1.92,21.6,2.95,33.19,2.95s22.75-1.04,33.19-2.95c11.81-2.17,21.05-11.41,23.22-23.22
	c1.92-10.44,2.95-21.6,2.95-33.19c0-11.61-1.04-22.78-2.96-33.23C113.61,14.35,104.39,5.13,92.6,2.96C82.15,1.04,70.98,0,59.37,0
	C47.78,0,36.62,1.04,26.18,2.95z"/>
<path d="M40.89,86.08l40.77-23.41c2.55-1.46,2.55-5.14,0-6.6L40.89,32.66c-2.98-1.71-6.52,1.08-5.55,4.38l4.91,16.67
	c0.39,1.33,1.48,2.34,2.83,2.64l13.48,2.98l-13.49,3.05c-1.35,0.3-2.42,1.31-2.81,2.64L35.34,81.7
	C34.37,84.99,37.91,87.79,40.89,86.08z"/>
</svg>
