<?xml version="1.0" encoding="utf-8"?>
<!-- Generator: Adobe Illustrator 26.4.1, SVG Export Plug-In . SVG Version: 6.00 Build 0)  -->
<svg version="1.1" id="Vrstva_1" xmlns="http://www.w3.org/2000/svg" xmlns:xlink="http://www.w3.org/1999/xlink" x="0px" y="0px"
	 viewBox="0 0 118.7 118.7" style="enable-background:new 0 0 118.7 118.7;" xml:space="preserve">
<style type="text/css">
	.col{fill:#FCD213;}
</style>
	<path class="col" d="M50,118.7c-11.8,0-23.5-4.5-32.5-13.4C8.8,96.6,4,85.1,4,72.8S8.8,49,17.5,40.3L48,9.9c13.2-13.2,34.6-13.2,47.7,0
	s13.2,34.6,0,47.7L67,86.3c-4.1,4.1-9.5,6.3-15.2,6.3c-5.7,0-11.2-2.2-15.2-6.3c-4.1-4.1-6.3-9.5-6.3-15.2c0-5.8,2.2-11.2,6.3-15.2
	l29.4-29.4l11.8,11.8L48.3,67.6c-0.9,0.9-1.4,2.1-1.4,3.4s0.5,2.5,1.4,3.4c1.8,1.8,5,1.8,6.9,0l28.7-28.7c6.7-6.7,6.7-17.5,0-24.1
	s-17.5-6.7-24.1,0L29.3,52.1c-5.5,5.5-8.6,12.9-8.6,20.7s3,15.2,8.6,20.7c11.4,11.4,30,11.4,41.4,0l32.2-32.2l11.8,11.8l-32.2,32.2
	C73.5,114.3,61.7,118.7,50,118.7z"/>
</svg>
