<?xml version="1.0" encoding="utf-8"?>
<!-- Generator: Adobe Illustrator 26.4.1, SVG Export Plug-In . SVG Version: 6.00 Build 0)  -->
<svg version="1.1" id="Vrstva_1" xmlns="http://www.w3.org/2000/svg" xmlns:xlink="http://www.w3.org/1999/xlink" x="0px" y="0px"
	 viewBox="0 0 118.7 118.7" style="enable-background:new 0 0 118.7 118.7;" xml:space="preserve">
<style type="text/css">
	.col{fill:#FCD213;}
</style>
	<g>
	<path class="col" d="M82.7,0H24.8C17,0,10.6,6.4,10.6,14.3v74.9l15-15V15h46.5v6.8c0,7.9,6.4,14.3,14.3,14.3h6.8v67.6h-38l-15,15h53.8
		c7.9,0,14.3-6.4,14.3-14.3v-79L82.7,0z"/>
	<polygon class="col" points="64.7,82.9 46.4,64.6 46.4,64.6 25.6,85.4 10.6,100.5 10.6,104.5 10.6,118.6 10.7,118.6 10.7,118.6 10.7,118.7
		24.8,118.7 28.8,118.7 43.9,103.7 	"/>
	<path class="col" d="M71.1,76.5l3.4-3.4l4.2-4.2c0.3-0.3,0.5-0.6,0.8-0.9c0.5-0.7,0.9-1.5,1.1-2.4c0-0.2,0.1-0.4,0.1-0.5c0.4-2.2-0.3-4.6-2-6.3
		l-8.2-8.2c-0.3-0.3-0.7-0.6-1.1-0.9c-1.2-0.8-2.5-1.2-4-1.2s-2.8,0.4-4,1.2c-0.4,0.3-0.8,0.6-1.1,0.9l-7.6,7.6L52.1,59l18.3,18.3
		L71.1,76.5z"/>
</g>
</svg>
