<?xml version="1.0" encoding="utf-8"?>
<!-- Generator: Adobe Illustrator 26.4.1, SVG Export Plug-In . SVG Version: 6.00 Build 0)  -->
<svg version="1.1" id="Vrstva_1" xmlns="http://www.w3.org/2000/svg" xmlns:xlink="http://www.w3.org/1999/xlink" x="0px" y="0px"
	 viewBox="0 0 118.7 118.7" style="enable-background:new 0 0 118.7 118.7;" xml:space="preserve">
	<style type="text/css">
	.col{fill:#FCD213;}
</style>
	<path class="col" d="M114,83l-13.8-13.8C94,63,83.8,63,77.6,69.3c-1.8,1.8-4.3,2.9-6.9,2.9s-5-1-6.9-2.9L49.5,55c-3.8-3.8-3.8-10,0-13.8
	c6.3-6.3,6.3-16.4,0-22.7L35.7,4.7c-3-3-7.1-4.7-11.4-4.7S16,1.7,13,4.7C4.6,13.1,0,24.3,0,36.1s4.6,23,13,31.4l38.3,38.3
	c8.7,8.7,20,13,31.4,13c11.4,0,22.7-4.3,31.4-13C120.3,99.5,120.3,89.3,114,83z M103.8,95.5c-11.7,11.7-30.7,11.7-42.3,0L23.2,57.3
	c-5.6-5.6-8.8-13.2-8.8-21.2s3.1-15.5,8.8-21.2c0.4-0.4,0.8-0.5,1.1-0.5c0.3,0,0.7,0.1,1.1,0.5l13.8,13.8c0.6,0.6,0.6,1.7,0,2.3
	c-9.4,9.4-9.4,24.8,0,34.2l14.3,14.3c9.4,9.4,24.8,9.4,34.2,0c0.6-0.6,1.7-0.6,2.3,0l13.8,13.8c0.4,0.4,0.5,0.8,0.5,1.1
	S104.2,95.1,103.8,95.5z"/>
</svg>
