<?xml version="1.0" encoding="utf-8"?>
<svg version="1.1" id="Vrstva_1" xmlns="http://www.w3.org/2000/svg" xmlns:xlink="http://www.w3.org/1999/xlink" x="0px" y="0px" viewBox="0 0 118.7 118.7" style="enable-background:new 0 0 118.7 118.7;" xml:space="preserve">
 <path d="M117.5,38.1c-2.2-19.5-17.4-34.7-36.9-36.9l-0.3,0c-13.9-1.6-28.1-1.6-42,0l-0.3,0C18.6,3.4,3.4,18.6,1.2,38.1 C0.4,45.1,0,52.3,0,59.4h0c0,0.2,0,0.3,0,0.5c0,32.2,4.2,51.2,4.3,51.3l0.7,2.6l2.6,0.6c0.2,0,19.6,4.3,51.3,4.3h0.3h0.2 c7,0,14.1-0.4,21-1.2l0.3,0c19.5-2.2,34.7-17.4,36.9-36.9l0.1-0.5C119.1,66.1,119.1,52,117.5,38.1z M108.8,79.1l-0.1,0.5 C107,95,95,107,79.6,108.7l-0.3,0c-6.6,0.7-13.3,1.1-20.1,1.1c0,0,0,0,0,0H59h-0.2c-23.7,0-40.2-2.4-46.5-3.5 c-1.1-6.2-3.4-22.1-3.5-45v-2c0-6.8,0.4-13.6,1.1-20.3C11.7,23.7,23.7,11.7,39.1,10l0.3,0c13.3-1.5,26.7-1.5,40,0l0.3,0 C95,11.7,107,23.7,108.7,39.1C110.2,52.3,110.2,65.8,108.8,79.1z"/>
</svg>
