<?xml version="1.0" encoding="utf-8"?>
<!-- Generator: Adobe Illustrator 26.4.1, SVG Export Plug-In . SVG Version: 6.00 Build 0)  -->
<svg version="1.1" id="Vrstva_1" xmlns="http://www.w3.org/2000/svg" xmlns:xlink="http://www.w3.org/1999/xlink" x="0px" y="0px"
	 viewBox="0 0 118.7 118.7" style="enable-background:new 0 0 118.7 118.7;" xml:space="preserve">
	<style type="text/css">
	.col{fill:#FCD213;}
</style>
	<g>
	<path class="col" d="M117.5,36.9c-2.1-18.7-16.9-33.5-35.7-35.6l-0.3,0C74.2,0.4,66.8,0,59.4,0S44.6,0.4,37.2,1.2l-0.3,0
		C18.2,3.4,3.4,18.2,1.3,36.9C0.4,44.4,0,51.9,0,59.4c0,0,0,0.5,0,0.5c0,34,4.5,54.3,4.5,54.3l0,0l0,0c0,0,20.3,4.5,54.3,4.5
		c0.1,0,0.1,0,0.2,0c0.1,0,0.2,0,0.4,0c7.4,0,14.8-0.4,22.2-1.2l0.3,0c18.8-2.1,33.6-16.9,35.7-35.7l0.1-0.5
		C119.2,66.5,119.2,51.6,117.5,36.9z M104.8,79.8l-0.1,0.5c-1.4,12.9-11.5,22.9-24.4,24.4l-0.3,0c-6.8,0.8-13.8,1.2-20.8,1.2h0h-0.3
		h-0.2h-0.1c-19.6,0-34.5-1.6-43.1-2.8c-1.2-8.6-2.8-23.5-2.8-43.2v-0.6c0-7,0.4-14.1,1.2-21C15.5,25.4,25.5,15.4,38.4,14l0.3,0
		c6.8-0.8,13.8-1.2,20.7-1.2c6.9,0,13.9,0.4,20.7,1.2l0.3,0c12.9,1.5,22.9,11.5,24.4,24.3C106.3,52.1,106.3,66.1,104.8,79.8z"/>
	<path class="col" d="M61,40.5c-0.6,0.6-1.1,1.3-1.6,1.9c-0.5-0.7-1-1.3-1.6-1.9c-6.6-6.6-17.3-6.6-23.9,0s-6.6,17.3,0,23.9l22.3,22.3l3.3,3.3
		l3.3-3.3l22.3-22.3c6.6-6.6,6.6-17.3,0-23.9C78.4,33.9,67.6,33.9,61,40.5z"/>
</g>
</svg>
