<?xml version="1.0" encoding="utf-8"?>
<!-- Generator: Adobe Illustrator 26.4.1, SVG Export Plug-In . SVG Version: 6.00 Build 0)  -->
<svg version="1.1" id="Vrstva_1" xmlns="http://www.w3.org/2000/svg" xmlns:xlink="http://www.w3.org/1999/xlink" x="0px" y="0px"
	 viewBox="0 0 118.7 118.7" style="enable-background:new 0 0 118.7 118.7;" xml:space="preserve">
<style>
	.col { fill:#008000;}
</style>
	<g>
	<path class="col" d="M92.6,53.5V34.1C92.6,15.5,77.4-0.3,58.8,0C40.8,0.3,26.2,15.1,26.2,33.2v20.3h-7.9c-3.1,0-5.7,2.5-5.7,5.7v53.9
		c0,3.1,2.5,5.7,5.7,5.7h82.1c3.1,0,5.7-2.5,5.7-5.7V59.2c0-3.1-2.5-5.7-5.7-5.7H92.6z M39.1,33.2c0-11.2,9.1-20.3,20.3-20.3
		c11.2,0,20.3,9.1,20.3,20.3v20.3H39.1V33.2z M93.2,105.9H25.5V66.4h67.7L93.2,105.9L93.2,105.9z"/>
	<path class="col" d="M60.1,78.1h-1.5c-3.1,0-5.7,2.5-5.7,5.7v3.7c0,3.1,2.5,5.7,5.7,5.7h1.5c3.1,0,5.7-2.5,5.7-5.7v-3.7
		C65.8,80.6,63.3,78.1,60.1,78.1z"/>
</g>
</svg>
