<?xml version="1.0" encoding="utf-8"?>
<!-- Generator: Adobe Illustrator 26.4.1, SVG Export Plug-In . SVG Version: 6.00 Build 0)  -->
<svg version="1.1" id="Vrstva_1" xmlns="http://www.w3.org/2000/svg" xmlns:xlink="http://www.w3.org/1999/xlink" x="0px" y="0px"
	 viewBox="0 0 118.7 118.7" style="enable-background:new 0 0 118.7 118.7;" xml:space="preserve">
	<style type="text/css">
	.col{fill:#FCD213;}
</style>
	<g>
	<path class="col" d="M26.2,72.6c6.3,0,11.4-5.1,11.4-11.4s-5.1-11.4-11.4-11.4s-11.4,5.1-11.4,11.4S19.9,72.6,26.2,72.6z"/>
	<path class="col" d="M26.2,78.7C11.8,78.7,0,90.4,0,104.9H15c0-6.2,5-11.2,11.2-11.2s11.2,5,11.2,11.2h14.9C52.4,90.4,40.6,78.7,26.2,78.7z"/>
	<path class="col" d="M81.1,61.2c0,6.3,5.1,11.4,11.4,11.4c6.3,0,11.4-5.1,11.4-11.4s-5.1-11.4-11.4-11.4C86.2,49.7,81.1,54.9,81.1,61.2z"/>
	<path class="col" d="M92.6,78.7c-14.4,0-26.2,11.7-26.2,26.2h14.9c0-6.2,5-11.2,11.2-11.2c6.2,0,11.2,5,11.2,11.2h14.9
		C118.7,90.4,107,78.7,92.6,78.7z"/>
	<g>
		<path class="col" d="M61.9,22v-8.2H48.6c-3.1,0-5.7,2.5-5.7,5.7v29.9c0,3.1,2.5,5.7,5.7,5.7h21.5c3.1,0,5.7-2.5,5.7-5.7V27.7h-8.2
			C64.5,27.7,61.9,25.2,61.9,22z"/>
		<polygon class="col" points="65.9,14.1 65.9,23.8 75.6,23.8 		"/>
	</g>
</g>
</svg>
