<?xml version="1.0" encoding="utf-8"?>
<!-- Generator: Adobe Illustrator 26.4.1, SVG Export Plug-In . SVG Version: 6.00 Build 0)  -->
<svg version="1.1" id="Vrstva_1" xmlns="http://www.w3.org/2000/svg" xmlns:xlink="http://www.w3.org/1999/xlink" x="0px" y="0px"
	 viewBox="0 0 118.7 118.7" style="enable-background:new 0 0 118.7 118.7;" xml:space="preserve">
	<style type="text/css">
	.col{fill:#FCD213;}
</style>
	<path class="col" d="M97.8,57.2c4.2-2.9,7.5-6.5,9.7-10.7c0.9-1.8,1.6-3.6,2.1-5.5c0.5-1.9,0.8-3.9,0.8-5.9c0-4.1-1-7.9-2.9-11.4
	c-0.9-1.8-2.1-3.4-3.4-5c-0.7-0.8-1.4-1.6-2.2-2.3V6.8l-9.3,3.1l0,0c-1.5-0.7-3.1-1.4-4.7-2c-4.4-1.5-9.2-2.3-14.3-2.3
	s-9.9,0.8-14.3,2.3s-8.4,3.6-11.7,6.3c-0.8,0.7-1.6,1.4-2.4,2.1C40.3,21,37.3,27,36.9,33.5l0,0l0,0c0,0-0.1,0-0.1,0
	c-3.8,0-7.5,0.5-10.9,1.3c-3.5,0.9-6.7,2.1-9.6,3.7c-2,1.1-3.8,2.3-5.4,3.6C4.1,47.4,0,54.7,0,62.9C0,70,3.2,76.5,8.5,81.6l0,0v9.4
	l9.2-3.1c2.5,1.2,5.2,2.3,8.1,3c3.5,0.9,7.1,1.3,10.9,1.3c2.5,0,5-0.2,7.4-0.6c0.8-0.1,1.5-0.3,2.3-0.5C49.7,101,59,108.8,71,111.8
	c2.3,0.6,4.7,1,7.2,1.2c1.2,0.1,2.5,0.1,3.8,0.1c3.8,0,7.5-0.5,10.9-1.3c2.3-0.6,4.5-1.3,6.6-2.2c0.5-0.2,1-0.5,1.5-0.8l9.3,3.1
	v-9.4c5.3-5.1,8.5-11.6,8.5-18.8c0-8.1-4.1-15.5-10.8-20.8c-1.7-1.3-3.5-2.5-5.4-3.6C101,58.5,99.4,57.8,97.8,57.2 M73.5,16.6
	c14,0,25.8,8.4,25.8,18.4S87.5,53.5,73.5,53.5c-0.7,0-1.3,0-2-0.1c-0.3-0.7-0.6-1.3-0.9-2c-3.3-6.2-9.1-11.2-16.4-14.4
	c-2.1-0.9-4.3-1.6-6.5-2.2C47.9,24.9,59.7,16.6,73.5,16.6z M45.5,80.2c-2.7,0.7-5.7,1.2-8.7,1.2c-14,0-25.8-8.4-25.8-18.4
	s11.8-18.4,25.8-18.4c0.7,0,1.3,0,2,0.1l0,0l0,0C50,45.2,59.6,51.3,62,59.1c-0.8,0.4-1.5,0.8-2.3,1.3c-0.7,0.4-1.3,0.8-1.9,1.3
	c-0.6,0.4-1.2,0.9-1.8,1.3C50.3,67.5,46.5,73.5,45.5,80.2z M82,102.1c-12.1,0-22.7-6.4-25.2-14.6c-0.4-1.2-0.6-2.5-0.6-3.8
	c0-7.8,7.3-14.7,17.1-17.3c2.7-0.7,5.7-1.2,8.7-1.2c14,0,25.8,8.4,25.8,18.4S96,102.1,82,102.1z"/>
</svg>
