<?xml version="1.0" encoding="utf-8"?>
<!-- Generator: Adobe Illustrator 27.9.0, SVG Export Plug-In . SVG Version: 6.00 Build 0)  -->
<svg version="1.1" id="Vrstva_1" xmlns="http://www.w3.org/2000/svg" xmlns:xlink="http://www.w3.org/1999/xlink" x="0px" y="0px"
	 viewBox="0 0 118.74 118.74" style="enable-background:new 0 0 118.74 118.74;" xml:space="preserve">
<style type="text/css">
	.st0{fill:url(#SVGID_1_);}
	.st1{fill:#0E101F;}
	.st2{fill:#FCD213;}
	.st3{fill:#010202;}
	.st4{fill:none;stroke:#000000;stroke-width:7;stroke-miterlimit:10;}
	.st5{fill:#FDD213;}
	.st6{fill:#6BB42D;}
	.st7{fill:#E83C3D;}
</style>
<path class="st2" d="M26.18,2.95C14.36,5.12,5.12,14.36,2.95,26.18C1.04,36.62,0,47.78,0,59.37s1.04,22.75,2.95,33.19
	c2.17,11.81,11.41,21.05,23.22,23.22c10.44,1.92,21.6,2.95,33.19,2.95s22.75-1.04,33.19-2.95c11.81-2.17,21.05-11.41,23.22-23.22
	c1.92-10.44,2.95-21.6,2.95-33.19c0-11.61-1.04-22.78-2.96-33.23C113.61,14.35,104.39,5.13,92.6,2.96C82.15,1.04,70.98,0,59.37,0
	C47.78,0,36.62,1.04,26.18,2.95z"/>
<path d="M89.1,72.11l-6.45-21.77c-2.6-7.09-9.07-11.77-16.28-11.77h-1.14H53.52h-1.14c-7.21,0-13.68,4.68-16.28,11.77l-6.45,21.77
	c-1.42,3.88,1.29,8.06,5.24,8.06c1.53,0,3-0.66,4.06-1.83l9.66-10.65c1.06-1.17,2.53-1.83,4.06-1.83h0.86h11.71h0.86
	c1.53,0,3,0.66,4.06,1.83l9.66,10.65c1.06,1.17,2.53,1.83,4.06,1.83h0C87.8,80.17,90.52,75.99,89.1,72.11z M51.56,59.34
	c-2.76,0-5-2.24-5-5c0-2.76,2.24-5,5-5s5,2.24,5,5C56.56,57.1,54.32,59.34,51.56,59.34z M75.18,55.32h-5.02v5.02h-2v-5.02h-5.02v-2
	h5.02V48.3h2v5.02h5.02V55.32z"/>
</svg>
