<?xml version="1.0" encoding="utf-8"?>
<!-- Generator: Adobe Illustrator 27.9.0, SVG Export Plug-In . SVG Version: 6.00 Build 0)  -->
<svg version="1.1" id="Vrstva_1" xmlns="http://www.w3.org/2000/svg" xmlns:xlink="http://www.w3.org/1999/xlink" x="0px" y="0px"
	 viewBox="0 0 118.74 118.74" style="enable-background:new 0 0 118.74 118.74;" xml:space="preserve">
<style type="text/css">
	.st0{fill:url(#SVGID_1_);}
	.st1{fill:#0E101F;}
	.st2{fill:#FCD213;}
	.st3{fill:#010202;}
	.st4{fill:none;stroke:#000000;stroke-width:7;stroke-miterlimit:10;}
	.st5{fill:#FDD213;}
	.st6{fill:#6BB42D;}
	.st7{fill:#E83C3D;}
</style>
<path class="st2" d="M26.18,2.95C14.36,5.12,5.12,14.36,2.95,26.18C1.04,36.62,0,47.78,0,59.37s1.04,22.75,2.95,33.19
	c2.17,11.81,11.41,21.05,23.22,23.22c10.44,1.92,21.6,2.95,33.19,2.95s22.75-1.04,33.19-2.95c11.81-2.17,21.05-11.41,23.22-23.22
	c1.92-10.44,2.95-21.6,2.95-33.19c0-11.61-1.04-22.78-2.96-33.23C113.61,14.35,104.39,5.13,92.6,2.96C82.15,1.04,70.98,0,59.37,0
	C47.78,0,36.62,1.04,26.18,2.95z"/>
<g>
	<circle cx="57.02" cy="80.01" r="7.93"/>
	<path d="M40.25,66.01l4.58,4.58c3.26-3.26,7.59-5.05,12.19-5.05s8.93,1.79,12.19,5.05l4.58-4.58
		C64.55,56.76,49.5,56.76,40.25,66.01z"/>
	<path d="M62.62,41.18c0.89-2.26,2.27-4.27,4.01-5.91c-15.59-3.07-32.39,1.41-44.44,13.47l4.58,4.58
		C36.53,43.56,49.88,39.52,62.62,41.18z"/>
	<path d="M62.69,53.4c-0.78-1.91-1.22-4-1.22-6.2c0-0.18,0.02-0.35,0.03-0.53C50.74,45.35,39.5,48.8,31.26,57.04l4.58,4.58
		C43.13,54.34,53.26,51.6,62.69,53.4z"/>
	<polygon points="88.38,41.14 83.92,36.68 77.87,42.74 71.81,36.68 67.35,41.14 73.41,47.2 67.35,53.25 71.81,57.71 77.87,51.65 
		83.92,57.71 88.38,53.25 82.32,47.2 	"/>
</g>
</svg>
