<?xml version="1.0" encoding="utf-8"?>
<!-- Generator: Adobe Illustrator 27.9.0, SVG Export Plug-In . SVG Version: 6.00 Build 0)  -->
<svg version="1.1" id="Vrstva_1" xmlns="http://www.w3.org/2000/svg" xmlns:xlink="http://www.w3.org/1999/xlink" x="0px" y="0px"
	 viewBox="0 0 118.74 118.74" style="enable-background:new 0 0 118.74 118.74;" xml:space="preserve">
<style type="text/css">
	.st0{fill:url(#SVGID_1_);}
	.st1{fill:#0E101F;}
	.st2{fill:#FCD213;}
	.st3{fill:#010202;}
	.st4{fill:none;stroke:#000000;stroke-width:7;stroke-miterlimit:10;}
	.st5{fill:#FDD213;}
	.st6{fill:#6BB42D;}
	.st7{fill:#E83C3D;}
</style>
<path class="st2" d="M26.18,2.95C14.36,5.12,5.12,14.36,2.95,26.18C1.04,36.62,0,47.78,0,59.37s1.04,22.75,2.95,33.19
	c2.17,11.81,11.41,21.05,23.22,23.22c10.44,1.92,21.6,2.95,33.19,2.95s22.75-1.04,33.19-2.95c11.81-2.17,21.05-11.41,23.22-23.22
	c1.92-10.44,2.95-21.6,2.95-33.19c0-11.61-1.04-22.78-2.96-33.23C113.61,14.35,104.39,5.13,92.6,2.96C82.15,1.04,70.98,0,59.37,0
	C47.78,0,36.62,1.04,26.18,2.95z"/>
<g>
	<path d="M88.73,48.03c-1.08-9.47-8.55-16.94-18.02-18.01L70.57,30c-3.72-0.42-7.46-0.63-11.2-0.63c-3.74,0-7.48,0.21-11.2,0.63
		l-0.15,0.02c-9.47,1.07-16.94,8.54-18.02,18.01c-0.43,3.77-0.64,7.56-0.64,11.35c0,0,0,0.23,0,0.27c0,17.18,2.27,27.45,2.27,27.46
		v0h0c0.01,0,10.28,2.27,27.45,2.27c0.03,0,0.06,0,0.09,0c0.06,0,0.12,0,0.18,0c3.74,0,7.48-0.21,11.2-0.63l0.13-0.01
		c9.48-1.07,16.96-8.55,18.02-18.03l0.03-0.27C89.58,62.98,89.58,55.47,88.73,48.03z M82.31,69.69l-0.03,0.27
		c-0.73,6.52-5.8,11.58-12.31,12.32l-0.13,0.01c-3.46,0.39-6.98,0.59-10.49,0.59c0,0-0.01,0-0.01,0l-0.13,0l-0.12,0l-0.05,0
		c-9.92,0-17.44-0.8-21.79-1.41c-0.62-4.35-1.41-11.9-1.41-21.84l0-0.28c0-3.54,0.2-7.11,0.6-10.61c0.74-6.51,5.8-11.57,12.31-12.3
		l0.15-0.02c3.46-0.39,6.98-0.59,10.47-0.59c3.48,0,7.01,0.2,10.47,0.59l0.14,0.02c6.51,0.74,11.57,5.79,12.31,12.3
		C83.09,55.7,83.09,62.75,82.31,69.69z"/>
	<path d="M60.2,49.83c-0.31,0.31-0.58,0.64-0.83,0.98c-0.25-0.34-0.52-0.67-0.83-0.98c-3.34-3.34-8.75-3.34-12.09,0
		c-3.34,3.34-3.34,8.75,0,12.09L57.7,73.18l1.67,1.67l1.67-1.67l11.25-11.25c3.34-3.34,3.34-8.75,0-12.09
		C68.96,46.49,63.54,46.49,60.2,49.83z"/>
</g>
</svg>
