<?xml version="1.0" encoding="utf-8"?>
<!-- Generator: Adobe Illustrator 27.9.0, SVG Export Plug-In . SVG Version: 6.00 Build 0)  -->
<svg version="1.1" id="Vrstva_1" xmlns="http://www.w3.org/2000/svg" xmlns:xlink="http://www.w3.org/1999/xlink" x="0px" y="0px"
	 viewBox="0 0 118.74 118.74" style="enable-background:new 0 0 118.74 118.74;" xml:space="preserve">
<style type="text/css">
	.st0{fill:url(#SVGID_1_);}
	.st1{fill:#0E101F;}
	.st2{fill:#FCD213;}
	.st3{fill:#010202;}
	.st4{fill:none;stroke:#000000;stroke-width:7;stroke-miterlimit:10;}
	.st5{fill:#FDD213;}
	.st6{fill:#6BB42D;}
	.st7{fill:#E83C3D;}
</style>
<path class="st2" d="M26.18,2.95C14.36,5.12,5.12,14.36,2.95,26.18C1.04,36.62,0,47.78,0,59.37s1.04,22.75,2.95,33.19
	c2.17,11.81,11.41,21.05,23.22,23.22c10.44,1.92,21.6,2.95,33.19,2.95s22.75-1.04,33.19-2.95c11.81-2.17,21.05-11.41,23.22-23.22
	c1.92-10.44,2.95-21.6,2.95-33.19c0-11.61-1.04-22.78-2.96-33.23C113.61,14.35,104.39,5.13,92.6,2.96C82.15,1.04,70.98,0,59.37,0
	C47.78,0,36.62,1.04,26.18,2.95z"/>
<g>
	<path d="M70.39,85.97H48.35c-1.79,0-3.24,1.45-3.24,3.24s1.45,3.24,3.24,3.24h22.04c1.79,0,3.24-1.45,3.24-3.24
		S72.18,85.97,70.39,85.97z"/>
	<path d="M93.56,48.82c-0.51-8.36-5.93-15.32-13.3-17.01c-6.38-1.47-13.45-2.28-20.89-2.28c-7.44,0-14.51,0.81-20.89,2.28
		c-7.37,1.69-12.79,8.64-13.3,17.01c-0.14,2.31-0.21,4.65-0.21,7.03s0.07,4.72,0.21,7.03c0.51,8.36,5.93,15.32,13.3,17.01
		c6.38,1.47,13.45,2.28,20.89,2.28c7.44,0,14.51-0.81,20.89-2.28c7.37-1.69,12.79-8.64,13.3-17.01c0.14-2.31,0.21-4.65,0.21-7.03
		S93.7,51.12,93.56,48.82z M87.09,62.48c-0.33,5.48-3.74,10.04-8.28,11.09c-6.11,1.4-12.65,2.12-19.44,2.12
		c-6.79,0-13.33-0.71-19.44-2.12c-4.54-1.04-7.95-5.6-8.28-11.09c-0.13-2.19-0.2-4.42-0.2-6.63c0-2.21,0.07-4.45,0.2-6.63
		c0.33-5.48,3.74-10.04,8.28-11.09c6.11-1.4,12.65-2.12,19.44-2.12c6.79,0,13.33,0.71,19.44,2.12c4.54,1.04,7.95,5.6,8.28,11.09
		c0.13,2.19,0.2,4.42,0.2,6.63S87.23,60.29,87.09,62.48z"/>
	<path d="M72.98,54.08l-10.22-7.39c-1.08-0.78-2.58-0.01-2.58,1.32v2.25c0,0-14.34,1.6-15.08,15.04c5.1-3.42,15.08-5.13,15.08-5.13
		v2.62c0,1.33,1.5,2.1,2.58,1.32l10.22-7.39C73.88,56.07,73.88,54.73,72.98,54.08z"/>
</g>
</svg>
