<?xml version="1.0" encoding="utf-8"?>
<!-- Generator: Adobe Illustrator 27.9.0, SVG Export Plug-In . SVG Version: 6.00 Build 0)  -->
<svg version="1.1" id="Vrstva_1" xmlns="http://www.w3.org/2000/svg" xmlns:xlink="http://www.w3.org/1999/xlink" x="0px" y="0px"
	 viewBox="0 0 118.74 118.74" style="enable-background:new 0 0 118.74 118.74;" xml:space="preserve">
<style type="text/css">
	.st0{fill:url(#SVGID_1_);}
	.st1{fill:#0E101F;}
	.st2{fill:#FCD213;}
	.st3{fill:#010202;}
	.st4{fill:none;stroke:#000000;stroke-width:7;stroke-miterlimit:10;}
	.st5{fill:#FDD213;}
	.st6{fill:#6BB42D;}
	.st7{fill:#E83C3D;}
</style>
<path class="st2" d="M26.18,2.95C14.36,5.12,5.12,14.36,2.95,26.18C1.04,36.62,0,47.78,0,59.37s1.04,22.75,2.95,33.19
	c2.17,11.81,11.41,21.05,23.22,23.22c10.44,1.92,21.6,2.95,33.19,2.95s22.75-1.04,33.19-2.95c11.81-2.17,21.05-11.41,23.22-23.22
	c1.92-10.44,2.95-21.6,2.95-33.19c0-11.61-1.04-22.78-2.96-33.23C113.61,14.35,104.39,5.13,92.6,2.96C82.15,1.04,70.98,0,59.37,0
	C47.78,0,36.62,1.04,26.18,2.95z"/>
<g>
	<path d="M78.93,40.42c-1.38-6.68-7.04-11.6-13.84-12.06c-1.88-0.13-3.79-0.19-5.72-0.19c-1.93,0-3.84,0.07-5.72,0.19
		c-6.81,0.46-12.47,5.38-13.84,12.06c-1.19,5.79-1.86,12.2-1.86,18.95s0.66,13.16,1.86,18.95c1.38,6.68,7.04,11.6,13.84,12.06
		c1.88,0.13,3.79,0.19,5.72,0.19c1.93,0,3.84-0.07,5.72-0.19C71.9,89.92,77.56,85,78.93,78.32c1.19-5.79,1.86-12.2,1.86-18.95
		S80.13,46.21,78.93,40.42z M72.59,77.01c-0.78,3.8-4.05,6.64-7.94,6.91c-1.74,0.12-3.52,0.18-5.28,0.18s-3.54-0.06-5.28-0.18
		c-3.89-0.26-7.15-3.1-7.94-6.91c-1.14-5.55-1.72-11.48-1.72-17.64c0-6.16,0.58-12.1,1.72-17.64c0.78-3.8,4.05-6.64,7.94-6.91
		c1.74-0.12,3.52-0.18,5.28-0.18c1.76,0,3.54,0.06,5.28,0.18c3.89,0.26,7.15,3.1,7.94,6.91c1.14,5.55,1.72,11.48,1.72,17.64
		C74.31,65.53,73.73,71.47,72.59,77.01z"/>
	<path d="M67.02,56.77l-10.3-5.95c-2-1.15-4.5,0.29-4.5,2.6v11.9c0,2.31,2.5,3.75,4.5,2.6l10.3-5.95
		C69.02,60.81,69.02,57.93,67.02,56.77z"/>
</g>
</svg>
