<?xml version="1.0" encoding="utf-8"?>
<!-- Generator: Adobe Illustrator 27.9.0, SVG Export Plug-In . SVG Version: 6.00 Build 0)  -->
<svg version="1.1" id="Vrstva_1" xmlns="http://www.w3.org/2000/svg" xmlns:xlink="http://www.w3.org/1999/xlink" x="0px" y="0px"
	 viewBox="0 0 118.74 118.74" style="enable-background:new 0 0 118.74 118.74;" xml:space="preserve">
<style type="text/css">
	.st0{fill:url(#SVGID_1_);}
	.st1{fill:#0E101F;}
	.st2{fill:#FCD213;}
	.st3{fill:#010202;}
	.st4{fill:none;stroke:#000000;stroke-width:7;stroke-miterlimit:10;}
	.st5{fill:#FDD213;}
	.st6{fill:#6BB42D;}
	.st7{fill:#E83C3D;}
</style>
<path class="st2" d="M26.18,2.95C14.36,5.12,5.12,14.36,2.95,26.18C1.04,36.62,0,47.78,0,59.37s1.04,22.75,2.95,33.19
	c2.17,11.81,11.41,21.05,23.22,23.22c10.44,1.92,21.6,2.95,33.19,2.95s22.75-1.04,33.19-2.95c11.81-2.17,21.05-11.41,23.22-23.22
	c1.92-10.44,2.95-21.6,2.95-33.19c0-11.61-1.04-22.78-2.96-33.23C113.61,14.35,104.39,5.13,92.6,2.96C82.15,1.04,70.98,0,59.37,0
	C47.78,0,36.62,1.04,26.18,2.95z"/>
<path d="M89.74,55.05v-4H81.7v-3.98c0-2.42-0.86-4.65-2.29-6.38c-0.2-0.25-0.42-0.49-0.65-0.71c-1.82-1.81-4.32-2.94-7.09-2.94h0
	h-3.98V29h-4v8.03h-8.64V29h-4v8.03h-3.98h0c-0.69,0-1.37,0.07-2.02,0.2c-0.33,0.07-0.65,0.15-0.96,0.25
	c-0.63,0.2-1.23,0.45-1.8,0.76c-0.57,0.31-1.1,0.67-1.6,1.08s-0.95,0.86-1.36,1.36s-0.77,1.03-1.08,1.6
	c-0.77,1.42-1.21,3.05-1.21,4.78v3.98H29v4h8.03v8.64H29v4h8.03v3.98c0,2.42,0.86,4.65,2.29,6.38c1.84,2.23,4.62,3.65,7.74,3.65
	h3.98v8.03h4V81.7h8.64v8.03h4V81.7h3.98c3.68,0,6.88-1.99,8.63-4.94c0.88-1.49,1.4-3.23,1.4-5.09v-3.98h8.03v-4H81.7v-8.64H89.74z
	 M59.37,71.62v-8.84l-7.48-4.64l7.48-11.03v8.84l7.48,4.64L59.37,71.62z"/>
</svg>
