<?xml version="1.0" encoding="utf-8"?>
<!-- Generator: Adobe Illustrator 27.9.0, SVG Export Plug-In . SVG Version: 6.00 Build 0)  -->
<svg version="1.1" id="Vrstva_1" xmlns="http://www.w3.org/2000/svg" xmlns:xlink="http://www.w3.org/1999/xlink" x="0px" y="0px"
	 viewBox="0 0 118.74 118.74" style="enable-background:new 0 0 118.74 118.74;" xml:space="preserve">
<style type="text/css">
	.st0{fill:url(#SVGID_1_);}
	.st1{fill:#0E101F;}
	.st2{fill:#FCD213;}
	.st3{fill:#010202;}
	.st4{fill:none;stroke:#000000;stroke-width:7;stroke-miterlimit:10;}
	.st5{fill:#FDD213;}
	.st6{fill:#6BB42D;}
	.st7{fill:#E83C3D;}
</style>
<g>
</g>
<path class="st2" d="M26.18,2.95C14.36,5.12,5.12,14.36,2.95,26.18C1.04,36.62,0,47.78,0,59.37s1.04,22.75,2.95,33.19
	c2.17,11.81,11.41,21.05,23.22,23.22c10.44,1.92,21.6,2.95,33.19,2.95s22.75-1.04,33.19-2.95c11.81-2.17,21.05-11.41,23.22-23.22
	c1.92-10.44,2.95-21.6,2.95-33.19c0-11.61-1.04-22.78-2.96-33.23C113.61,14.35,104.39,5.13,92.6,2.96C82.15,1.04,70.98,0,59.37,0
	C47.78,0,36.62,1.04,26.18,2.95z"/>
<path d="M83.87,69.98L77.7,63.8c-2.81-2.81-7.37-2.81-10.18,0c-0.82,0.82-1.92,1.28-3.09,1.28c-1.17,0-2.26-0.45-3.09-1.28l-6.4-6.4
	c-1.7-1.7-1.7-4.47,0-6.17c2.81-2.81,2.81-7.37,0-10.18l-6.17-6.17c-1.36-1.36-3.17-2.11-5.09-2.11s-3.73,0.75-5.09,2.11
	c-3.76,3.76-5.83,8.75-5.83,14.06c0,5.31,2.07,10.31,5.82,14.06l17.16,17.16c3.88,3.88,8.97,5.82,14.06,5.81
	c5.09,0,10.19-1.94,14.06-5.81C86.68,77.35,86.68,72.78,83.87,69.98z M79.29,75.58c-5.23,5.23-13.74,5.23-18.96,0L43.17,58.42
	c-2.53-2.53-3.93-5.9-3.93-9.48c0-3.58,1.4-6.95,3.93-9.48c0.17-0.17,0.37-0.21,0.51-0.21c0.14,0,0.33,0.04,0.51,0.21l6.17,6.17
	c0.28,0.28,0.28,0.74,0,1.02c-4.23,4.23-4.23,11.11,0,15.33l6.4,6.4c4.23,4.23,11.11,4.23,15.33,0c0.28-0.28,0.74-0.28,1.02,0
	l6.17,6.17c0.17,0.17,0.21,0.37,0.21,0.51S79.46,75.4,79.29,75.58z"/>
</svg>
