<?xml version="1.0" encoding="utf-8"?>
<!-- Generator: Adobe Illustrator 27.9.0, SVG Export Plug-In . SVG Version: 6.00 Build 0)  -->
<svg version="1.1" id="Vrstva_1" xmlns="http://www.w3.org/2000/svg" xmlns:xlink="http://www.w3.org/1999/xlink" x="0px" y="0px"
	 viewBox="0 0 118.74 118.74" style="enable-background:new 0 0 118.74 118.74;" xml:space="preserve">
<style type="text/css">
	.st0{fill:url(#SVGID_1_);}
	.st1{fill:#0E101F;}
	.st2{fill:#FCD213;}
	.st3{fill:#010202;}
	.st4{fill:none;stroke:#000000;stroke-width:7;stroke-miterlimit:10;}
	.st5{fill:#FDD213;}
	.st6{fill:#6BB42D;}
	.st7{fill:#E83C3D;}
</style>
<path class="st2" d="M26.18,2.95C14.36,5.12,5.12,14.36,2.95,26.18C1.04,36.62,0,47.78,0,59.37s1.04,22.75,2.95,33.19
	c2.17,11.81,11.41,21.05,23.22,23.22c10.44,1.92,21.6,2.95,33.19,2.95s22.75-1.04,33.19-2.95c11.81-2.17,21.05-11.41,23.22-23.22
	c1.92-10.44,2.95-21.6,2.95-33.19c0-11.61-1.04-22.78-2.96-33.23C113.61,14.35,104.39,5.13,92.6,2.96C82.15,1.04,70.98,0,59.37,0
	C47.78,0,36.62,1.04,26.18,2.95z"/>
<g>
	<g>
		<path d="M85.71,57.67c-2.27-2.27-5.96-2.27-8.23,0l-3.34,3.34c1.56,1.44,2.59,3.47,2.7,5.75c0.2,4.11-2.58,7.73-6.61,8.6
			l-9.75,2.1l-0.77-3.59l9.75-2.1c2.26-0.49,3.82-2.52,3.71-4.83c-0.07-1.43-0.79-2.67-1.85-3.49c-0.13-0.1-0.25-0.2-0.39-0.28
			c-0.08-0.05-0.16-0.09-0.24-0.13c-0.17-0.09-0.34-0.18-0.53-0.26c-0.02-0.01-0.05-0.01-0.07-0.02c-0.49-0.18-1.02-0.29-1.58-0.29
			l-17.77-0.14c-0.01,0-0.02,0-0.04,0c-0.62,0-1.24,0.13-1.81,0.37c-0.57,0.23-1.09,0.58-1.53,1.02L33.17,77.93l0,0l-1.52,1.52
			l12.16,12.16l5.81-5.81c0.06-0.06,0.14-0.1,0.23-0.1l18.72-1.56c1.31-0.11,2.53-0.77,3.34-1.82l14.21-18.45
			C87.55,62.01,87.38,59.34,85.71,57.67z"/>
		<ellipse transform="matrix(0.9239 -0.3827 0.3827 0.9239 -11.1472 26.8932)" cx="62.03" cy="41.47" rx="14.34" ry="14.34"/>
	</g>
</g>
</svg>
