<?xml version="1.0" encoding="utf-8"?>
<!-- Generator: Adobe Illustrator 27.9.0, SVG Export Plug-In . SVG Version: 6.00 Build 0)  -->
<svg version="1.1" id="Vrstva_1" xmlns="http://www.w3.org/2000/svg" xmlns:xlink="http://www.w3.org/1999/xlink" x="0px" y="0px"
	 viewBox="0 0 118.74 118.74" style="enable-background:new 0 0 118.74 118.74;" xml:space="preserve">
<style type="text/css">
	.st0{fill:url(#SVGID_1_);}
	.st1{fill:#0E101F;}
	.st2{fill:#FCD213;}
	.st3{fill:#010202;}
	.st4{fill:none;stroke:#000000;stroke-width:7;stroke-miterlimit:10;}
	.st5{fill:#FDD213;}
	.st6{fill:#6BB42D;}
	.st7{fill:#E83C3D;}
</style>
<path class="st2" d="M92.56,115.79c11.81-2.17,21.05-11.41,23.22-23.22c1.92-10.44,2.95-21.6,2.95-33.19
	c0-11.59-1.04-22.75-2.95-33.19c-2.17-11.81-11.41-21.05-23.22-23.22C82.12,1.04,70.96,0,59.37,0S36.62,1.04,26.18,2.95
	C14.36,5.12,5.12,14.36,2.95,26.18C1.04,36.62,0,47.78,0,59.37C0,70.98,1.04,82.15,2.96,92.6c2.17,11.79,11.39,21.01,23.18,23.18
	c10.45,1.92,21.62,2.96,33.23,2.96C70.96,118.74,82.12,117.7,92.56,115.79z"/>
<g>
	<path d="M80.78,35.48h-5.46c-1.53,0-2.77,1.24-2.77,2.77v21.04c0,1.53,1.24,2.77,2.77,2.77h5.46c1.53,0,2.77-1.24,2.77-2.77V38.25
		C83.55,36.72,82.31,35.48,80.78,35.48z"/>
	<path d="M49.63,36.46h-4.99c-2.18,0-3.96,1.77-3.96,3.96s1.77,3.95,3.96,3.95h-3.1c-2.18,0-3.96,1.77-3.96,3.96
		c0,2.18,1.77,3.96,3.96,3.96h-2.39c-2.18,0-3.96,1.77-3.96,3.96c0,2.18,1.77,3.96,3.96,3.96c-2.18,0-3.96,1.77-3.96,3.95
		c0,2.18,1.77,3.96,3.96,3.96h10.48v0h4.16v6.44c0,4.82,3.91,8.73,8.73,8.73c0-7.07,2.09-13.99,6.02-19.87l1.32-1.98V36.46H55.78
		H49.63z"/>
</g>
</svg>
