<?xml version="1.0" encoding="utf-8"?>
<!-- Generator: Adobe Illustrator 27.9.0, SVG Export Plug-In . SVG Version: 6.00 Build 0)  -->
<svg version="1.1" id="Vrstva_1" xmlns="http://www.w3.org/2000/svg" xmlns:xlink="http://www.w3.org/1999/xlink" x="0px" y="0px"
	 viewBox="0 0 118.74 118.74" style="enable-background:new 0 0 118.74 118.74;" xml:space="preserve">
<style type="text/css">
	.st0{fill:url(#SVGID_1_);}
	.st1{fill:#0E101F;}
	.st2{fill:#FCD213;}
	.st3{fill:#010202;}
	.st4{fill:none;stroke:#000000;stroke-width:7;stroke-miterlimit:10;}
	.st5{fill:#FDD213;}
	.st6{fill:#6BB42D;}
	.st7{fill:#E83C3D;}
</style>
<path class="st2" d="M26.18,2.95C14.36,5.12,5.12,14.36,2.95,26.18C1.04,36.62,0,47.78,0,59.37s1.04,22.75,2.95,33.19
	c2.17,11.81,11.41,21.05,23.22,23.22c10.44,1.92,21.6,2.95,33.19,2.95s22.75-1.04,33.19-2.95c11.81-2.17,21.05-11.41,23.22-23.22
	c1.92-10.44,2.95-21.6,2.95-33.19c0-11.61-1.04-22.78-2.96-33.23C113.61,14.35,104.39,5.13,92.6,2.96C82.15,1.04,70.98,0,59.37,0
	C47.78,0,36.62,1.04,26.18,2.95z"/>
<g>
	<path d="M80.55,42.4l-0.74-0.3c0.02,0.3,0.04,0.61,0.03,0.9l-0.77,21.49l5.3-13.08C85.8,47.87,84.09,43.83,80.55,42.4z"/>
	<path d="M77.94,67.25l-0.88-2.73l-9.04-27.94c-0.11-0.33-0.25-0.65-0.4-0.95c-1.18-2.37-3.6-3.84-6.19-3.84
		c-0.7,0-1.42,0.11-2.13,0.34l-8.89,2.88l-6.01,1.94l-5.74,1.86c-3.64,1.18-5.63,5.08-4.45,8.71l5.94,18.36l1.17,3.62l4.09,12.64
		c0.39,1.2,1.07,2.21,1.94,3c1.26,1.14,2.92,1.79,4.64,1.79c0.7,0,1.42-0.11,2.13-0.34l0.99-0.32l2.33-0.76l17.32-5.6
		c0.64-0.21,1.23-0.51,1.77-0.87c2.47-1.69,3.65-4.85,2.69-7.84L77.94,67.25z M73.08,73.98c-0.07,0.05-0.13,0.08-0.2,0.1l-17.32,5.6
		l-2.33,0.76l-0.99,0.32c-0.08,0.03-0.16,0.04-0.24,0.04c-0.19,0-0.38-0.08-0.53-0.21c-0.14-0.13-0.19-0.25-0.22-0.33l-4.09-12.64
		L45.99,64l-5.94-18.36c-0.07-0.2-0.05-0.41,0.05-0.6c0.1-0.19,0.25-0.32,0.46-0.39l5.74-1.86l6.01-1.94l8.89-2.88
		c0.08-0.03,0.16-0.04,0.24-0.04c0.24,0,0.54,0.13,0.69,0.43c0.04,0.08,0.05,0.11,0.06,0.11c0,0,0,0,0,0l9.04,27.93l0.88,2.73
		l1.28,3.95C73.5,73.48,73.31,73.82,73.08,73.98z"/>
	<path d="M77.27,58.68l0.57-15.75c0.02-0.58-0.04-1.15-0.15-1.69c-0.65-3.03-3.27-5.35-6.51-5.47l-1.35-0.05
		c0.03,0.09,0.07,0.17,0.1,0.26L77.27,58.68z"/>
	<polygon points="51.21,61.13 59.92,69.37 62.22,57.61 53.51,49.37 	"/>
</g>
</svg>
