<?xml version="1.0" encoding="utf-8"?>
<!-- Generator: Adobe Illustrator 27.9.0, SVG Export Plug-In . SVG Version: 6.00 Build 0)  -->
<svg version="1.1" id="Vrstva_1" xmlns="http://www.w3.org/2000/svg" xmlns:xlink="http://www.w3.org/1999/xlink" x="0px" y="0px"
	 viewBox="0 0 118.74 118.74" style="enable-background:new 0 0 118.74 118.74;" xml:space="preserve">
<style type="text/css">
	.st0{fill:url(#SVGID_1_);}
	.st1{fill:#0E101F;}
	.st2{fill:#FCD213;}
	.st3{fill:#010202;}
	.st4{fill:none;stroke:#000000;stroke-width:7;stroke-miterlimit:10;}
	.st5{fill:#FDD213;}
	.st6{fill:#6BB42D;}
	.st7{fill:#E83C3D;}
</style>
<path class="st2" d="M26.18,2.95C14.36,5.12,5.12,14.36,2.95,26.18C1.04,36.62,0,47.78,0,59.37s1.04,22.75,2.95,33.19
	c2.17,11.81,11.41,21.05,23.22,23.22c10.44,1.92,21.6,2.95,33.19,2.95s22.75-1.04,33.19-2.95c11.81-2.17,21.05-11.41,23.22-23.22
	c1.92-10.44,2.95-21.6,2.95-33.19c0-11.61-1.04-22.78-2.96-33.23C113.61,14.35,104.39,5.13,92.6,2.96C82.15,1.04,70.98,0,59.37,0
	C47.78,0,36.62,1.04,26.18,2.95z"/>
<path d="M87.2,53.65c-0.41-6.81-4.83-12.47-10.82-13.84c-5.19-1.19-10.95-1.86-17-1.86c-6.06,0-11.81,0.66-17,1.86
	c-6,1.38-10.41,7.04-10.82,13.84c-0.11,1.88-0.17,3.79-0.17,5.72c0,1.93,0.06,3.84,0.17,5.72c0.41,6.81,4.83,12.47,10.82,13.84
	c5.19,1.19,10.95,1.86,17,1.86c6.06,0,11.81-0.66,17-1.86c6-1.38,10.41-7.04,10.82-13.84c0.11-1.88,0.17-3.79,0.17-5.72
	C87.37,57.44,87.31,55.53,87.2,53.65z M67.02,61.97l-10.3,5.95c-2,1.15-4.5-0.29-4.5-2.6v-11.9c0-2.31,2.5-3.75,4.5-2.6l10.3,5.95
	C69.02,57.93,69.02,60.81,67.02,61.97z"/>
</svg>
