<?xml version="1.0" encoding="utf-8"?>
<!-- Generator: Adobe Illustrator 27.9.0, SVG Export Plug-In . SVG Version: 6.00 Build 0)  -->
<svg version="1.1" id="Vrstva_1" xmlns="http://www.w3.org/2000/svg" xmlns:xlink="http://www.w3.org/1999/xlink" x="0px" y="0px"
     viewBox="0 0 118.74 118.74" style="enable-background:new 0 0 118.74 118.74;" xml:space="preserve">
<style type="text/css">
	.st0{fill:url(#SVGID_1_);}
	.st1{fill:#0E101F;}
	.st2{fill:#FCD213;}
	.st3{fill:#010202;}
	.st4{fill:none;stroke:#000000;stroke-width:7;stroke-miterlimit:10;}
	.st5{fill:#FDD213;}
	.st6{fill:#6BB42D;}
	.st7{fill:#E83C3D;}
</style>

    <path d="M59.37,25.89c18.46,0,33.48,15.02,33.48,33.48S77.83,92.85,59.37,92.85H32.16c0.85-4.67,0.88-10.48-1.67-16.44l-0.15-0.34
	l-0.18-0.32c-2.79-4.97-4.27-10.63-4.27-16.37C25.89,40.91,40.91,25.89,59.37,25.89 M59.37,19.09c-22.25,0-40.28,18.03-40.28,40.28
	c0,7.16,1.87,13.88,5.14,19.71c4.47,10.46-1.56,20.57-1.56,20.57h36.69c22.25,0,40.28-18.03,40.28-40.28S81.62,19.09,59.37,19.09
	L59.37,19.09z M64.34,47.38v2.4H64c-0.48-0.48-0.96-0.96-1.58-1.37c-1.03-0.75-2.47-1.37-4.59-1.37c-6.24,0-11.31,5.21-11.31,12.68
	s5.07,12.68,11.31,12.68c2.95,0,4.8-1.1,6.1-2.19c0.75-0.62,1.3-1.37,1.78-2.26h0.34c0.41,0.89,1.03,1.64,1.78,2.26
	c1.3,1.1,3.36,2.19,6.44,2.19c6.85,0,11.99-5.14,11.99-14.39c0-13.98-11.65-25.7-27.07-25.7c-14.39,0-26.73,12.34-26.73,27.07
	S44.81,86.44,59.2,86.44c5.21,0,9.18-1.44,11.93-2.88c1.58-0.82,3.02-1.78,4.18-2.95l-3.77-4.8c-0.89,0.75-1.99,1.44-3.22,2.06
	c-2.12,1.03-5.21,2.06-9.12,2.06c-10.97,0-19.88-8.91-19.88-20.56c0-11.65,8.91-20.56,19.88-20.56c11.72,0,20.22,8.57,20.22,19.19
	c0,6.24-2.06,8.22-4.8,8.22c-2.12,0-3.77-1.71-3.77-4.11V47.38H64.34z M58.86,65.88c-3.08,0-5.48-2.33-5.48-6.17
	c0-3.84,2.4-6.17,5.48-6.17c3.02,0,5.48,2.33,5.48,6.17C64.34,63.55,61.94,65.88,58.86,65.88z"/>
</svg>
