<?xml version="1.0" encoding="utf-8"?>
<!-- Generator: Adobe Illustrator 27.9.0, SVG Export Plug-In . SVG Version: 6.00 Build 0)  -->
<svg version="1.1" id="Vrstva_1" xmlns="http://www.w3.org/2000/svg" xmlns:xlink="http://www.w3.org/1999/xlink" x="0px" y="0px"
	 viewBox="0 0 118.74 118.74" style="enable-background:new 0 0 118.74 118.74;" xml:space="preserve">
<style type="text/css">
	.st0{fill:url(#SVGID_1_);}
	.st1{fill:#0E101F;}
	.st2{fill:#FCD213;}
	.st3{fill:#010202;}
	.st4{fill:none;stroke:#000000;stroke-width:7;stroke-miterlimit:10;}
	.st5{fill:#FDD213;}
	.st6{fill:#6BB42D;}
	.st7{fill:#E83C3D;}
</style>
<path class="st2" d="M26.18,2.95C14.36,5.12,5.12,14.36,2.95,26.18C1.04,36.62,0,47.78,0,59.37s1.04,22.75,2.95,33.19
	c2.17,11.81,11.41,21.05,23.22,23.22c10.44,1.92,21.6,2.95,33.19,2.95s22.75-1.04,33.19-2.95c11.81-2.17,21.05-11.41,23.22-23.22
	c1.92-10.44,2.95-21.6,2.95-33.19c0-11.61-1.04-22.78-2.96-33.23C113.61,14.35,104.39,5.13,92.6,2.96C82.15,1.04,70.98,0,59.37,0
	C47.78,0,36.62,1.04,26.18,2.95z"/>
<g>
	<path d="M70.9,54.29c-1.3,0-2.6,0.5-3.59,1.49l-2.83,3.59l2.83,3.59c0.99,0.99,2.29,1.49,3.59,1.49s2.6-0.5,3.59-1.49
		c1.98-1.98,1.98-5.2,0-7.19C73.5,54.78,72.2,54.29,70.9,54.29z"/>
	<path d="M52.96,54.29c-1.3,0-2.6,0.5-3.59,1.49c-1.98,1.98-1.98,5.2,0,7.19c0.99,0.99,2.29,1.49,3.59,1.49s2.6-0.5,3.59-1.49
		l2.83-3.59l-2.83-3.59C55.56,54.78,54.26,54.29,52.96,54.29z"/>
	<path d="M88.88,48.96c-0.99-8.69-7.85-15.55-16.54-16.53l-0.14-0.02c-6.83-0.77-13.72-0.77-20.55,0l-0.14,0.02
		c-8.69,0.98-15.55,7.84-16.54,16.53h0c-0.78,6.83-0.78,13.72-0.01,20.55L35,69.76c0.98,8.7,7.84,15.57,16.54,16.55l0.12,0.01
		c6.83,0.77,13.72,0.77,20.55,0l0.12-0.01c8.7-0.98,15.56-7.85,16.54-16.55l0.03-0.25C89.66,62.68,89.66,55.79,88.88,48.96z
		 M77.33,65.79c-1.72,1.72-4,2.66-6.42,2.66c-2.43,0-4.71-0.94-6.42-2.66l-0.17-0.17l-0.15-0.19l-2.24-2.84l-2.24,2.84l-0.15,0.19
		l-0.17,0.17c-1.72,1.72-4,2.66-6.42,2.66c-2.43,0-4.71-0.94-6.42-2.66c-3.54-3.54-3.54-9.3,0-12.84c1.72-1.72,4-2.66,6.42-2.66
		c2.43,0,4.71,0.94,6.42,2.66l0.17,0.17l0.15,0.19l2.24,2.84l2.24-2.84l0.15-0.19l0.17-0.17c1.72-1.72,4-2.66,6.42-2.66
		s4.71,0.94,6.42,2.66C80.87,56.49,80.87,62.25,77.33,65.79z"/>
</g>
</svg>
