<?xml version="1.0" encoding="utf-8"?>
<!-- Generator: Adobe Illustrator 27.9.0, SVG Export Plug-In . SVG Version: 6.00 Build 0)  -->
<svg version="1.1" id="Vrstva_1" xmlns="http://www.w3.org/2000/svg" xmlns:xlink="http://www.w3.org/1999/xlink" x="0px" y="0px"
	 viewBox="0 0 118.74 118.74" style="enable-background:new 0 0 118.74 118.74;" xml:space="preserve">
<style type="text/css">
	.st0{fill:url(#SVGID_1_);}
	.st1{fill:#0E101F;}
	.st2{fill:#FCD213;}
	.st3{fill:#010202;}
	.st4{fill:none;stroke:#000000;stroke-width:7;stroke-miterlimit:10;}
	.st5{fill:#FDD213;}
	.st6{fill:#6BB42D;}
	.st7{fill:#E83C3D;}
</style>
<path class="st2" d="M26.18,2.95C14.36,5.12,5.12,14.36,2.95,26.18C1.04,36.62,0,47.78,0,59.37s1.04,22.75,2.95,33.19
	c2.17,11.81,11.41,21.05,23.22,23.22c10.44,1.92,21.6,2.95,33.19,2.95s22.75-1.04,33.19-2.95c11.81-2.17,21.05-11.41,23.22-23.22
	c1.92-10.44,2.95-21.6,2.95-33.19c0-11.61-1.04-22.78-2.96-33.23C113.61,14.35,104.39,5.13,92.6,2.96C82.15,1.04,70.98,0,59.37,0
	C47.78,0,36.62,1.04,26.18,2.95z"/>
<g>
	<path d="M74.12,40.68l-1.1,3.04h-34.3c-2.65,0-4.5,2.63-3.6,5.13l7.24,20.09c0.55,1.52,1.99,2.53,3.6,2.53h21.77
		c1.61,0,3.06-1.01,3.6-2.53l1.98-5.48l0.04,0.01l7.36-20.42c1.08-3,3.95-5.02,7.14-5.02v-7C81.72,31.04,76.2,34.91,74.12,40.68z"/>
	<circle cx="49.32" cy="78.95" r="5.25"/>
	<ellipse transform="matrix(0.9871 -0.1602 0.1602 0.9871 -11.8155 11.3311)" cx="64.37" cy="78.95" rx="5.25" ry="5.25"/>
</g>
</svg>
