<?xml version="1.0" encoding="utf-8"?>
<!-- Generator: Adobe Illustrator 27.9.0, SVG Export Plug-In . SVG Version: 6.00 Build 0)  -->
<svg version="1.1" id="Vrstva_1" xmlns="http://www.w3.org/2000/svg" xmlns:xlink="http://www.w3.org/1999/xlink" x="0px" y="0px"
	 viewBox="0 0 118.74 118.74" style="enable-background:new 0 0 118.74 118.74;" xml:space="preserve">
<style type="text/css">
	.st0{fill:url(#SVGID_1_);}
	.st1{fill:#0E101F;}
	.st2{fill:#FCD213;}
	.st3{fill:#010202;}
	.st4{fill:none;stroke:#000000;stroke-width:7;stroke-miterlimit:10;}
	.st5{fill:#FDD213;}
	.st6{fill:#6BB42D;}
	.st7{fill:#E83C3D;}
</style>
<path class="st2" d="M26.18,2.95C14.36,5.12,5.12,14.36,2.95,26.18C1.04,36.62,0,47.78,0,59.37s1.04,22.75,2.95,33.19
	c2.17,11.81,11.41,21.05,23.22,23.22c10.44,1.92,21.6,2.95,33.19,2.95s22.75-1.04,33.19-2.95c11.81-2.17,21.05-11.41,23.22-23.22
	c1.92-10.44,2.95-21.6,2.95-33.19c0-11.61-1.04-22.78-2.96-33.23C113.61,14.35,104.39,5.13,92.6,2.96C82.15,1.04,70.98,0,59.37,0
	C47.78,0,36.62,1.04,26.18,2.95z"/>
<g>
	<path d="M58.56,70.54c-4.38,0-7.93,3.55-7.93,7.93s3.55,7.93,7.93,7.93c4.38,0,7.93-3.55,7.93-7.93S62.94,70.54,58.56,70.54z"/>
	<path d="M41.79,64.47l4.58,4.58c6.72-6.72,17.66-6.72,24.38,0l4.58-4.58C66.08,55.22,51.04,55.22,41.79,64.47z"/>
	<path d="M63.16,39.5c0.86-2.26,2.17-4.3,3.83-6c-2.76-0.47-5.58-0.73-8.43-0.73c-13.16,0-25.53,5.12-34.84,14.43l4.58,4.58
		c8.08-8.08,18.83-12.53,30.26-12.53C60.11,39.25,61.65,39.34,63.16,39.5z"/>
	<path d="M63.11,51.67c-0.7-1.88-1.09-3.9-1.09-6.01c0-0.22,0.02-0.43,0.03-0.65c-10.46-1-21.26,2.5-29.25,10.49l4.58,4.58
		C44.38,53.08,54,50.28,63.11,51.67z"/>
	<path d="M79.4,32.34c-2.76,0-5.33,0.84-7.46,2.28c0,0,0,0,0,0c0,0,0,0,0,0c-0.46,0.31-0.88,0.65-1.3,1.01
		c-0.09,0.08-0.18,0.17-0.28,0.25c-0.39,0.36-0.76,0.74-1.11,1.15c-0.01,0.01-0.02,0.02-0.02,0.03c-0.39,0.46-0.74,0.94-1.06,1.45
		c-0.01,0.02-0.02,0.03-0.03,0.05c-1.3,2.06-2.06,4.49-2.06,7.1c0,0.41,0.02,0.81,0.06,1.21c0.01,0.13,0.03,0.25,0.04,0.37
		c0.03,0.28,0.08,0.56,0.13,0.84c0.02,0.13,0.05,0.26,0.07,0.39c0.08,0.36,0.17,0.71,0.27,1.05c0.05,0.16,0.11,0.31,0.16,0.46
		c0.07,0.2,0.14,0.39,0.21,0.59c0.08,0.19,0.15,0.37,0.24,0.56c0.07,0.14,0.14,0.29,0.21,0.43c0.23,0.46,0.48,0.92,0.76,1.35
		c0,0,0.01,0.01,0.01,0.01h0c2.23,3.42,5.98,5.73,10.29,6.01h0c0.29,0.02,0.58,0.04,0.87,0.04c0.52,0,1.03-0.04,1.54-0.1
		c0,0,0,0,0,0h0c5.82-0.67,10.49-5.08,11.55-10.78h0c0,0,0,0,0,0c0.1-0.52,0.16-1.05,0.19-1.59c0,0,0,0,0,0
		c0.02-0.29,0.04-0.57,0.04-0.86C92.73,38.3,86.76,32.34,79.4,32.34z M86.8,50.9l-2.16,2.16l-5.24-5.24l-5.24,5.24L72,50.9
		l5.24-5.24L72,40.42l2.16-2.16l5.24,5.24l5.24-5.24l2.16,2.16l-5.24,5.24L86.8,50.9z"/>
</g>
</svg>
