<?xml version="1.0" encoding="utf-8"?>
<!-- Generator: Adobe Illustrator 27.9.0, SVG Export Plug-In . SVG Version: 6.00 Build 0)  -->
<svg version="1.1" id="Vrstva_1" xmlns="http://www.w3.org/2000/svg" xmlns:xlink="http://www.w3.org/1999/xlink" x="0px" y="0px"
	 viewBox="0 0 118.74 118.74" style="enable-background:new 0 0 118.74 118.74;" xml:space="preserve">
<style type="text/css">
	.st0{fill:url(#SVGID_1_);}
	.st1{fill:#0E101F;}
	.st2{fill:#FCD213;}
	.st3{fill:#010202;}
	.st4{fill:none;stroke:#000000;stroke-width:7;stroke-miterlimit:10;}
	.st5{fill:#FDD213;}
	.st6{fill:#6BB42D;}
	.st7{fill:#E83C3D;}
</style>
<path class="st2" d="M26.18,2.95C14.36,5.12,5.12,14.36,2.95,26.18C1.04,36.62,0,47.78,0,59.37s1.04,22.75,2.95,33.19
	c2.17,11.81,11.41,21.05,23.22,23.22c10.44,1.92,21.6,2.95,33.19,2.95s22.75-1.04,33.19-2.95c11.81-2.17,21.05-11.41,23.22-23.22
	c1.92-10.44,2.95-21.6,2.95-33.19c0-11.61-1.04-22.78-2.96-33.23C113.61,14.35,104.39,5.13,92.6,2.96C82.15,1.04,70.98,0,59.37,0
	C47.78,0,36.62,1.04,26.18,2.95z"/>
<path d="M80.33,58.16c2.27-1.59,4.1-3.57,5.3-5.83c0.51-0.96,0.9-1.97,1.17-3.01s0.41-2.13,0.41-3.24c0-2.22-0.56-4.33-1.58-6.25
	c-0.51-0.96-1.13-1.87-1.85-2.73c-0.37-0.44-0.77-0.86-1.19-1.27v-5.16l-5.06,1.69h0c-0.83-0.4-1.69-0.78-2.59-1.08
	c-2.4-0.81-5.05-1.26-7.82-1.26s-5.42,0.45-7.82,1.26c-2.4,0.81-4.57,1.99-6.39,3.44c-0.45,0.36-0.89,0.74-1.3,1.14
	c-2.65,2.57-4.3,5.82-4.53,9.36c0,0,0,0,0,0c0,0,0,0,0,0c-0.02,0-0.04,0-0.05,0c-2.08,0-4.09,0.25-5.97,0.72
	c-1.89,0.47-3.65,1.16-5.26,2.02c-1.07,0.58-2.06,1.23-2.97,1.96c-3.64,2.91-5.88,6.92-5.88,11.36c0,3.89,1.74,7.46,4.62,10.24v0
	v5.16L36.61,75c1.38,0.67,2.86,1.23,4.44,1.62c1.89,0.47,3.89,0.72,5.97,0.72c1.39,0,2.74-0.11,4.05-0.33
	c0.42-0.07,0.83-0.17,1.24-0.26c1.77,5.34,6.86,9.59,13.42,11.22c1.26,0.31,2.57,0.53,3.92,0.64c0.68,0.05,1.36,0.08,2.05,0.08
	c2.08,0,4.09-0.25,5.97-0.72c1.26-0.31,2.46-0.72,3.6-1.22c0.29-0.13,0.56-0.27,0.84-0.41l5.06,1.69V82.9
	c2.88-2.78,4.62-6.35,4.62-10.24c0-4.43-2.25-8.45-5.88-11.36c-0.91-0.73-1.9-1.38-2.97-1.96C82.12,58.89,81.23,58.51,80.33,58.16
	 M67.11,36.02c7.64,0,14.1,4.61,14.1,10.07s-6.46,10.07-14.1,10.07c-0.37,0-0.73-0.02-1.09-0.04c-0.15-0.36-0.31-0.72-0.49-1.07
	c-1.78-3.36-4.95-6.14-8.93-7.87c-1.13-0.49-2.33-0.9-3.57-1.21C53.13,40.56,59.53,36.02,67.11,36.02z M51.78,70.73
	c-1.5,0.4-3.1,0.63-4.76,0.63c-7.64,0-14.1-4.61-14.1-10.07c0-5.46,6.46-10.07,14.1-10.07c0.37,0,0.73,0.02,1.09,0.04c0,0,0,0,0,0
	c0,0,0,0,0,0c6.17,0.36,11.36,3.68,12.68,7.93c-0.42,0.22-0.83,0.46-1.23,0.7c-0.36,0.22-0.71,0.45-1.06,0.69
	c-0.34,0.24-0.68,0.47-0.99,0.72C54.41,63.78,52.33,67.07,51.78,70.73z M71.71,82.72c-6.63,0-12.37-3.48-13.77-7.97
	c-0.21-0.68-0.33-1.38-0.33-2.1c0-4.27,3.96-8.01,9.34-9.44c1.5-0.4,3.1-0.63,4.76-0.63c7.64,0,14.1,4.61,14.1,10.07
	S79.36,82.72,71.71,82.72z"/>
</svg>
