<?xml version="1.0" encoding="utf-8"?>
<!-- Generator: Adobe Illustrator 27.9.0, SVG Export Plug-In . SVG Version: 6.00 Build 0)  -->
<svg version="1.1" id="Vrstva_1" xmlns="http://www.w3.org/2000/svg" xmlns:xlink="http://www.w3.org/1999/xlink" x="0px" y="0px"
	 viewBox="0 0 118.74 118.74" style="enable-background:new 0 0 118.74 118.74;" xml:space="preserve">
<style type="text/css">
	.st0{fill:url(#SVGID_1_);}
	.st1{fill:#0E101F;}
	.st2{fill:#FCD213;}
	.st3{fill:#010202;}
	.st4{fill:none;stroke:#000000;stroke-width:7;stroke-miterlimit:10;}
	.st5{fill:#FDD213;}
	.st6{fill:#6BB42D;}
	.st7{fill:#E83C3D;}
</style>
<path class="st2" d="M26.18,2.95C14.36,5.12,5.12,14.36,2.95,26.18C1.04,36.62,0,47.78,0,59.37s1.04,22.75,2.95,33.19
	c2.17,11.81,11.41,21.05,23.22,23.22c10.44,1.92,21.6,2.95,33.19,2.95s22.75-1.04,33.19-2.95c11.81-2.17,21.05-11.41,23.22-23.22
	c1.92-10.44,2.95-21.6,2.95-33.19c0-11.61-1.04-22.78-2.96-33.23C113.61,14.35,104.39,5.13,92.6,2.96C82.15,1.04,70.98,0,59.37,0
	C47.78,0,36.62,1.04,26.18,2.95z"/>
<g>
	<path d="M69.92,32.51H43.74c-3.56,0-6.45,2.89-6.45,6.45v33.9l6.8-6.8V39.31h21.02v3.08c0,3.56,2.89,6.45,6.45,6.45h3.09v30.59
		H57.47l-6.8,6.8H75c3.56,0,6.45-2.89,6.45-6.45V44.04L69.92,32.51z"/>
	<polygon points="61.78,70.02 53.5,61.75 53.5,61.75 44.09,71.16 37.29,77.96 37.29,79.79 37.29,86.18 37.35,86.18 37.35,86.18 
		37.35,86.23 43.74,86.23 45.56,86.23 52.36,79.43 	"/>
	<path d="M64.69,67.1l1.53-1.53l1.89-1.89c0.13-0.13,0.24-0.27,0.34-0.41c0.24-0.33,0.4-0.7,0.5-1.08c0.02-0.08,0.04-0.16,0.06-0.24
		c0.17-1-0.12-2.07-0.89-2.84l-3.7-3.7c-0.15-0.15-0.32-0.29-0.49-0.41c-0.53-0.35-1.14-0.54-1.79-0.54c-0.65,0-1.27,0.19-1.79,0.54
		c-0.18,0.12-0.34,0.25-0.49,0.41l-3.43,3.43l-0.36,0.36l8.27,8.27L64.69,67.1z"/>
</g>
</svg>
