<?xml version="1.0" encoding="utf-8"?>
<!-- Generator: Adobe Illustrator 27.9.0, SVG Export Plug-In . SVG Version: 6.00 Build 0)  -->
<svg version="1.1" id="Vrstva_1" xmlns="http://www.w3.org/2000/svg" xmlns:xlink="http://www.w3.org/1999/xlink" x="0px" y="0px"
	 viewBox="0 0 118.74 118.74" style="enable-background:new 0 0 118.74 118.74;" xml:space="preserve">
<style type="text/css">
	.st0{fill:url(#SVGID_1_);}
	.st1{fill:#0E101F;}
	.st2{fill:#FCD213;}
	.st3{fill:#010202;}
	.st4{fill:none;stroke:#000000;stroke-width:7;stroke-miterlimit:10;}
	.st5{fill:#FDD213;}
	.st6{fill:#6BB42D;}
	.st7{fill:#E83C3D;}
</style>
<path class="st6" d="M26.18,2.95C14.36,5.12,5.12,14.36,2.95,26.18C1.04,36.62,0,47.78,0,59.37s1.04,22.75,2.95,33.19
	c2.17,11.81,11.41,21.05,23.22,23.22c10.44,1.92,21.6,2.95,33.19,2.95s22.75-1.04,33.19-2.95c11.81-2.17,21.05-11.41,23.22-23.22
	c1.92-10.44,2.95-21.6,2.95-33.19c0-11.61-1.04-22.78-2.96-33.23C113.61,14.35,104.39,5.13,92.6,2.96C82.15,1.04,70.98,0,59.37,0
	C47.78,0,36.62,1.04,26.18,2.95z"/>
<path d="M83.26,70.6l-6.17-6.17c-2.86-2.86-7.52-2.86-10.38,0c-3.05,3.04-8,3.04-11.05,0l-1.33-1.33c-3.05-3.05-3.05-8,0-11.05
	c1.39-1.39,2.15-3.23,2.15-5.19c0-1.96-0.76-3.81-2.15-5.19l-6.17-6.17c-2.19-2.19-5.55-2.76-8.36-1.41l-0.34,0.19
	c-0.64,0.4-1.25,0.87-1.81,1.38l-0.15,0.15c-0.69,0.72-1.34,1.5-1.92,2.33l-0.12,0.18c-4.83,7.86-1.08,21.13,9.1,32.28L48,74.06
	l0.11,0.11C56.07,81.43,65,85.34,72.3,85.34c4.15,0,7.78-1.26,10.4-3.89l0,0c0.78-0.78,1.45-1.66,2.01-2.63l0.15-0.26l0.1-0.28
	C85.92,75.61,85.25,72.6,83.26,70.6z"/>
</svg>
