<?xml version="1.0" encoding="utf-8"?>
<!-- Generator: Adobe Illustrator 26.4.1, SVG Export Plug-In . SVG Version: 6.00 Build 0)  -->
<svg version="1.1" id="Vrstva_1" xmlns="http://www.w3.org/2000/svg" xmlns:xlink="http://www.w3.org/1999/xlink" x="0px" y="0px"
	 viewBox="0 0 118.7 118.7" style="enable-background:new 0 0 118.7 118.7;" xml:space="preserve">
<g>
	<path d="M90.8,42.9H78.9l-28,73.3h11.9l7.8-20.6H99l7.8,20.6h11.9L90.8,42.9z M74.8,84.9l10.1-26.4l10.1,26.4H74.8z"/>
	<path d="M56,70c-3.4-2.5-6.5-5.1-9.2-7.6c8.6-9.7,16.9-21.2,22.4-33.9h12.2V16.7H46.7V2.8H34.9v13.9H0.2v11.9h55.9
		c-4.7,9.3-11.2,18-17.8,25.6C29.7,45,25.7,38.1,25.7,38l-10.3,5.8c0.3,0.6,4.9,8.6,14.7,18.9C18.1,74.6,7.5,82.1,7.3,82.2l6.8,9.7
		c0.9-0.6,12-8.4,24.5-20.9c3.8,3.4,8.2,7,13.1,10.5L56,70z"/>
</g>
</svg>
