<?xml version="1.0" encoding="utf-8"?>
<!-- Generator: Adobe Illustrator 26.4.1, SVG Export Plug-In . SVG Version: 6.00 Build 0)  -->
<svg version="1.1" id="Vrstva_1" xmlns="http://www.w3.org/2000/svg" xmlns:xlink="http://www.w3.org/1999/xlink" x="0px" y="0px"
	 viewBox="0 0 118.7 118.7" style="enable-background:new 0 0 118.7 118.7;" xml:space="preserve">
	<style type="text/css">
	.col{fill:#FCD213;}
</style>
	<g>
	<path class="col" d="M42.5,65h2.1c6.4,0,11.7-5.1,11.9-11.5l1-45.4H40.6l-9.5,41.9C29,57.5,34.7,65,42.5,65z"/>
	<path class="col" d="M74.1,65h2.1c7.9,0,13.5-7.5,11.4-15L78.1,8.1H61.2l1,45.4C62.5,59.9,67.7,65,74.1,65z"/>
	<path class="col" d="M117.1,47.1L98.7,8.1H81.8l13.7,48.6v42.1H70.8c0-0.2,0-0.4,0-0.5V84.3c0-6.3-5.1-11.5-11.5-11.5S47.9,78,47.9,84.3v13.9
		c0,0.2,0,0.4,0,0.5H23.2V56.7L36.9,8.1H20.1L1.6,47.1c-4.3,7.5,0.5,16.7,8.7,17.7v46.8h98V64.9C116.6,63.8,121.5,54.6,117.1,47.1z"
		/>
</g>
</svg>
