<?xml version="1.0" encoding="utf-8"?>
<!-- Generator: Adobe Illustrator 27.9.0, SVG Export Plug-In . SVG Version: 6.00 Build 0)  -->
<svg version="1.1" id="Vrstva_1" xmlns="http://www.w3.org/2000/svg" xmlns:xlink="http://www.w3.org/1999/xlink" x="0px" y="0px"
     viewBox="0 0 118.74 118.74" style="enable-background:new 0 0 118.74 118.74;" xml:space="preserve">
<style type="text/css">
	.col{fill:#FCD213;transform: scale(2) translate(-10, 5);}
</style>
    <g>
	<path class="col" d="M77.3,54.41h-7c0,6.03-4.9,10.93-10.93,10.93s-10.93-4.91-10.93-10.93h-7c0,8.69,6.22,15.95,14.43,17.59v6.39h-8.49v7
		h23.98v-7h-8.49V72C71.09,70.36,77.3,63.1,77.3,54.41z"/>
        <path class="col" d="M59.37,62.96c4.62,0,8.39-3.76,8.39-8.39V41.41c0-4.62-3.76-8.38-8.39-8.38s-8.39,3.76-8.39,8.38v13.17
		C50.99,59.2,54.75,62.96,59.37,62.96z M57.99,41.41c0-0.76,0.62-1.38,1.39-1.38s1.39,0.62,1.39,1.38v13.17
		c0,0.76-0.62,1.39-1.39,1.39s-1.39-0.62-1.39-1.39V41.41z"/>
</g>
</svg>
