<?xml version="1.0" encoding="utf-8"?>
<!-- Generator: Adobe Illustrator 26.4.1, SVG Export Plug-In . SVG Version: 6.00 Build 0)  -->
<svg version="1.1" id="Vrstva_1" xmlns="http://www.w3.org/2000/svg" xmlns:xlink="http://www.w3.org/1999/xlink" x="0px" y="0px"
	 viewBox="0 0 118.7 118.7" style="enable-background:new 0 0 118.7 118.7;" xml:space="preserve">
	<style type="text/css">
	.col{fill:#FCD213;}
</style>
	<g>
	<path class="col" d="M76.8,39.7H33.6c-1.9,0-3.4,1.5-3.4,3.4v32.5c0,1.9,1.5,3.4,3.4,3.4h43.2c1.9,0,3.4-1.5,3.4-3.4V64.2l10.2,5.9
		c1.1,0.7,2.6-0.2,2.6-1.5V50.1c0-1.3-1.4-2.1-2.6-1.5l-10.2,5.9V43.1C80.2,41.2,78.7,39.7,76.8,39.7z M68.6,67.4H41.8v-16h26.7
		V67.4z"/>
	<path class="col" d="M84.8,11.8H34c-18.8,0-34,15.2-34,34v61.1h72.7h12.1c18.8,0,34-15.2,34-34V60.9V45.8C118.7,27,103.5,11.8,84.8,11.8z
		 M107,73c0,12.3-10,22.3-22.3,22.3h-73V45.8c0-12.3,10-22.3,22.3-22.3h50.8c12.3,0,22.3,10,22.3,22.3L107,73L107,73z"/>
</g>
</svg>
