<?xml version="1.0" encoding="utf-8"?>
<!-- Generator: Adobe Illustrator 26.4.1, SVG Export Plug-In . SVG Version: 6.00 Build 0)  -->
<svg version="1.1" id="Vrstva_1" xmlns="http://www.w3.org/2000/svg" xmlns:xlink="http://www.w3.org/1999/xlink" x="0px" y="0px"
	 viewBox="0 0 118.7 118.7" style="enable-background:new 0 0 118.7 118.7;" xml:space="preserve">
	<style type="text/css">
	.col{fill:#FCD213;}
</style>
	<g>
	<path class="col" d="M118.4,47.2c-0.9-14.4-10.2-26.5-23-29.4c-11-2.5-23.2-3.9-36.1-3.9c-12.9,0-25.1,1.4-36.1,3.9
		c-12.7,2.9-22.1,14.9-23,29.4c-0.2,4-0.4,8-0.4,12.1s0.1,8.1,0.4,12.1c0.9,14.4,10.2,26.5,23,29.4c11,2.5,23.2,3.9,36.1,3.9
		c12.9,0,25.1-1.4,36.1-3.9c12.7-2.9,22.1-14.9,23-29.4c0.2-4,0.4-8,0.4-12.1C118.7,55.3,118.6,51.2,118.4,47.2z M105.4,70.7
		c-0.5,8.7-5.8,15.8-12.9,17.5c-10.4,2.4-21.6,3.6-33.2,3.6s-22.7-1.2-33.2-3.6c-7.1-1.6-12.3-8.8-12.9-17.5
		C13.1,67,13,63.2,13,59.4c0-3.8,0.1-7.6,0.3-11.3c0.5-8.7,5.8-15.8,12.9-17.5c10.4-2.4,21.6-3.6,33.2-3.6s22.7,1.2,33.2,3.6
		c7.1,1.6,12.3,8.8,12.9,17.5c0.2,3.8,0.3,7.6,0.3,11.3C105.7,63.2,105.6,67,105.4,70.7z"/>
	<path class="col" d="M75.6,53.8L53.7,41.2c-4.2-2.4-9.5,0.6-9.5,5.5V72c0,4.9,5.3,8,9.5,5.5l21.8-12.6C79.8,62.4,79.8,56.3,75.6,53.8z"/>
</g>
</svg>
