<?xml version="1.0" encoding="utf-8"?>
<svg version="1.1" id="Vrstva_1" xmlns="http://www.w3.org/2000/svg" xmlns:xlink="http://www.w3.org/1999/xlink" x="0px" y="0px" viewBox="0 0 118.74 118.74" style="enable-background:new 0 0 118.74 118.74;" xml:space="preserve">
<style type="text/css">
	.st0{fill:url(#SVGID_1_);}
	.st1{fill:#0E101F;}
	.st2{fill:#FCD213;}
	.st3{fill:#010202;}
</style>
<g>
</g>
<path class="st2" d="M26.18,2.95C14.36,5.12,5.12,14.36,2.95,26.18C1.04,36.62,0,47.78,0,59.37s1.04,22.75,2.95,33.19
	c2.17,11.81,11.41,21.05,23.22,23.22c10.44,1.92,21.6,2.95,33.19,2.95s22.75-1.04,33.19-2.95c11.81-2.17,21.05-11.41,23.22-23.22
	c1.92-10.44,2.95-21.6,2.95-33.19c0-11.61-1.04-22.78-2.96-33.23C113.61,14.35,104.39,5.13,92.6,2.96C82.15,1.04,70.98,0,59.37,0
	C47.78,0,36.62,1.04,26.18,2.95z"/>
<g>
	<ellipse cx="59.41" cy="59.63" rx="4.14" ry="4.66"/>
	<path d="M96.09,45.54L96.09,45.54c-1.31-11.54-10.42-20.65-21.97-21.96l-0.18-0.02c-9.07-1.03-18.23-1.03-27.3,0l-0.18,0.02
		C34.92,24.89,25.8,33.99,24.49,45.54l0,0c-1.03,9.07-1.04,18.23-0.02,27.3l0.04,0.33c0.21,1.83,0.61,3.59,1.18,5.28
		c1.96,8.31-0.43,12.8-3.83,17.49c12.13,0,39.46,0,39.46,0l-0.01-0.01c4.22-0.04,8.43-0.29,12.62-0.76l0.16-0.02
		c11.56-1.31,20.67-10.43,21.97-21.99l0.04-0.33C97.13,63.77,97.12,54.61,96.09,45.54z M71.06,69.2c-2.33,0-3.88-0.83-4.86-1.66
		c-0.57-0.47-1.03-1.03-1.35-1.71h-0.26c-0.36,0.67-0.78,1.24-1.35,1.71c-0.98,0.83-2.38,1.66-4.61,1.66
		c-4.71,0-8.54-3.93-8.54-9.57s3.83-9.57,8.54-9.57c1.6,0,2.69,0.47,3.47,1.03c0.47,0.31,0.83,0.67,1.19,1.03h0.26v-1.81h4.92v11.12
		c0,1.81,1.24,3.1,2.85,3.1c2.07,0,3.62-1.5,3.62-6.21c0-8.02-6.42-14.49-15.26-14.49c-8.28,0-15.01,6.73-15.01,15.52
		c0,8.8,6.73,15.52,15.01,15.52c2.95,0,5.28-0.78,6.88-1.55c0.93-0.47,1.76-0.98,2.43-1.55l2.85,3.62c-0.88,0.88-1.97,1.6-3.16,2.22
		c-2.07,1.09-5.07,2.17-9,2.17c-10.87,0-20.18-9.31-20.18-20.44c0-11.12,9.31-20.44,20.18-20.44c11.64,0,20.44,8.85,20.44,19.4
		C80.11,65.32,76.23,69.2,71.06,69.2z"/>
</g>
</svg>
