<svg version="1.1" xmlns="http://www.w3.org/2000/svg" xmlns:xlink="http://www.w3.org/1999/xlink" x="0px" y="0px" viewBox="0 0 118.74 118.74" style="enable-background:new 0 0 118.74 118.74;" xml:space="preserve">
 <style type="text/css">
  .st0{fill:url(#SVGID_1_);}
  .st1{fill:#FCD213;}
  .st2{fill:#FCD213}
  .st3{fill:#010202;}
 </style>
 <path class="st2"  d="M86.32,48.96c-0.99-8.69-7.85-15.54-16.54-16.53l-0.14-0.02c-6.83-0.77-13.72-0.77-20.55,0l-0.14,0.02	c-8.69,0.98-15.55,7.84-16.54,16.53c-0.78,6.83-0.78,13.72-0.01,20.55l0.03,0.25c0.98,8.7,7.84,15.57,16.54,16.55l0.12,0.01	c6.83,0.77,13.72,0.77,20.55,0l0.12-0.01c8.7-0.98,15.56-7.85,16.54-16.55l0.03-0.25C87.1,62.68,87.1,55.79,86.32,48.96z M66.65,73.72c-2.93,2.93-6.79,4.4-10.64,4.4c-3.85,0-7.7-1.47-10.64-4.4c-5.87-5.87-5.87-15.41,0-21.27l10.36-10.36	c2.06-2.06,4.79-3.19,7.7-3.19c2.91,0,5.65,1.13,7.7,3.19c4.25,4.25,4.25,11.16,0,15.4l-9.76,9.77c-2.63,2.63-6.9,2.63-9.53,0	c-2.63-2.63-2.63-6.91,0-9.53l10-10l3.18,3.18l-10,10c-0.87,0.87-0.87,2.29,0,3.17c0.87,0.87,2.29,0.87,3.17,0l9.76-9.76	c2.49-2.49,2.49-6.55,0-9.04c-1.21-1.21-2.81-1.87-4.52-1.87c-1.71,0-3.31,0.67-4.52,1.87L48.55,55.63c-4.11,4.11-4.11,10.8,0,14.91	c4.11,4.11,10.8,4.11,14.91,0l10.96-10.96l3.18,3.18L66.65,73.72z"/>
</svg>
