<?xml version="1.0" encoding="utf-8"?>
<!-- Generator: Adobe Illustrator 26.3.1, SVG Export Plug-In . SVG Version: 6.00 Build 0)  -->
<svg version="1.1" id="Vrstva_1" xmlns="http://www.w3.org/2000/svg" xmlns:xlink="http://www.w3.org/1999/xlink" x="0px" y="0px"
	 viewBox="0 0 118.74 118.74" style="enable-background:new 0 0 118.74 118.74;" xml:space="preserve">
<style type="text/css">
	.st0{fill:url(#SVGID_1_);}
	.st1{fill:#0E101F;}
	.st2{fill:#FCD213;}
	.st3{fill:#010202;}
</style>
<g>
</g>
<path class="st2" d="M26.18,2.95C14.36,5.12,5.12,14.36,2.95,26.18C1.04,36.62,0,47.78,0,59.37s1.04,22.75,2.95,33.19
	c2.17,11.81,11.41,21.05,23.22,23.22c10.44,1.92,21.6,2.95,33.19,2.95s22.75-1.04,33.19-2.95c11.81-2.17,21.05-11.41,23.22-23.22
	c1.92-10.44,2.95-21.6,2.95-33.19c0-11.61-1.04-22.78-2.96-33.23C113.61,14.35,104.39,5.13,92.6,2.96C82.15,1.04,70.98,0,59.37,0
	C47.78,0,36.62,1.04,26.18,2.95z"/>
<g>
	<path d="M69.52,47.89H44.36c-1.1,0-2,0.9-2,2v18.95c0,1.1,0.9,2,2,2h25.16c1.1,0,2-0.9,2-2V62.2l5.96,3.44
		c0.67,0.38,1.5-0.1,1.5-0.87V53.96c0-0.77-0.83-1.25-1.5-0.87l-5.96,3.44v-6.64C71.52,48.79,70.63,47.89,69.52,47.89z M64.72,64.05
		H49.16V54.7h15.56V64.05z"/>
	<path d="M74.16,31.66H44.58c-10.94,0-19.8,8.87-19.8,19.8v35.61h42.35h7.03c10.94,0,19.8-8.87,19.8-19.8v-7.03v-8.78
		C93.96,40.53,85.09,31.66,74.16,31.66z M87.13,67.28c0,7.17-5.81,12.97-12.97,12.97H31.61V51.47c0-7.17,5.81-12.97,12.97-12.97
		h29.57c7.17,0,12.97,5.81,12.97,12.97V67.28z"/>
</g>
</svg>
