<?xml version="1.0" encoding="utf-8"?>
<!-- Generator: Adobe Illustrator 26.3.1, SVG Export Plug-In . SVG Version: 6.00 Build 0)  -->
<svg version="1.1" id="Vrstva_1" xmlns="http://www.w3.org/2000/svg" xmlns:xlink="http://www.w3.org/1999/xlink" x="0px" y="0px"
	 viewBox="0 0 118.74 118.74" style="enable-background:new 0 0 118.74 118.74;" xml:space="preserve">
<style type="text/css">
	.st0{fill:url(#SVGID_1_);}
	.st1{fill:#0E101F;}
	.st2{fill:#FCD213;}
	.st3{fill:#010202;}
</style>
<g>
</g>
<path class="st2" d="M26.18,2.95C14.36,5.12,5.12,14.36,2.95,26.18C1.04,36.62,0,47.78,0,59.37s1.04,22.75,2.95,33.19
	c2.17,11.81,11.41,21.05,23.22,23.22c10.44,1.92,21.6,2.95,33.19,2.95s22.75-1.04,33.19-2.95c11.81-2.17,21.05-11.41,23.22-23.22
	c1.92-10.44,2.95-21.6,2.95-33.19c0-11.61-1.04-22.78-2.96-33.23C113.61,14.35,104.39,5.13,92.6,2.96C82.15,1.04,70.98,0,59.37,0
	C47.78,0,36.62,1.04,26.18,2.95z"/>
<g>
	<path d="M69.92,32.51H43.74c-3.56,0-6.45,2.89-6.45,6.45v40.83c0,3.56,2.89,6.45,6.45,6.45H75c3.56,0,6.45-2.89,6.45-6.45V44.04
		L69.92,32.51z M74.65,79.43H44.09V39.31h21.02v3.08c0,3.56,2.89,6.45,6.45,6.45h3.09V79.43z"/>
	<polygon points="48.39,68.18 48.39,75.28 65.8,75.28 53.55,63.02 	"/>
	<polygon points="61.76,65.99 70.1,74.33 70.1,68.39 64.73,63.02 	"/>
</g>
</svg>
