<?xml version="1.0" encoding="utf-8"?>
<!-- Generator: Adobe Illustrator 26.3.1, SVG Export Plug-In . SVG Version: 6.00 Build 0)  -->
<svg version="1.1" id="Vrstva_1" xmlns="http://www.w3.org/2000/svg" xmlns:xlink="http://www.w3.org/1999/xlink" x="0px" y="0px"
	 viewBox="0 0 118.74 118.74" style="enable-background:new 0 0 118.74 118.74;" xml:space="preserve">
<style type="text/css">
	.st0{fill:url(#SVGID_1_);}
	.st1{fill:#0E101F;}
	.st2{fill:#FCD213;}
	.st3{fill:#010202;}
</style>
<g>
</g>
<path class="st2" d="M26.18,2.95C14.36,5.12,5.12,14.36,2.95,26.18C1.04,36.62,0,47.78,0,59.37s1.04,22.75,2.95,33.19
	c2.17,11.81,11.41,21.05,23.22,23.22c10.44,1.92,21.6,2.95,33.19,2.95s22.75-1.04,33.19-2.95c11.81-2.17,21.05-11.41,23.22-23.22
	c1.92-10.44,2.95-21.6,2.95-33.19c0-11.61-1.04-22.78-2.96-33.23C113.61,14.35,104.39,5.13,92.6,2.96C82.15,1.04,70.98,0,59.37,0
	C47.78,0,36.62,1.04,26.18,2.95z"/>
<path d="M73.76,35.73H44.98c-8.81,0-15.95,7.14-15.95,15.95v31.33h44.72c8.81,0,15.95-7.14,15.95-15.95V51.68
	C89.71,42.87,82.57,35.73,73.76,35.73z M54.44,47.78c0-1.21,0.45-2.3,1.17-3.16c0.3-0.35,0.62-0.67,1-0.93
	c0.79-0.53,1.74-0.84,2.76-0.84c1.02,0,1.97,0.31,2.76,0.84c0.26,0.18,0.51,0.38,0.73,0.6c0.89,0.89,1.44,2.13,1.44,3.49v5.41
	c0,1.52-0.7,2.86-1.77,3.76c-0.86,0.72-1.95,1.17-3.16,1.17h0c-1.36,0-2.6-0.55-3.49-1.44s-1.44-2.13-1.44-3.49V47.78z M61.62,67.28
	v4.36h3.58v4.5H53.54v-4.5h3.58v-4.36c-6.79-1.08-12-6.96-12-14.05h4.5c0,5.38,4.37,9.75,9.75,9.75s9.75-4.37,9.75-9.75h4.5
	C73.62,60.31,68.41,66.19,61.62,67.28z"/>
</svg>
