<?xml version="1.0" encoding="utf-8"?>
<!-- Generator: Adobe Illustrator 26.3.1, SVG Export Plug-In . SVG Version: 6.00 Build 0)  -->
<svg version="1.1" id="Vrstva_1" xmlns="http://www.w3.org/2000/svg" xmlns:xlink="http://www.w3.org/1999/xlink" x="0px" y="0px"
	 viewBox="0 0 118.74 118.74" style="enable-background:new 0 0 118.74 118.74;" xml:space="preserve">
<style type="text/css">
	.st0{fill:url(#SVGID_1_);}
	.st1{fill:#0E101F;}
	.st2{fill:#FCD213;}
	.st3{fill:#010202;}
</style>
<g>
</g>
<path class="st2" d="M26.18,2.95C14.36,5.12,5.12,14.36,2.95,26.18C1.04,36.62,0,47.78,0,59.37s1.04,22.75,2.95,33.19
	c2.17,11.81,11.41,21.05,23.22,23.22c10.44,1.92,21.6,2.95,33.19,2.95s22.75-1.04,33.19-2.95c11.81-2.17,21.05-11.41,23.22-23.22
	c1.92-10.44,2.95-21.6,2.95-33.19c0-11.61-1.04-22.78-2.96-33.23C113.61,14.35,104.39,5.13,92.6,2.96C82.15,1.04,70.98,0,59.37,0
	C47.78,0,36.62,1.04,26.18,2.95z"/>
<path d="M58.95,82.27c-0.7,0-1.4-0.22-1.99-0.65L30,62.13c-0.88-0.64-1.41-1.66-1.41-2.75s0.52-2.12,1.41-2.75l26.96-19.5
	c1.04-0.75,2.4-0.86,3.54-0.27c1.14,0.58,1.85,1.75,1.85,3.03v7.14c10.55,2.22,26.7,10.57,27.8,30.43c0.07,1.29-0.59,2.5-1.71,3.14
	c-1.12,0.64-2.51,0.59-3.58-0.13c-6.15-4.12-16.76-6.87-22.51-8.13v6.54c0,1.28-0.72,2.45-1.85,3.03
	C60.01,82.14,59.48,82.27,58.95,82.27z M37.79,59.37l17.76,12.84v-4.04c0-1,0.44-1.95,1.21-2.6c0.77-0.65,1.78-0.92,2.77-0.75
	c0.63,0.11,12.86,2.24,22.74,6.57C77.5,55.58,59.43,53.38,58.57,53.28c-1.72-0.19-3.02-1.65-3.02-3.38v-3.37L37.79,59.37z"/>
</svg>
