<?xml version="1.0" encoding="utf-8"?>
<!-- Generator: Adobe Illustrator 26.3.1, SVG Export Plug-In . SVG Version: 6.00 Build 0)  -->
<svg version="1.1" id="Vrstva_1" xmlns="http://www.w3.org/2000/svg" xmlns:xlink="http://www.w3.org/1999/xlink" x="0px" y="0px"
	 viewBox="0 0 118.74 118.74" style="enable-background:new 0 0 118.74 118.74;" xml:space="preserve">
<style type="text/css">
	.st0{fill:url(#SVGID_1_);}
	.st1{fill:#0E101F;}
	.st2{fill:#FCD213;}
	.st3{fill:#010202;}
</style>
<g>
</g>
<path class="st2" d="M26.18,2.95C14.36,5.12,5.12,14.36,2.95,26.18C1.04,36.62,0,47.78,0,59.37s1.04,22.75,2.95,33.19
	c2.17,11.81,11.41,21.05,23.22,23.22c10.44,1.92,21.6,2.95,33.19,2.95s22.75-1.04,33.19-2.95c11.81-2.17,21.05-11.41,23.22-23.22
	c1.92-10.44,2.95-21.6,2.95-33.19c0-11.61-1.04-22.78-2.96-33.23C113.61,14.35,104.39,5.13,92.6,2.96C82.15,1.04,70.98,0,59.37,0
	C47.78,0,36.62,1.04,26.18,2.95z"/>
<g>
	<path d="M59.37,99.37l-0.15,0l-0.19,0c-21.36,0-34.42-2.85-34.54-2.88l-1.78-0.41l-0.44-1.78c-0.03-0.12-2.89-12.91-2.89-34.6
		c0-0.12,0-0.23,0.01-0.34h-0.01c0-4.78,0.27-9.6,0.8-14.34c1.49-13.14,11.72-23.36,24.86-24.85l0.18-0.02
		c9.39-1.06,18.91-1.06,28.3,0l0.18,0.02c13.14,1.49,23.37,11.7,24.86,24.85l0,0c1.07,9.39,1.07,18.91,0.02,28.3l-0.04,0.34
		c-1.48,13.16-11.7,23.39-24.87,24.88l-0.17,0.02C68.84,99.1,64.08,99.37,59.37,99.37z M27.7,91.04c4.24,0.74,15.37,2.37,31.33,2.37
		l0.11,0l0.15,0c0.01,0,0.01,0,0.02,0c4.56,0,9.09-0.26,13.54-0.76l0.17-0.02c10.37-1.17,18.43-9.24,19.6-19.62l0.04-0.34
		c1.01-8.95,1-18.02-0.02-26.96l0,0c-1.18-10.37-9.24-18.42-19.61-19.6l-0.18-0.02c-8.95-1.01-18.02-1.01-26.96,0l-0.18,0.02
		c-10.37,1.17-18.43,9.23-19.61,19.6c-0.51,4.51-0.77,9.11-0.77,13.66l0,1.37C25.4,76.14,26.97,86.88,27.7,91.04z"/>
	<path d="M64.34,48.38v2.4H64c-0.48-0.48-0.96-0.96-1.58-1.37c-1.03-0.75-2.47-1.37-4.59-1.37c-6.24,0-11.31,5.21-11.31,12.68
		s5.07,12.68,11.31,12.68c2.95,0,4.8-1.1,6.1-2.19c0.75-0.62,1.3-1.37,1.78-2.26h0.34c0.41,0.89,1.03,1.64,1.78,2.26
		c1.3,1.1,3.36,2.19,6.44,2.19c6.85,0,11.99-5.14,11.99-14.39c0-13.98-11.65-25.7-27.07-25.7c-14.39,0-26.73,12.34-26.73,27.07
		S44.81,87.44,59.2,87.44c5.21,0,9.18-1.44,11.93-2.88c1.58-0.82,3.02-1.78,4.18-2.95l-3.77-4.8c-0.89,0.75-1.99,1.44-3.22,2.06
		c-2.12,1.03-5.21,2.06-9.12,2.06c-10.97,0-19.88-8.91-19.88-20.56c0-11.65,8.91-20.56,19.88-20.56c11.72,0,20.22,8.57,20.22,19.19
		c0,6.24-2.06,8.22-4.8,8.22c-2.12,0-3.77-1.71-3.77-4.11V48.38H64.34z M58.86,66.88c-3.08,0-5.48-2.33-5.48-6.17
		c0-3.84,2.4-6.17,5.48-6.17c3.02,0,5.48,2.33,5.48,6.17C64.34,64.55,61.94,66.88,58.86,66.88z"/>
</g>
</svg>
