<?xml version="1.0" encoding="utf-8"?>
<!-- Generator: Adobe Illustrator 26.3.1, SVG Export Plug-In . SVG Version: 6.00 Build 0)  -->
<svg version="1.1" id="Vrstva_1" xmlns="http://www.w3.org/2000/svg" xmlns:xlink="http://www.w3.org/1999/xlink" x="0px" y="0px"
	 viewBox="0 0 118.74 118.74" style="enable-background:new 0 0 118.74 118.74;" xml:space="preserve">
<style type="text/css">
	.st0{fill:url(#SVGID_1_);}
	.st1{fill:#0E101F;}
	.st2{fill:#FCD213;}
	.st3{fill:#010202;}
</style>
<g>
</g>
<path class="st2" d="M26.18,2.95C14.36,5.12,5.12,14.36,2.95,26.18C1.04,36.62,0,47.78,0,59.37s1.04,22.75,2.95,33.19
	c2.17,11.81,11.41,21.05,23.22,23.22c10.44,1.92,21.6,2.95,33.19,2.95s22.75-1.04,33.19-2.95c11.81-2.17,21.05-11.41,23.22-23.22
	c1.92-10.44,2.95-21.6,2.95-33.19c0-11.61-1.04-22.78-2.96-33.23C113.61,14.35,104.39,5.13,92.6,2.96C82.15,1.04,70.98,0,59.37,0
	C47.78,0,36.62,1.04,26.18,2.95z"/>
<g>
	<path d="M96.58,45.35c-1.33-11.7-10.56-20.93-22.26-22.25l-0.18-0.02c-4.6-0.52-9.21-0.78-13.83-0.78s-9.24,0.26-13.83,0.78
		l-0.18,0.02c-11.7,1.32-20.93,10.55-22.26,22.25c-1.05,9.19-1.05,18.47-0.02,27.67l0.04,0.34c0.21,1.85,0.62,3.64,1.2,5.35
		c1.98,8.42-0.43,12.97-3.88,17.73c12.29,0,39.98-0.01,39.98-0.01c4.27-0.04,8.54-0.29,12.79-0.77l0.16-0.02
		c11.71-1.32,20.95-10.57,22.27-22.28l0.04-0.34C97.63,63.83,97.63,54.55,96.58,45.35z M89.85,72.27l-0.04,0.33
		c-0.97,8.61-7.66,15.31-16.29,16.29l-0.15,0.02c-3.97,0.45-8.03,0.69-12.06,0.73c-0.75,0-16.36,0-29.13,0.01
		c0.77-3.44,0.85-7.5-0.32-12.49l-0.08-0.32l-0.11-0.32c-0.43-1.26-0.73-2.58-0.88-3.92l-0.04-0.33
		c-0.98-8.68-0.97-17.47,0.02-26.14c0.98-8.6,7.67-15.29,16.27-16.26l0.18-0.02c4.32-0.49,8.72-0.74,13.07-0.74
		c4.35,0,8.75,0.25,13.07,0.74l0.18,0.02c8.6,0.97,15.3,7.66,16.27,16.26C90.82,54.79,90.82,63.59,89.85,72.27z"/>
	<path d="M59.67,38.93c-10.87,0-20.18,9.31-20.18,20.44s9.31,20.44,20.18,20.44c3.93,0,6.93-1.09,9-2.17
		c1.19-0.62,2.28-1.35,3.16-2.22l-2.85-3.62c-0.67,0.57-1.5,1.09-2.43,1.55c-1.6,0.78-3.93,1.55-6.88,1.55
		c-8.28,0-15.01-6.73-15.01-15.52s6.73-15.52,15.01-15.52c8.85,0,15.26,6.47,15.26,14.49c0,4.71-1.55,6.21-3.62,6.21
		c-1.6,0-2.85-1.29-2.85-3.1V50.32h-4.92v1.81H63.3c-0.36-0.36-0.72-0.72-1.19-1.03c-0.78-0.57-1.86-1.03-3.47-1.03
		c-4.71,0-8.54,3.93-8.54,9.57c0,5.64,3.83,9.57,8.54,9.57c2.22,0,3.62-0.83,4.6-1.66c0.57-0.47,0.98-1.03,1.35-1.71h0.26
		c0.31,0.67,0.78,1.24,1.35,1.71c0.98,0.83,2.54,1.66,4.86,1.66c5.17,0,9.05-3.88,9.05-10.87C80.11,47.78,71.31,38.93,59.67,38.93z
		 M59.42,64.29c-2.33,0-4.14-1.76-4.14-4.66s1.81-4.66,4.14-4.66c2.28,0,4.14,1.76,4.14,4.66S61.74,64.29,59.42,64.29z"/>
</g>
</svg>
