<?xml version="1.0" encoding="utf-8"?>
<!-- Generator: Adobe Illustrator 26.3.1, SVG Export Plug-In . SVG Version: 6.00 Build 0)  -->
<svg version="1.1" id="Vrstva_1" xmlns="http://www.w3.org/2000/svg" xmlns:xlink="http://www.w3.org/1999/xlink" x="0px" y="0px"
	 viewBox="0 0 118.74 118.74" style="enable-background:new 0 0 118.74 118.74;" xml:space="preserve">
<style type="text/css">
	.st0{fill:url(#SVGID_1_);}
	.st1{fill:#0E101F;}
	.st2{fill:#FCD213;}
	.st3{fill:#010202;}
</style>
<g>
</g>
<path class="st2" d="M26.18,2.95C14.36,5.12,5.12,14.36,2.95,26.18C1.04,36.62,0,47.78,0,59.37s1.04,22.75,2.95,33.19
	c2.17,11.81,11.41,21.05,23.22,23.22c10.44,1.92,21.6,2.95,33.19,2.95s22.75-1.04,33.19-2.95c11.81-2.17,21.05-11.41,23.22-23.22
	c1.92-10.44,2.95-21.6,2.95-33.19c0-11.61-1.04-22.78-2.96-33.23C113.61,14.35,104.39,5.13,92.6,2.96C82.15,1.04,70.98,0,59.37,0
	C47.78,0,36.62,1.04,26.18,2.95z"/>
<path d="M71.51,62.81c4.55-3.64,7.46-9.23,7.46-15.5c0-10.94-8.9-19.84-19.84-19.84c-10.94,0-19.84,8.9-19.84,19.84
	c0,6.34,2.99,12,7.64,15.63c-10.88,4.8-18.5,15.69-18.5,28.33h6.83c0-13.3,10.82-24.12,24.12-24.12s24.12,10.82,24.12,24.12h6.83
	C90.32,78.51,82.56,67.53,71.51,62.81z M59.13,34.29c7.18,0,13.02,5.84,13.02,13.02S66.3,60.33,59.13,60.33s-13.02-5.84-13.02-13.02
	S51.95,34.29,59.13,34.29z"/>
</svg>
