<?xml version="1.0" encoding="utf-8"?>
<!-- Generator: Adobe Illustrator 26.3.1, SVG Export Plug-In . SVG Version: 6.00 Build 0)  -->
<svg version="1.1" id="Vrstva_1" xmlns="http://www.w3.org/2000/svg" xmlns:xlink="http://www.w3.org/1999/xlink" x="0px" y="0px"
	 viewBox="0 0 118.74 118.74" style="enable-background:new 0 0 118.74 118.74;" xml:space="preserve">
<style type="text/css">
	.st0{fill:url(#SVGID_1_);}
	.st1{fill:#0E101F;}
	.st2{fill:#FCD213;}
	.st3{fill:#010202;}
</style>
<g>
</g>
<path class="st2" d="M26.18,2.95C14.36,5.12,5.12,14.36,2.95,26.18C1.04,36.62,0,47.78,0,59.37s1.04,22.75,2.95,33.19
	c2.17,11.81,11.41,21.05,23.22,23.22c10.44,1.92,21.6,2.95,33.19,2.95s22.75-1.04,33.19-2.95c11.81-2.17,21.05-11.41,23.22-23.22
	c1.92-10.44,2.95-21.6,2.95-33.19c0-11.61-1.04-22.78-2.96-33.23C113.61,14.35,104.39,5.13,92.6,2.96C82.15,1.04,70.98,0,59.37,0
	C47.78,0,36.62,1.04,26.18,2.95z"/>
<g>
	<path d="M81.24,31.11c-5.84-5.84-13.6-9.05-21.86-9.05s-16.02,3.21-21.86,9.05c-5.84,5.84-9.05,13.6-9.05,21.86
		c0,8.26,3.22,16.02,9.05,21.86l21.86,21.86l21.86-21.86C93.29,62.77,93.29,43.16,81.24,31.11z M76.43,70.02L59.38,87.07
		L42.33,70.02c-9.4-9.4-9.4-24.7,0-34.1c4.7-4.7,10.88-7.05,17.05-7.05c6.17,0,12.35,2.35,17.05,7.05
		c4.55,4.55,7.06,10.61,7.06,17.05C83.49,59.41,80.98,65.46,76.43,70.02z"/>
	<path d="M59.38,47.73c-2.89,0-5.24,2.34-5.24,5.24s2.34,5.24,5.24,5.24s5.24-2.34,5.24-5.24S62.27,47.73,59.38,47.73z"/>
</g>
</svg>
