<?xml version="1.0" encoding="utf-8"?>
<!-- Generator: Adobe Illustrator 26.3.1, SVG Export Plug-In . SVG Version: 6.00 Build 0)  -->
<svg version="1.1" id="Vrstva_1" xmlns="http://www.w3.org/2000/svg" xmlns:xlink="http://www.w3.org/1999/xlink" x="0px" y="0px"
	 viewBox="0 0 118.74 118.74" style="enable-background:new 0 0 118.74 118.74;" xml:space="preserve">
<style type="text/css">
	.st0{fill:url(#SVGID_1_);}
	.st1{fill:#0E101F;}
	.st2{fill:#FCD213;}
	.st3{fill:#010202;}
</style>
<g>
</g>
<path class="st2" d="M26.18,2.95C14.36,5.12,5.12,14.36,2.95,26.18C1.04,36.62,0,47.78,0,59.37s1.04,22.75,2.95,33.19
	c2.17,11.81,11.41,21.05,23.22,23.22c10.44,1.92,21.6,2.95,33.19,2.95s22.75-1.04,33.19-2.95c11.81-2.17,21.05-11.41,23.22-23.22
	c1.92-10.44,2.95-21.6,2.95-33.19c0-11.61-1.04-22.78-2.96-33.23C113.61,14.35,104.39,5.13,92.6,2.96C82.15,1.04,70.98,0,59.37,0
	C47.78,0,36.62,1.04,26.18,2.95z"/>
<g>
	<circle cx="79.01" cy="37.85" r="5.24"/>
	<path d="M79.02,52.68c2.84,0,5.15,2.31,5.15,5.15h6.83c0-6.6-5.37-11.98-11.98-11.98c-6.6,0-11.98,5.37-11.98,11.98h6.83
		C73.87,54.99,76.18,52.68,79.02,52.68z"/>
	<path d="M55.54,59.85c3.22-2.3,5.32-6.07,5.32-10.32c0-6.99-5.69-12.68-12.68-12.68s-12.68,5.69-12.68,12.68
		c0,4.25,2.1,8.01,5.31,10.31c-7.63,2.96-13.05,10.38-13.05,19.04h6.83c0-7.49,6.1-13.59,13.59-13.59c4.02,0,7.64,1.76,10.13,4.54
		h8.17C64.21,65.29,60.3,61.7,55.54,59.85z M48.17,43.68c3.23,0,5.86,2.63,5.86,5.86c0,3.23-2.63,5.86-5.86,5.86
		c-3.23,0-5.86-2.63-5.86-5.86C42.31,46.3,44.94,43.68,48.17,43.68z"/>
	<polygon points="68.84,69.82 68.84,76.59 75.6,72.65 75.6,79.3 66.52,79.3 66.52,86.13 82.43,86.13 82.43,72.65 89.19,76.59 
		89.19,69.82 79.01,63.88 	"/>
</g>
</svg>
