<?xml version="1.0" encoding="utf-8"?>
<!-- Generator: Adobe Illustrator 26.3.1, SVG Export Plug-In . SVG Version: 6.00 Build 0)  -->
<svg version="1.1" id="Vrstva_1" xmlns="http://www.w3.org/2000/svg" xmlns:xlink="http://www.w3.org/1999/xlink" x="0px" y="0px"
	 viewBox="0 0 118.74 118.74" style="enable-background:new 0 0 118.74 118.74;" xml:space="preserve">
<style type="text/css">
	.st0{fill:url(#SVGID_1_);}
	.st1{fill:#0E101F;}
	.st2{fill:#FCD213;}
	.st3{fill:#010202;}
</style>
<g>
</g>
<path class="st2" d="M26.18,2.95C14.36,5.12,5.12,14.36,2.95,26.18C1.04,36.62,0,47.78,0,59.37s1.04,22.75,2.95,33.19
	c2.17,11.81,11.41,21.05,23.22,23.22c10.44,1.92,21.6,2.95,33.19,2.95s22.75-1.04,33.19-2.95c11.81-2.17,21.05-11.41,23.22-23.22
	c1.92-10.44,2.95-21.6,2.95-33.19c0-11.61-1.04-22.78-2.96-33.23C113.61,14.35,104.39,5.13,92.6,2.96C82.15,1.04,70.98,0,59.37,0
	C47.78,0,36.62,1.04,26.18,2.95z"/>
<g>
	<path d="M59.37,57.13c2.72,0,4.93-2.21,4.93-4.93v-5.41c0-2.72-2.21-4.93-4.93-4.93c-2.72,0-4.93,2.21-4.93,4.93v5.41
		C54.44,54.92,56.65,57.13,59.37,57.13z"/>
	<path d="M59.37,60.82c-4.74,0-8.6-3.86-8.6-8.6h-6.8c0,7.32,5.14,13.46,12,15.01v2.25h-2.43v6.8H65.2v-6.8h-2.43v-2.25
		c6.86-1.55,12-7.69,12-15.01h-6.8C67.97,56.97,64.11,60.82,59.37,60.82z"/>
	<path d="M74.16,31.66H44.58c-10.94,0-19.8,8.87-19.8,19.8v35.61h42.35h7.03c10.94,0,19.8-8.87,19.8-19.8v-7.03v-8.78
		C93.96,40.53,85.09,31.66,74.16,31.66z M87.13,67.28c0,7.17-5.81,12.97-12.97,12.97H31.61V51.46c0-7.17,5.81-12.97,12.97-12.97
		h29.57c7.17,0,12.97,5.81,12.97,12.97V67.28z"/>
</g>
</svg>
