<?xml version="1.0" encoding="utf-8"?>
<!-- Generator: Adobe Illustrator 26.3.1, SVG Export Plug-In . SVG Version: 6.00 Build 0)  -->
<svg version="1.1" id="Vrstva_1" xmlns="http://www.w3.org/2000/svg" xmlns:xlink="http://www.w3.org/1999/xlink" x="0px" y="0px"
	 viewBox="0 0 118.74 118.74" style="enable-background:new 0 0 118.74 118.74;" xml:space="preserve">
<style type="text/css">
	.st0{fill:url(#SVGID_1_);}
	.st1{fill:#0E101F;}
	.st2{fill:#FCD213;}
	.st3{fill:#010202;}
</style>
<g>
</g>
<g>
	<polygon class="st2" points="53.41,64.85 53.46,64.85 53.46,64.9 61.77,64.9 78.51,48.15 70.15,39.8 53.41,56.54 	"/>
	<path class="st2" d="M84.56,42.11c1.27-1.27,1.27-3.34,0-4.62l-3.74-3.74c-0.62-0.62-1.44-0.96-2.31-0.96c-0.87,0-1.69,0.34-2.31,0.96
		l-3.83,3.83l8.36,8.36L84.56,42.11z"/>
	<path class="st2" d="M92.86,45.02l-5.77,5.77c0.01,0.23,0.03,0.45,0.03,0.67v15.81c0,7.17-5.81,12.97-12.97,12.97H31.61V51.46
		c0-7.17,5.81-12.97,12.97-12.97h13.17l6.83-6.83H44.58c-10.94,0-19.8,8.87-19.8,19.8v35.61h42.35h7.03c10.94,0,19.8-8.87,19.8-19.8
		v-7.03v-8.78C93.96,49.21,93.56,47.04,92.86,45.02z"/>
</g>
</svg>
