<?xml version="1.0" encoding="utf-8"?>
<!-- Generator: Adobe Illustrator 26.3.1, SVG Export Plug-In . SVG Version: 6.00 Build 0)  -->
<svg version="1.1" id="Vrstva_1" xmlns="http://www.w3.org/2000/svg" xmlns:xlink="http://www.w3.org/1999/xlink" x="0px" y="0px"
	 viewBox="0 0 118.74 118.74" style="enable-background:new 0 0 118.74 118.74;" xml:space="preserve">
<style type="text/css">
	.st0{fill:url(#SVGID_1_);}
	.st1{fill:#0E101F;}
	.st2{fill:#FCD213;}
	.st3{fill:#010202;}
</style>
<g>
</g>
<path class="st2" d="M26.18,2.95C14.36,5.12,5.12,14.36,2.95,26.18C1.04,36.62,0,47.78,0,59.37s1.04,22.75,2.95,33.19
	c2.17,11.81,11.41,21.05,23.22,23.22c10.44,1.92,21.6,2.95,33.19,2.95s22.75-1.04,33.19-2.95c11.81-2.17,21.05-11.41,23.22-23.22
	c1.92-10.44,2.95-21.6,2.95-33.19c0-11.61-1.04-22.78-2.96-33.23C113.61,14.35,104.39,5.13,92.6,2.96C82.15,1.04,70.98,0,59.37,0
	C47.78,0,36.62,1.04,26.18,2.95z"/>
<g>
	<path d="M85.26,80.45L73.38,68.57c2.67-3.65,4.26-8.15,4.26-13.01c0-12.17-9.9-22.08-22.08-22.08c-12.17,0-22.08,9.91-22.08,22.08
		c0,12.18,9.91,22.08,22.08,22.08c4.86,0,9.36-1.58,13.01-4.26l11.88,11.88L85.26,80.45z M55.56,70.84
		c-8.43,0-15.28-6.85-15.28-15.28c0-8.42,6.85-15.28,15.28-15.28s15.28,6.85,15.28,15.28C70.84,63.99,63.99,70.84,55.56,70.84z"/>
	<path d="M50.06,55.56h-6.8c0,6.78,5.52,12.3,12.3,12.3v-6.8C52.53,61.06,50.06,58.59,50.06,55.56z"/>
</g>
</svg>
