<?xml version="1.0" encoding="utf-8"?>
<!-- Generator: Adobe Illustrator 26.3.1, SVG Export Plug-In . SVG Version: 6.00 Build 0)  -->
<svg version="1.1" id="Vrstva_1" xmlns="http://www.w3.org/2000/svg" xmlns:xlink="http://www.w3.org/1999/xlink" x="0px" y="0px"
	 viewBox="0 0 118.74 118.74" style="enable-background:new 0 0 118.74 118.74;" xml:space="preserve">
<style type="text/css">
	.st0{fill:url(#SVGID_1_);}
	.st1{fill:#0E101F;}
	.st2{fill:#FCD213;}
	.st3{fill:#010202;}
</style>
<g>
</g>
<path class="st2" d="M26.18,2.95C14.36,5.12,5.12,14.36,2.95,26.18C1.04,36.62,0,47.78,0,59.37s1.04,22.75,2.95,33.19
	c2.17,11.81,11.41,21.05,23.22,23.22c10.44,1.92,21.6,2.95,33.19,2.95s22.75-1.04,33.19-2.95c11.81-2.17,21.05-11.41,23.22-23.22
	c1.92-10.44,2.95-21.6,2.95-33.19c0-11.61-1.04-22.78-2.96-33.23C113.61,14.35,104.39,5.13,92.6,2.96C82.15,1.04,70.98,0,59.37,0
	C47.78,0,36.62,1.04,26.18,2.95z"/>
<g>
	<path d="M83.54,31.73H76.9v-6.22h-6.8v6.22H48.65v-6.22h-6.8v6.22H35.2c-4.09,0-7.42,3.33-7.42,7.42v46.67
		c0,4.09,3.33,7.42,7.42,7.42h48.34c4.09,0,7.42-3.33,7.42-7.42V39.14C90.96,35.05,87.63,31.73,83.54,31.73z M84.16,85.81
		c0,0.34-0.28,0.62-0.62,0.62H35.2c-0.34,0-0.62-0.28-0.62-0.62V39.14c0-0.34,0.28-0.62,0.62-0.62h48.34c0.34,0,0.62,0.28,0.62,0.62
		V85.81z"/>
	<rect x="55.06" y="44.19" width="8.63" height="8.63"/>
	<rect x="69.66" y="44.19" width="8.63" height="8.63"/>
	<rect x="40.46" y="58.17" width="8.63" height="8.63"/>
	<rect x="55.06" y="58.17" width="8.63" height="8.63"/>
	<rect x="69.66" y="58.17" width="8.63" height="8.63"/>
	<rect x="40.46" y="72.14" width="8.63" height="8.63"/>
	<rect x="55.06" y="72.14" width="8.63" height="8.63"/>
</g>
</svg>
