<?xml version="1.0" encoding="utf-8"?>
<!-- Generator: Adobe Illustrator 26.3.1, SVG Export Plug-In . SVG Version: 6.00 Build 0)  -->
<svg version="1.1" id="Vrstva_1" xmlns="http://www.w3.org/2000/svg" xmlns:xlink="http://www.w3.org/1999/xlink" x="0px" y="0px"
     viewBox="0 0 118.74 118.74" style="enable-background:new 0 0 118.74 118.74;" xml:space="preserve">
<style type="text/css">
	.st0{fill:url(#SVGID_1_);}
	.st1{fill:#FCD213;}
	.st2{fill:#FCD213;}
	.st3{fill:#FCD213;}
</style>
    <g>
</g>
    <g>
	<path class="st2" d="M36.9,68.36c4.28,0,7.75-3.47,7.75-7.75s-3.47-7.75-7.75-7.75s-7.75,3.47-7.75,7.75S32.61,68.36,36.9,68.36z"/>
        <path class="st2" d="M36.9,72.47c-9.78,0-17.73,7.96-17.73,17.73h10.11c0-4.2,3.42-7.62,7.62-7.62c4.2,0,7.62,3.42,7.62,7.62h10.11
		C54.63,80.43,46.67,72.47,36.9,72.47z"/>
        <path class="st2" d="M74.09,60.61c0,4.28,3.47,7.75,7.75,7.75s7.75-3.47,7.75-7.75s-3.47-7.75-7.75-7.75S74.09,56.33,74.09,60.61z"/>
        <path class="st2" d="M81.85,72.47c-9.78,0-17.73,7.96-17.73,17.73h10.11c0-4.2,3.42-7.62,7.62-7.62c4.2,0,7.62,3.42,7.62,7.62h10.11
		C99.58,80.43,91.62,72.47,81.85,72.47z"/>
        <g>
		<path class="st2" d="M61.09,34.09v-5.56h-9c-2.12,0-3.84,1.72-3.84,3.84v20.26c0,2.12,1.72,3.84,3.84,3.84h14.56c2.12,0,3.84-1.72,3.84-3.84
			v-14.7h-5.56C62.81,37.93,61.09,36.21,61.09,34.09z"/>
            <polygon class="st2" points="63.77,28.68 63.77,35.25 70.34,35.25 		"/>
	</g>
</g>
</svg>
