<?xml version="1.0" encoding="utf-8"?>
<!-- Generator: Adobe Illustrator 26.3.1, SVG Export Plug-In . SVG Version: 6.00 Build 0)  -->
<svg version="1.1" id="Vrstva_1" xmlns="http://www.w3.org/2000/svg" xmlns:xlink="http://www.w3.org/1999/xlink" x="0px" y="0px"
	 viewBox="0 0 118.74 118.74" style="enable-background:new 0 0 118.74 118.74;" xml:space="preserve">
<style type="text/css">
	.st0{fill:url(#SVGID_1_);}
	.st1{fill:#0E101F;}
	.st2{fill:#FCD213;}
	.st3{fill:#010202;}
</style>
<g>
</g>
<path class="st2" d="M26.18,2.95C14.36,5.12,5.12,14.36,2.95,26.18C1.04,36.62,0,47.78,0,59.37s1.04,22.75,2.95,33.19
	c2.17,11.81,11.41,21.05,23.22,23.22c10.44,1.92,21.6,2.95,33.19,2.95s22.75-1.04,33.19-2.95c11.81-2.17,21.05-11.41,23.22-23.22
	c1.92-10.44,2.95-21.6,2.95-33.19c0-11.61-1.04-22.78-2.96-33.23C113.61,14.35,104.39,5.13,92.6,2.96C82.15,1.04,70.98,0,59.37,0
	C47.78,0,36.62,1.04,26.18,2.95z"/>
<g>
	<circle cx="61.1" cy="51.4" r="5.24"/>
	<path d="M69.98,25.91H52.22c-9.63,0-17.67,6.91-19.44,16.03h-3.82v6.83H39.2v-3.06h0.04c0-7.15,5.82-12.97,12.97-12.97h17.76
		c7.15,0,12.97,5.82,12.97,12.97v27.31c0,7.15-5.82,12.97-12.97,12.97H52.22c-7.15,0-12.97-5.82-12.97-12.97H39.2v-3.08H28.96v6.83
		h3.81c1.76,9.13,9.81,16.06,19.44,16.06h17.76c10.92,0,19.8-8.88,19.8-19.8V45.72C89.78,34.8,80.9,25.91,69.98,25.91z"/>
	<rect x="28.96" y="55.96" width="10.24" height="6.83"/>
	<path d="M49.12,71.39h6.83c0-2.84,2.31-5.15,5.15-5.15c2.84,0,5.15,2.31,5.15,5.15h6.83c0-6.6-5.37-11.98-11.98-11.98
		S49.12,64.78,49.12,71.39z"/>
</g>
</svg>
