<?xml version="1.0" encoding="utf-8"?>
<!-- Generator: Adobe Illustrator 26.3.1, SVG Export Plug-In . SVG Version: 6.00 Build 0)  -->
<svg version="1.1" id="Vrstva_1" xmlns="http://www.w3.org/2000/svg" xmlns:xlink="http://www.w3.org/1999/xlink" x="0px" y="0px"
	 viewBox="0 0 118.74 118.74" style="enable-background:new 0 0 118.74 118.74;" xml:space="preserve">
<style type="text/css">
	.st0{fill:url(#SVGID_1_);}
	.st1{fill:#0E101F;}
	.st2{fill:#FCD213;}
	.st3{fill:#010202;}
</style>
<g>
</g>
<path class="st2" d="M26.18,2.95C14.36,5.12,5.12,14.36,2.95,26.18C1.04,36.62,0,47.78,0,59.37s1.04,22.75,2.95,33.19
	c2.17,11.81,11.41,21.05,23.22,23.22c10.44,1.92,21.6,2.95,33.19,2.95s22.75-1.04,33.19-2.95c11.81-2.17,21.05-11.41,23.22-23.22
	c1.92-10.44,2.95-21.6,2.95-33.19c0-11.61-1.04-22.78-2.96-33.23C113.61,14.35,104.39,5.13,92.6,2.96C82.15,1.04,70.98,0,59.37,0
	C47.78,0,36.62,1.04,26.18,2.95z"/>
<g>
	<path d="M86.11,28.81H32.63c-3.98,0-7.21,3.24-7.21,7.21v37.84c0,3.98,3.24,7.21,7.21,7.21h23.34v2.07h-8.32v6.8h23.44v-6.8h-8.32
		v-2.07h23.34c3.98,0,7.21-3.24,7.21-7.21V36.02C93.33,32.04,90.09,28.81,86.11,28.81z M86.53,73.86c0,0.23-0.19,0.41-0.41,0.41
		H32.63c-0.23,0-0.41-0.18-0.41-0.41V36.02c0-0.23,0.18-0.41,0.41-0.41h53.49c0.23,0,0.41,0.18,0.41,0.41V73.86z"/>
	<circle cx="47.66" cy="51.43" r="6.05"/>
	<path d="M47.66,58.6c-5.47,0-9.9,4.43-9.9,9.9h19.8C57.56,63.03,53.13,58.6,47.66,58.6z"/>
	<path d="M71.08,57.48c3.34,0,6.05-2.71,6.05-6.05s-2.71-6.05-6.05-6.05c-3.34,0-6.05,2.71-6.05,6.05S67.74,57.48,71.08,57.48z"/>
	<path d="M71.08,58.6c-5.47,0-9.9,4.43-9.9,9.9h19.8C80.98,63.03,76.55,58.6,71.08,58.6z"/>
</g>
</svg>
