<?xml version="1.0" encoding="utf-8"?>
<!-- Generator: Adobe Illustrator 26.3.1, SVG Export Plug-In . SVG Version: 6.00 Build 0)  -->
<svg version="1.1" id="Vrstva_1" xmlns="http://www.w3.org/2000/svg" xmlns:xlink="http://www.w3.org/1999/xlink" x="0px" y="0px"
	 viewBox="0 0 118.74 118.74" style="enable-background:new 0 0 118.74 118.74;" xml:space="preserve">
<style type="text/css">
	.st0{fill:url(#SVGID_1_);}
	.st1{fill:#0E101F;}
	.st2{fill:#FCD213;}
	.st3{fill:#010202;}
</style>
<g>
</g>
<path class="st2" d="M26.18,2.95C14.36,5.12,5.12,14.36,2.95,26.18C1.04,36.62,0,47.78,0,59.37s1.04,22.75,2.95,33.19
	c2.17,11.81,11.41,21.05,23.22,23.22c10.44,1.92,21.6,2.95,33.19,2.95s22.75-1.04,33.19-2.95c11.81-2.17,21.05-11.41,23.22-23.22
	c1.92-10.44,2.95-21.6,2.95-33.19c0-11.61-1.04-22.78-2.96-33.23C113.61,14.35,104.39,5.13,92.6,2.96C82.15,1.04,70.98,0,59.37,0
	C47.78,0,36.62,1.04,26.18,2.95z"/>
<g>
	<path d="M39.85,43.37c0-3.87,1.27-7.45,3.41-10.33c-5.6,3.09-9.55,8.81-10.18,15.49h6.76V43.37z"/>
	<path d="M66.78,24.28c-11.48,0-20.82,9.34-20.82,20.82v3.49h21.96c9.85,0,17.86-8.01,17.86-17.86v-6.44H66.78z M67.93,41.61H53.39
		c1.55-5.95,6.97-10.35,13.4-10.35H78.8C78.52,37.01,73.75,41.61,67.93,41.61z"/>
	<path d="M78.36,74.66c0,7.15-5.82,12.97-12.97,12.97H52.8c-7.15,0-12.97-5.82-12.97-12.97v-4.62H33v4.62
		c0,10.92,8.88,19.8,19.8,19.8h12.58c10.92,0,19.8-8.88,19.8-19.8v-4.62h-6.83V74.66z"/>
	<path d="M32.95,61.22h6.91v8.82h9.76c3.01,0,5.65-1.99,6.48-4.88l1.13-3.93h3.76l1.13,3.93c0.83,2.89,3.47,4.88,6.48,4.88h9.76
		v-8.82h6.87V54.4H32.95V61.22z"/>
</g>
</svg>
