<?xml version="1.0" encoding="utf-8"?>
<!-- Generator: Adobe Illustrator 26.3.1, SVG Export Plug-In . SVG Version: 6.00 Build 0)  -->
<svg version="1.1" id="Vrstva_1" xmlns="http://www.w3.org/2000/svg" xmlns:xlink="http://www.w3.org/1999/xlink" x="0px" y="0px"
	 viewBox="0 0 118.74 118.74" style="enable-background:new 0 0 118.74 118.74;" xml:space="preserve">
<style type="text/css">
	.st0{fill:url(#SVGID_1_);}
	.st1{fill:#0E101F;}
	.st2{fill:#FCD213;}
	.st3{fill:#010202;}
</style>
<g>
</g>
<path class="st2" d="M26.18,2.95C14.36,5.12,5.12,14.36,2.95,26.18C1.04,36.62,0,47.78,0,59.37s1.04,22.75,2.95,33.19
	c2.17,11.81,11.41,21.05,23.22,23.22c10.44,1.92,21.6,2.95,33.19,2.95s22.75-1.04,33.19-2.95c11.81-2.17,21.05-11.41,23.22-23.22
	c1.92-10.44,2.95-21.6,2.95-33.19c0-11.61-1.04-22.78-2.96-33.23C113.61,14.35,104.39,5.13,92.6,2.96C82.15,1.04,70.98,0,59.37,0
	C47.78,0,36.62,1.04,26.18,2.95z"/>
<g>
	<path d="M60.14,85.22c-1.32,0-2.62-0.5-3.63-1.44L44.79,72.7H31.85c-1.66,0-3-1.34-3-3V49.04c0-1.66,1.34-3,3-3h12.93l11.6-10.95
		c1.27-1.2,3.03-1.82,4.75-1.48c2.55,0.5,4.29,2.7,4.29,5.19l0,40.96c0,1.77-0.78,3.49-2.23,4.5
		C62.26,84.91,61.19,85.22,60.14,85.22z M35.65,65.9h11.84l11.14,10.51V42.33L47.49,52.84H35.65V65.9z"/>
	<g>
		<path d="M71.57,41.05v6.53c6.5,0,11.79,5.29,11.79,11.79s-5.29,11.79-11.79,11.79v6.53c10.12,0,18.32-8.2,18.32-18.32
			S81.68,41.05,71.57,41.05z"/>
		<path d="M76.56,59.37c0-2.75-2.24-4.99-4.99-4.99v9.98C74.32,64.36,76.56,62.12,76.56,59.37z"/>
	</g>
</g>
</svg>
