<?xml version="1.0" encoding="utf-8"?>
<!-- Generator: Adobe Illustrator 26.3.1, SVG Export Plug-In . SVG Version: 6.00 Build 0)  -->
<svg version="1.1" id="Vrstva_1" xmlns="http://www.w3.org/2000/svg" xmlns:xlink="http://www.w3.org/1999/xlink" x="0px" y="0px"
	 viewBox="0 0 118.74 118.74" style="enable-background:new 0 0 118.74 118.74;" xml:space="preserve">
<style type="text/css">
	.st0{fill:url(#SVGID_1_);}
	.st1{fill:#0E101F;}
	.st2{fill:#FCD213;}
	.st3{fill:#010202;}
</style>
<g>
</g>
<path class="st2" d="M26.18,2.95C14.36,5.12,5.12,14.36,2.95,26.18C1.04,36.62,0,47.78,0,59.37s1.04,22.75,2.95,33.19
	c2.17,11.81,11.41,21.05,23.22,23.22c10.44,1.92,21.6,2.95,33.19,2.95s22.75-1.04,33.19-2.95c11.81-2.17,21.05-11.41,23.22-23.22
	c1.92-10.44,2.95-21.6,2.95-33.19c0-11.61-1.04-22.78-2.96-33.23C113.61,14.35,104.39,5.13,92.6,2.96C82.15,1.04,70.98,0,59.37,0
	C47.78,0,36.62,1.04,26.18,2.95z"/>
<path d="M87.7,35.96c-6.6-6.6-17.3-6.6-23.9,0c-2.25,2.25-3.72,4.99-4.43,7.88c-0.71-2.89-2.18-5.62-4.43-7.88
	c-6.6-6.6-17.3-6.6-23.9,0c-6.6,6.6-6.6,17.3,0,23.9L58.9,87.73l6.95-6.72v-1.93c-2.94-1.31-5-4.25-5-7.67h6.8
	c0,0.88,0.72,1.6,1.6,1.6c0.88,0,1.6-0.72,1.6-1.6s-0.72-1.6-1.6-1.6c-4.63,0-8.4-3.77-8.4-8.4c0-3.42,2.06-6.36,5-7.67v-2.59h6.8
	v2.59c2.94,1.31,5,4.25,5,7.67h-6.8c0-0.88-0.72-1.6-1.6-1.6c-0.88,0-1.6,0.72-1.6,1.6c0,0.88,0.72,1.6,1.6,1.6
	c4.06,0,7.46,2.9,8.23,6.74l10.22-9.89C94.3,53.26,94.3,42.56,87.7,35.96z"/>
</svg>
