<?xml version="1.0" encoding="utf-8"?>
<!-- Generator: Adobe Illustrator 26.3.1, SVG Export Plug-In . SVG Version: 6.00 Build 0)  -->
<svg version="1.1" id="Vrstva_1" xmlns="http://www.w3.org/2000/svg" xmlns:xlink="http://www.w3.org/1999/xlink" x="0px" y="0px"
	 viewBox="0 0 118.74 118.74" style="enable-background:new 0 0 118.74 118.74;" xml:space="preserve">
<style type="text/css">
	.st0{fill:url(#SVGID_1_);}
	.st1{fill:#0E101F;}
	.st2{fill:#FCD213;}
	.st3{fill:#010202;}
</style>
<g>
</g>
<path class="st2" d="M26.18,2.95C14.36,5.12,5.12,14.36,2.95,26.18C1.04,36.62,0,47.78,0,59.37s1.04,22.75,2.95,33.19
	c2.17,11.81,11.41,21.05,23.22,23.22c10.44,1.92,21.6,2.95,33.19,2.95s22.75-1.04,33.19-2.95c11.81-2.17,21.05-11.41,23.22-23.22
	c1.92-10.44,2.95-21.6,2.95-33.19c0-11.61-1.04-22.78-2.96-33.23C113.61,14.35,104.39,5.13,92.6,2.96C82.15,1.04,70.98,0,59.37,0
	C47.78,0,36.62,1.04,26.18,2.95z"/>
<path d="M82.65,36.09c-6.22-6.22-14.49-9.64-23.28-9.64c-8.79,0-17.06,3.42-23.28,9.64c-6.22,6.22-9.64,14.49-9.64,23.28
	s3.42,17.06,9.64,23.28c6.22,6.22,14.49,9.64,23.28,9.64c8.79,0,17.06-3.42,23.28-9.64c6.22-6.22,9.64-14.49,9.64-23.28
	S88.87,42.31,82.65,36.09z M85.24,55.96H75.8c-0.34-7.07-1.75-13.66-4.05-18.84c-0.14-0.32-0.29-0.64-0.44-0.95
	C78.75,40.01,84.11,47.33,85.24,55.96z M59.37,85.47c-1.98,0-4.33-2.53-6.14-6.61c-1.93-4.35-3.13-9.96-3.45-16.07h19.18
	c-0.33,6.11-1.52,11.72-3.45,16.07C63.7,82.93,61.35,85.47,59.37,85.47z M49.78,55.96c0.33-6.11,1.52-11.72,3.45-16.07
	c1.81-4.08,4.16-6.61,6.14-6.61c1.98,0,4.33,2.53,6.14,6.61c1.93,4.35,3.13,9.96,3.45,16.07H49.78z M47.43,36.17
	c-0.15,0.31-0.3,0.62-0.44,0.95c-2.3,5.18-3.7,11.77-4.05,18.84H33.5C34.63,47.33,39.99,40.01,47.43,36.17z M33.5,62.78h9.45
	c0.34,7.07,1.75,13.66,4.05,18.84c0.14,0.32,0.29,0.64,0.44,0.95C39.99,78.73,34.63,71.41,33.5,62.78z M71.31,82.57
	c0.15-0.31,0.3-0.62,0.44-0.95c2.3-5.18,3.7-11.77,4.05-18.84h9.45C84.11,71.41,78.75,78.73,71.31,82.57z"/>
</svg>
