<?xml version="1.0" encoding="utf-8"?>
<!-- Generator: Adobe Illustrator 26.3.1, SVG Export Plug-In . SVG Version: 6.00 Build 0)  -->
<svg version="1.1" id="Vrstva_1" xmlns="http://www.w3.org/2000/svg" xmlns:xlink="http://www.w3.org/1999/xlink" x="0px" y="0px"
	 viewBox="0 0 118.74 118.74" style="enable-background:new 0 0 118.74 118.74;" xml:space="preserve">
<style type="text/css">
	.st0{fill:url(#SVGID_1_);}
	.st1{fill:#0E101F;}
	.st2{fill:#FCD213;}
	.st3{fill:#010202;}
</style>
<g>
</g>
<path class="st2" d="M26.18,2.95C14.36,5.12,5.12,14.36,2.95,26.18C1.04,36.62,0,47.78,0,59.37s1.04,22.75,2.95,33.19
	c2.17,11.81,11.41,21.05,23.22,23.22c10.44,1.92,21.6,2.95,33.19,2.95s22.75-1.04,33.19-2.95c11.81-2.17,21.05-11.41,23.22-23.22
	c1.92-10.44,2.95-21.6,2.95-33.19c0-11.61-1.04-22.78-2.96-33.23C113.61,14.35,104.39,5.13,92.6,2.96C82.15,1.04,70.98,0,59.37,0
	C47.78,0,36.62,1.04,26.18,2.95z"/>
<g>
	<path d="M59.37,33.95c-14.04,0-25.42,11.38-25.42,25.42c0,14.04,11.38,25.42,25.42,25.42s25.42-11.38,25.42-25.42
		C84.79,45.33,73.41,33.95,59.37,33.95z M46.55,54.45c0-2.86,2.33-5.19,5.19-5.19s5.19,2.33,5.19,5.19c0,2.86-2.33,5.19-5.19,5.19
		S46.55,57.32,46.55,54.45z M59.37,72.77c-5.16,0-9.5-3.48-10.82-8.23h21.63C68.87,69.29,64.53,72.77,59.37,72.77z M66.86,59.65
		c-2.86,0-5.19-2.33-5.19-5.19c0-2.86,2.33-5.19,5.19-5.19c2.86,0,5.19,2.33,5.19,5.19C72.05,57.32,69.72,59.65,66.86,59.65z"/>
</g>
</svg>
