<?xml version="1.0" encoding="utf-8"?>
<!-- Generator: Adobe Illustrator 26.3.1, SVG Export Plug-In . SVG Version: 6.00 Build 0)  -->
<svg version="1.1" id="Vrstva_1" xmlns="http://www.w3.org/2000/svg" xmlns:xlink="http://www.w3.org/1999/xlink" x="0px" y="0px"
	 viewBox="0 0 118.74 118.74" style="enable-background:new 0 0 118.74 118.74;" xml:space="preserve">
<style type="text/css">
	.st0{fill:url(#SVGID_1_);}
	.st1{fill:#0E101F;}
	.st2{fill:#FCD213;}
	.st3{fill:#010202;}
</style>
<g>
</g>
<path class="st2" d="M26.18,2.95C14.36,5.12,5.12,14.36,2.95,26.18C1.04,36.62,0,47.78,0,59.37s1.04,22.75,2.95,33.19
	c2.17,11.81,11.41,21.05,23.22,23.22c10.44,1.92,21.6,2.95,33.19,2.95s22.75-1.04,33.19-2.95c11.81-2.17,21.05-11.41,23.22-23.22
	c1.92-10.44,2.95-21.6,2.95-33.19c0-11.61-1.04-22.78-2.96-33.23C113.61,14.35,104.39,5.13,92.6,2.96C82.15,1.04,70.98,0,59.37,0
	C47.78,0,36.62,1.04,26.18,2.95z"/>
<g>
	<path d="M84.58,31.94H62.77v-3.2h-6.8v3.2H34.16c-6.41,0-11.63,5.22-11.63,11.63V90h62.04c6.41,0,11.63-5.22,11.63-11.63v-34.8
		C96.21,37.15,90.99,31.94,84.58,31.94z M89.41,78.37c0,2.66-2.17,4.83-4.83,4.83H29.33V43.57c0-2.66,2.17-4.83,4.83-4.83h50.41
		c2.66,0,4.83,2.17,4.83,4.83V78.37z"/>
	<rect x="40.82" y="49.03" width="12.48" height="12.48"/>
	<path d="M71.07,48.41c-3.78,0-6.85,3.07-6.85,6.85c0,3.78,3.07,6.85,6.85,6.85c3.78,0,6.85-3.07,6.85-6.85
		C77.92,51.48,74.86,48.41,71.07,48.41z M71.06,55.32l-0.03-0.05l0.03-0.05c0,0,0,0,0.02,0l0.02,0l0.03,0.07L71.06,55.32z"/>
	<rect x="45.62" y="69.8" width="27.49" height="6.8"/>
</g>
</svg>
