<?xml version="1.0" encoding="utf-8"?>
<!-- Generator: Adobe Illustrator 26.3.1, SVG Export Plug-In . SVG Version: 6.00 Build 0)  -->
<svg version="1.1" id="Vrstva_1" xmlns="http://www.w3.org/2000/svg" xmlns:xlink="http://www.w3.org/1999/xlink" x="0px" y="0px"
	 viewBox="0 0 118.74 118.74" style="enable-background:new 0 0 118.74 118.74;" xml:space="preserve">
<style type="text/css">
	.st0{fill:url(#SVGID_1_);}
	.st1{fill:#0E101F;}
	.st2{fill:#FCD213;}
	.st3{fill:#010202;}
</style>
<g>
</g>
<path class="st2" d="M26.18,2.95C14.36,5.12,5.12,14.36,2.95,26.18C1.04,36.62,0,47.78,0,59.37s1.04,22.75,2.95,33.19
	c2.17,11.81,11.41,21.05,23.22,23.22c10.44,1.92,21.6,2.95,33.19,2.95s22.75-1.04,33.19-2.95c11.81-2.17,21.05-11.41,23.22-23.22
	c1.92-10.44,2.95-21.6,2.95-33.19c0-11.61-1.04-22.78-2.96-33.23C113.61,14.35,104.39,5.13,92.6,2.96C82.15,1.04,70.98,0,59.37,0
	C47.78,0,36.62,1.04,26.18,2.95z"/>
<g>
	<path d="M61.96,37.44L49.24,49.44H38.36c-1.66,0-3,1.34-3,3V66.3c0,1.66,1.34,3,3,3h10.89L61.96,81.3c1.2,1.13,3.17,0.28,3.17-1.37
		V38.8C65.13,37.15,63.16,36.3,61.96,37.44z"/>
	<g>
		<path d="M73.87,59.37c0-2.39-1.94-4.33-4.33-4.33v8.65C71.93,63.7,73.87,61.76,73.87,59.37z"/>
		<path d="M69.55,45.53v5.01c4.87,0,8.83,3.96,8.83,8.83s-3.96,8.83-8.83,8.83v5.01c7.64,0,13.84-6.19,13.84-13.84
			S77.19,45.53,69.55,45.53z"/>
	</g>
</g>
</svg>
