<?xml version="1.0" encoding="utf-8"?>
<!-- Generator: Adobe Illustrator 26.3.1, SVG Export Plug-In . SVG Version: 6.00 Build 0)  -->
<svg version="1.1" id="Vrstva_1" xmlns="http://www.w3.org/2000/svg" xmlns:xlink="http://www.w3.org/1999/xlink" x="0px" y="0px"
	 viewBox="0 0 118.74 118.74" style="enable-background:new 0 0 118.74 118.74;" xml:space="preserve">
<style type="text/css">
	.st0{fill:url(#SVGID_1_);}
	.st1{fill:#0E101F;}
	.st2{fill:#FCD213;}
	.st3{fill:#010202;}
</style>
<g>
</g>
<path class="st2" d="M26.18,2.95C14.36,5.12,5.12,14.36,2.95,26.18C1.04,36.62,0,47.78,0,59.37s1.04,22.75,2.95,33.19
	c2.17,11.81,11.41,21.05,23.22,23.22c10.44,1.92,21.6,2.95,33.19,2.95s22.75-1.04,33.19-2.95c11.81-2.17,21.05-11.41,23.22-23.22
	c1.92-10.44,2.95-21.6,2.95-33.19c0-11.61-1.04-22.78-2.96-33.23C113.61,14.35,104.39,5.13,92.6,2.96C82.15,1.04,70.98,0,59.37,0
	C47.78,0,36.62,1.04,26.18,2.95z"/>
<g>
	<path d="M93.06,53.73H25.68c-1.7,0-3.07,1.38-3.07,3.08v30.42c0,1.7,1.38,3.07,3.07,3.07h67.39c1.7,0,3.07-1.38,3.07-3.07V56.8
		C96.14,55.11,94.76,53.73,93.06,53.73z M43.92,85.73H27.54V58.7h6.8v20.22h9.58V85.73z M52.89,85.61h-6.8V58.7h6.8V85.61z
		 M69.05,85.73h-7.58L55.69,58.7h6.93l2.64,12.25L67.9,58.7h6.93L69.05,85.73z M91.2,65.1h-7.74v3.51h6.67v6.8h-6.67v3.51h7.74v6.8
		H76.66V58.3H91.2V65.1z"/>
	<path d="M42.74,47.67h12.03c0-3.32-2.7-6.01-6.01-6.01S42.74,44.36,42.74,47.67z"/>
	<path d="M48.75,35.4c6.77,0,12.27,5.5,12.27,12.27h6.96c0-10.62-8.61-19.23-19.23-19.23c-10.62,0-19.23,8.61-19.23,19.23h6.96
		C36.48,40.91,41.99,35.4,48.75,35.4z"/>
</g>
</svg>
