<?xml version="1.0" encoding="utf-8"?>
<!-- Generator: Adobe Illustrator 26.3.1, SVG Export Plug-In . SVG Version: 6.00 Build 0)  -->
<svg version="1.1" id="Vrstva_1" xmlns="http://www.w3.org/2000/svg" xmlns:xlink="http://www.w3.org/1999/xlink" x="0px" y="0px"
	 viewBox="0 0 118.74 118.74" style="enable-background:new 0 0 118.74 118.74;" xml:space="preserve">
<style type="text/css">
	.st0{fill:url(#SVGID_1_);}
	.st1{fill:#0E101F;}
	.st2{fill:#FCD213;}
	.st3{fill:#010202;}
</style>
<g>
</g>
<path class="st2" d="M26.18,2.95C14.36,5.12,5.12,14.36,2.95,26.18C1.04,36.62,0,47.78,0,59.37s1.04,22.75,2.95,33.19
	c2.17,11.81,11.41,21.05,23.22,23.22c10.44,1.92,21.6,2.95,33.19,2.95s22.75-1.04,33.19-2.95c11.81-2.17,21.05-11.41,23.22-23.22
	c1.92-10.44,2.95-21.6,2.95-33.19c0-11.61-1.04-22.78-2.96-33.23C113.61,14.35,104.39,5.13,92.6,2.96C82.15,1.04,70.98,0,59.37,0
	C47.78,0,36.62,1.04,26.18,2.95z"/>
<g>
	<path d="M87.66,38.2l-0.28-2.04l-27-9.66c-0.65-0.23-1.37-0.23-2.02,0l-27,9.66l-0.28,2.04c-2.17,15.79,0.78,47.41,27.47,54.02
		l0.82,0.2l0.82-0.2C86.88,85.61,89.83,53.99,87.66,38.2z M59.37,85.4c-23.32-6.45-22.46-36.11-21.76-44.25l21.76-7.79l21.75,7.78
		C81.74,49.2,82.41,79.01,59.37,85.4z"/>
	<path d="M68.98,53.08c0-5.3-4.31-9.61-9.61-9.61s-9.61,4.31-9.61,9.61v3.45h-1.9v14.61h23.01V56.52h-1.9V53.08z M56.56,53.08
		c0-1.55,1.26-2.81,2.81-2.81s2.81,1.26,2.81,2.81v3.45h-5.61V53.08z M62.77,65.85h-6.8v-4.31h6.8V65.85z"/>
</g>
</svg>
