<?xml version="1.0" encoding="utf-8"?>
<!-- Generator: Adobe Illustrator 26.3.1, SVG Export Plug-In . SVG Version: 6.00 Build 0)  -->
<svg version="1.1" id="Vrstva_1" xmlns="http://www.w3.org/2000/svg" xmlns:xlink="http://www.w3.org/1999/xlink" x="0px" y="0px"
	 viewBox="0 0 118.74 118.74" style="enable-background:new 0 0 118.74 118.74;" xml:space="preserve">
<style type="text/css">
	.st0{fill:url(#SVGID_1_);}
	.st1{fill:#0E101F;}
	.st2{fill:#FCD213;}
	.st3{fill:#010202;}
</style>
<g>
</g>
<path class="st2" d="M26.18,2.95C14.36,5.12,5.12,14.36,2.95,26.18C1.04,36.62,0,47.78,0,59.37s1.04,22.75,2.95,33.19
	c2.17,11.81,11.41,21.05,23.22,23.22c10.44,1.92,21.6,2.95,33.19,2.95s22.75-1.04,33.19-2.95c11.81-2.17,21.05-11.41,23.22-23.22
	c1.92-10.44,2.95-21.6,2.95-33.19c0-11.61-1.04-22.78-2.96-33.23C113.61,14.35,104.39,5.13,92.6,2.96C82.15,1.04,70.98,0,59.37,0
	C47.78,0,36.62,1.04,26.18,2.95z"/>
<g>
	<path d="M52.51,84.6c0-17.57,14.29-31.86,31.86-31.86c1.34,0,2.67,0.1,3.99,0.27c-3.06-13.1-14.8-22.85-28.83-22.85
		c-16.35,0-29.61,13.26-29.61,29.61c0,14.03,9.76,25.77,22.85,28.83C52.61,87.27,52.51,85.93,52.51,84.6z"/>
	<path d="M84.37,57.24c-15.09,0-27.36,12.27-27.36,27.36c0,0.83,0.05,1.66,0.12,2.49l29.73-29.73
		C86.03,57.29,85.2,57.24,84.37,57.24z"/>
	<polygon points="88.82,55.4 88.82,55.4 88.82,55.4 	"/>
</g>
</svg>
