<?xml version="1.0" encoding="utf-8"?>
<!-- Generator: Adobe Illustrator 26.3.1, SVG Export Plug-In . SVG Version: 6.00 Build 0)  -->
<svg version="1.1" id="Vrstva_1" xmlns="http://www.w3.org/2000/svg" xmlns:xlink="http://www.w3.org/1999/xlink" x="0px" y="0px"
	 viewBox="0 0 118.74 118.74" style="enable-background:new 0 0 118.74 118.74;" xml:space="preserve">
<style type="text/css">
	.st0{fill:url(#SVGID_1_);}
	.st1{fill:#0E101F;}
	.st2{fill:#FCD213;}
	.st3{fill:#010202;}
</style>
<g>
</g>
<path class="st2" d="M26.18,2.95C14.36,5.12,5.12,14.36,2.95,26.18C1.04,36.62,0,47.78,0,59.37s1.04,22.75,2.95,33.19
	c2.17,11.81,11.41,21.05,23.22,23.22c10.44,1.92,21.6,2.95,33.19,2.95s22.75-1.04,33.19-2.95c11.81-2.17,21.05-11.41,23.22-23.22
	c1.92-10.44,2.95-21.6,2.95-33.19c0-11.61-1.04-22.78-2.96-33.23C113.61,14.35,104.39,5.13,92.6,2.96C82.15,1.04,70.98,0,59.37,0
	C47.78,0,36.62,1.04,26.18,2.95z"/>
<g>
	<path d="M90.11,33.56c-3.83-3.83-8.93-5.95-14.35-5.95c-5.42,0-10.52,2.11-14.35,5.95c-0.74,0.74-1.42,1.53-2.03,2.37
		c-0.61-0.84-1.29-1.63-2.03-2.37c-7.91-7.91-20.79-7.91-28.71,0c-7.91,7.92-7.91,20.79,0,28.71L56.5,90.13c0.66,0.66,1.53,1,2.4,1
		c0.84,0,1.69-0.31,2.35-0.94l5.21-4.97l-4.7-4.92l-2.81,2.68L33.44,57.46c-5.26-5.26-5.26-13.83,0-19.09
		c5.26-5.26,13.83-5.26,19.09,0c1.72,1.72,2.95,3.9,3.54,6.29c0.38,1.52,1.74,2.58,3.3,2.58l0,0c1.56,0,2.92-1.07,3.3-2.58
		c0.59-2.39,1.82-4.57,3.54-6.29c2.55-2.55,5.94-3.95,9.54-3.95c3.61,0,7,1.4,9.55,3.95c5.26,5.26,5.26,13.83,0,19.09l4.81,4.81
		C98.02,54.35,98.02,41.47,90.11,33.56z"/>
	<path d="M73.89,61.62c0.88,0,1.6,0.72,1.6,1.6h6.8c0-3.42-2.06-6.36-5-7.67v-2.59h-6.8v2.59c-2.94,1.31-5,4.25-5,7.67
		c0,4.63,3.77,8.4,8.4,8.4c0.88,0,1.6,0.72,1.6,1.6s-0.72,1.6-1.6,1.6c-0.88,0-1.6-0.72-1.6-1.6h-6.8c0,3.42,2.06,6.36,5,7.67v2.59
		h6.8v-2.59c2.94-1.31,5-4.25,5-7.67c0-4.63-3.77-8.4-8.4-8.4c-0.88,0-1.6-0.72-1.6-1.6C72.29,62.34,73.01,61.62,73.89,61.62z"/>
</g>
</svg>
