<?xml version="1.0" encoding="utf-8"?>
<!-- Generator: Adobe Illustrator 26.3.1, SVG Export Plug-In . SVG Version: 6.00 Build 0)  -->
<svg version="1.1" id="Vrstva_1" xmlns="http://www.w3.org/2000/svg" xmlns:xlink="http://www.w3.org/1999/xlink" x="0px" y="0px"
	 viewBox="0 0 118.74 118.74" style="enable-background:new 0 0 118.74 118.74;" xml:space="preserve">
<style type="text/css">
	.st0{fill:url(#SVGID_1_);}
	.st1{fill:#0E101F;}
	.st2{fill:#FCD213;}
	.st3{fill:#010202;}
</style>
<g>
</g>
<path class="st2" d="M26.18,2.95C14.36,5.12,5.12,14.36,2.95,26.18C1.04,36.62,0,47.78,0,59.37s1.04,22.75,2.95,33.19
	c2.17,11.81,11.41,21.05,23.22,23.22c10.44,1.92,21.6,2.95,33.19,2.95s22.75-1.04,33.19-2.95c11.81-2.17,21.05-11.41,23.22-23.22
	c1.92-10.44,2.95-21.6,2.95-33.19c0-11.61-1.04-22.78-2.96-33.23C113.61,14.35,104.39,5.13,92.6,2.96C82.15,1.04,70.98,0,59.37,0
	C47.78,0,36.62,1.04,26.18,2.95z"/>
<path d="M86.32,48.96c-0.99-8.69-7.85-15.55-16.54-16.53l-0.14-0.02c-6.83-0.77-13.72-0.77-20.55,0l-0.14,0.02
	c-8.69,0.98-15.55,7.84-16.54,16.53h0c-0.78,6.83-0.78,13.72-0.01,20.55l0.03,0.25c0.98,8.7,7.84,15.57,16.54,16.55l0.12,0.01
	c6.83,0.77,13.72,0.77,20.55,0l0.12-0.01c8.7-0.98,15.56-7.85,16.54-16.55l0.03-0.25C87.1,62.68,87.1,55.79,86.32,48.96z
	 M59.37,78.17c-2.89,0-5.24-2.34-5.24-5.24s2.34-5.24,5.24-5.24s5.24,2.34,5.24,5.24S62.26,78.17,59.37,78.17z M64.22,60.76
	c-0.97,0.51-1.6,1.64-1.6,2.88v1h-6.5v-1c0-3.7,1.95-7.01,5.1-8.65c1.35-0.7,2.51-2.35,2.07-4.46c-0.31-1.5-1.53-2.71-3.02-3.02
	c-1.25-0.26-2.47,0.02-3.43,0.8c-0.94,0.77-1.48,1.9-1.48,3.12v1h-6.5v-1c0-3.18,1.42-6.15,3.88-8.16c2.46-2,5.69-2.78,8.85-2.12
	c4.05,0.84,7.22,4.01,8.06,8.06C70.63,53.91,68.45,58.56,64.22,60.76z"/>
</svg>
