<?xml version="1.0" encoding="utf-8"?>
<!-- Generator: Adobe Illustrator 26.3.1, SVG Export Plug-In . SVG Version: 6.00 Build 0)  -->
<svg version="1.1" id="Vrstva_1" xmlns="http://www.w3.org/2000/svg" xmlns:xlink="http://www.w3.org/1999/xlink" x="0px" y="0px"
	 viewBox="0 0 118.74 118.74" style="enable-background:new 0 0 118.74 118.74;" xml:space="preserve">
<style type="text/css">
	.st0{fill:url(#SVGID_1_);}
	.st1{fill:#0E101F;}
	.st2{fill:#FCD213;}
	.st3{fill:#010202;}
</style>
<g>
</g>
<path class="st2" d="M26.18,2.95C14.36,5.12,5.12,14.36,2.95,26.18C1.04,36.62,0,47.78,0,59.37s1.04,22.75,2.95,33.19
	c2.17,11.81,11.41,21.05,23.22,23.22c10.44,1.92,21.6,2.95,33.19,2.95s22.75-1.04,33.19-2.95c11.81-2.17,21.05-11.41,23.22-23.22
	c1.92-10.44,2.95-21.6,2.95-33.19c0-11.61-1.04-22.78-2.96-33.23C113.61,14.35,104.39,5.13,92.6,2.96C82.15,1.04,70.98,0,59.37,0
	C47.78,0,36.62,1.04,26.18,2.95z"/>
<g>
	<path d="M66.59,28.58c-9.31,0-16.86,7.55-16.86,16.86v0h17.98c7.73,0,13.99-6.26,13.99-13.99v-2.87H66.59z"/>
	<path d="M67.71,50.07l-17.98,0h-4.62v-4.62c0-2.9,0.57-5.71,1.69-8.36c0.21-0.49,0.44-0.98,0.68-1.45
		c-6.09,2.24-10.43,8.1-10.43,14.97v23.62c0,8.81,7.14,15.95,15.95,15.95h11.67h0.57c8.81,0,15.95-7.14,15.95-15.95v-0.57V50.6
		c0-1.89-0.33-3.7-0.93-5.39C76.81,48.35,72.39,50.07,67.71,50.07z M51.07,65.76c-2.81,0-5.09-2.28-5.09-5.09
		c0-2.81,2.28-5.09,5.09-5.09c2.81,0,5.09,2.28,5.09,5.09C56.16,63.48,53.88,65.76,51.07,65.76z M67.16,65.76
		c-2.81,0-5.09-2.28-5.09-5.09c0-2.81,2.28-5.09,5.09-5.09c2.81,0,5.09,2.28,5.09,5.09C72.25,63.48,69.97,65.76,67.16,65.76z"/>
</g>
</svg>
