<?xml version="1.0" encoding="utf-8"?>
<!-- Generator: Adobe Illustrator 26.3.1, SVG Export Plug-In . SVG Version: 6.00 Build 0)  -->
<svg version="1.1" id="Vrstva_1" xmlns="http://www.w3.org/2000/svg" xmlns:xlink="http://www.w3.org/1999/xlink" x="0px" y="0px"
	 viewBox="0 0 118.74 118.74" style="enable-background:new 0 0 118.74 118.74;" xml:space="preserve">
<style type="text/css">
	.st0{fill:url(#SVGID_1_);}
	.st1{fill:#0E101F;}
	.st2{fill:#FCD213;}
	.st3{fill:#010202;}
</style>
<g>
</g>
<path class="st2" d="M26.18,2.95C14.36,5.12,5.12,14.36,2.95,26.18C1.04,36.62,0,47.78,0,59.37s1.04,22.75,2.95,33.19
	c2.17,11.81,11.41,21.05,23.22,23.22c10.44,1.92,21.6,2.95,33.19,2.95s22.75-1.04,33.19-2.95c11.81-2.17,21.05-11.41,23.22-23.22
	c1.92-10.44,2.95-21.6,2.95-33.19c0-11.61-1.04-22.78-2.96-33.23C113.61,14.35,104.39,5.13,92.6,2.96C82.15,1.04,70.98,0,59.37,0
	C47.78,0,36.62,1.04,26.18,2.95z"/>
<path d="M55.55,83.56c-4.79,0-9.59-1.83-13.24-5.47c-3.54-3.54-5.48-8.24-5.48-13.24c0-5,1.95-9.7,5.48-13.24L54.72,39.2
	c5.36-5.36,14.09-5.36,19.45,0s5.36,14.08,0,19.45l-11.7,11.7c-1.66,1.66-3.86,2.57-6.21,2.57c-2.34,0-4.55-0.91-6.21-2.57
	s-2.57-3.86-2.57-6.21c0-2.35,0.91-4.55,2.57-6.21l11.98-11.98l4.81,4.81L54.87,62.73c-0.37,0.37-0.58,0.87-0.58,1.4
	c0,0.53,0.21,1.03,0.58,1.4c0.75,0.75,2.05,0.75,2.8,0l11.7-11.7c2.71-2.71,2.71-7.12,0-9.83c-2.71-2.71-7.12-2.71-9.83,0
	L47.12,56.42c-2.25,2.25-3.49,5.25-3.49,8.43c0,3.18,1.24,6.18,3.49,8.43c4.65,4.65,12.21,4.65,16.86,0l13.13-13.13l4.81,4.81
	L68.79,78.09C65.14,81.74,60.34,83.56,55.55,83.56z"/>
</svg>
