<?xml version="1.0" encoding="utf-8"?>
<!-- Generator: Adobe Illustrator 26.3.1, SVG Export Plug-In . SVG Version: 6.00 Build 0)  -->
<svg version="1.1" id="Vrstva_1" xmlns="http://www.w3.org/2000/svg" xmlns:xlink="http://www.w3.org/1999/xlink" x="0px" y="0px"
	 viewBox="0 0 118.74 118.74" style="enable-background:new 0 0 118.74 118.74;" xml:space="preserve">
<style type="text/css">
	.st0{fill:url(#SVGID_1_);}
	.st1{fill:#0E101F;}
	.st2{fill:#FCD213;}
	.st3{fill:#010202;}
</style>
<g>
</g>
<path class="st2" d="M26.18,2.95C14.36,5.12,5.12,14.36,2.95,26.18C1.04,36.62,0,47.78,0,59.37s1.04,22.75,2.95,33.19
	c2.17,11.81,11.41,21.05,23.22,23.22c10.44,1.92,21.6,2.95,33.19,2.95s22.75-1.04,33.19-2.95c11.81-2.17,21.05-11.41,23.22-23.22
	c1.92-10.44,2.95-21.6,2.95-33.19c0-11.61-1.04-22.78-2.96-33.23C113.61,14.35,104.39,5.13,92.6,2.96C82.15,1.04,70.98,0,59.37,0
	C47.78,0,36.62,1.04,26.18,2.95z"/>
<g>
	<path d="M38.14,73.74c4.95,0,8.97-4.01,8.97-8.97c0-4.95-4.01-8.97-8.97-8.97c-4.95,0-8.97,4.01-8.97,8.97
		C29.17,69.72,33.18,73.74,38.14,73.74z"/>
	<path d="M38.14,75.39c-8.1,0-14.66,6.56-14.66,14.66H52.8C52.8,81.96,46.23,75.39,38.14,75.39z"/>
	<path d="M80.6,73.74c4.95,0,8.97-4.01,8.97-8.97c0-4.95-4.01-8.97-8.97-8.97c-4.95,0-8.97,4.01-8.97,8.97
		C71.64,69.72,75.65,73.74,80.6,73.74z"/>
	<path d="M80.6,75.39c-8.1,0-14.66,6.56-14.66,14.66h29.32C95.27,81.96,88.7,75.39,80.6,75.39z"/>
	<g>
		<path d="M61.09,34.24v-5.56h-9c-2.12,0-3.84,1.72-3.84,3.84v20.26c0,2.12,1.72,3.84,3.84,3.84h14.56c2.12,0,3.84-1.72,3.84-3.84
			v-14.7h-5.56C62.81,38.08,61.09,36.36,61.09,34.24z"/>
		<polygon points="63.77,28.84 63.77,35.4 70.34,35.4 		"/>
	</g>
</g>
</svg>
