<?xml version="1.0" encoding="utf-8"?>
<!-- Generator: Adobe Illustrator 26.3.1, SVG Export Plug-In . SVG Version: 6.00 Build 0)  -->
<svg version="1.1" id="Vrstva_1" xmlns="http://www.w3.org/2000/svg" xmlns:xlink="http://www.w3.org/1999/xlink" x="0px" y="0px"
     viewBox="10 10 98.74 98.74" style="enable-background:new 10 10 98.74 98.74;" xml:space="preserve">
<style type="text/css">
	.st0{fill:url(#SVGID_1_);}
	.st1{fill:none; stroke:#FCD213; stroke-width:6;}
	.st2{fill:#FCD213; stroke:#FCD213; stroke-width:3;}
	.st3{fill:#010202;}
</style>
    <g>
</g>
    <path class="st1" d="M86.32,48.96c-0.99-8.69-7.85-15.55-16.54-16.53l-0.14-0.02c-6.83-0.77-13.72-0.77-20.55,0l-0.14,0.02
	c-8.69,0.98-15.55,7.84-16.54,16.53c-0.78,6.83-0.78,13.72-0.01,20.55l0.03,0.25c0.98,8.7,7.84,15.57,16.54,16.55l0.12,0.01
	c6.83,0.77,13.72,0.77,20.55,0l0.12-0.01c8.7-0.98,15.56-7.85,16.54-16.55l0.03-0.25C87.1,62.68,87.1,55.79,86.32,48.96z"/>
    <path class="st2" d="M52.38,65.32v-11.9c0-2.31,2.5-3.75,4.5-2.6l10.3,5.95c2,1.15,2,4.04,0,5.2l-10.3,5.95C54.88,69.07,52.38,67.63,52.38,65.32z"/>
</svg>
