<?xml version="1.0" ?>
<!DOCTYPE svg PUBLIC '-//W3C//DTD SVG 1.1//EN' 'http://www.w3.org/Graphics/SVG/1.1/DTD/svg11.dtd'>
<svg enable-background="new 0 0 512 512" height="512px" version="1.1" viewBox="0 0 512 512" width="512px" xml:space="preserve" xmlns="http://www.w3.org/2000/svg" xmlns:xlink="http://www.w3.org/1999/xlink">
    <g id="Layer_2">
        <rect fill="#7ED746" height="512" width="512" x="538"/>
        <rect fill="#FCD213" height="512" width="512" x="-537"/>
    </g>
    <g id="Layer_1">
        <path d="M256,36.082c-84.553,0-153.105,68.554-153.105,153.106c0,113.559,153.105,286.73,153.105,286.73   s153.106-173.172,153.106-286.73C409.106,104.636,340.552,36.082,256,36.082z M256,253.787c-35.682,0-64.6-28.917-64.6-64.6   s28.918-64.6,64.6-64.6s64.6,28.917,64.6,64.6S291.682,253.787,256,253.787z" fill="#336699"/>
        <path d="M794,36.082c-84.553,0-153.105,68.554-153.105,153.106c0,113.559,153.105,286.73,153.105,286.73   s153.106-173.172,153.106-286.73C947.106,104.636,878.552,36.082,794,36.082z M794,253.787c-35.682,0-64.6-28.917-64.6-64.6   s28.918-64.6,64.6-64.6s64.6,28.917,64.6,64.6S829.682,253.787,794,253.787z" fill="#336699"/>
        <path d="M-281,36.082c-84.553,0-153.105,68.554-153.105,153.106c0,113.559,153.105,286.73,153.105,286.73   s153.106-173.172,153.106-286.73C-127.894,104.636-196.448,36.082-281,36.082z M-281,253.787c-35.682,0-64.6-28.917-64.6-64.6   s28.918-64.6,64.6-64.6s64.6,28.917,64.6,64.6S-245.318,253.787-281,253.787z" fill="#336699"/>
    </g>
</svg>
