<?xml version="1.0" encoding="utf-8"?>
<svg version="1.1" xmlns="http://www.w3.org/2000/svg" xmlns:xlink="http://www.w3.org/1999/xlink" x="0px" y="0px" viewBox="0 0 118.74 118.74" style="enable-background:new 0 0 118.74 118.74;" xml:space="preserve">
 <style type="text/css">
 	.st0{fill:url(#SVGID_1_);}
 	.st1{fill:#FCD213;}
 	<!-- .st2{fill:#FCD213;} -->
 	.st2{fill:#FCD213;}
 	.st3{fill:#FCD213;}
 </style>
 <path class="st2" d="M73.76,35.73H44.98c-8.81,0-15.95,7.14-15.95,15.95v31.33h44.72c8.81,0,15.95-7.14,15.95-15.95V51.68	C89.71,42.87,82.57,35.73,73.76,35.73z M63.93,68.58h-21.5c-1.1,0-2-0.9-2-2V52.16c0-1.1,0.9-2,2-2h21.5c1.1,0,2,0.9,2,2v14.42	C65.93,67.68,65.03,68.58,63.93,68.58z M76.81,66.65l-6.94-4.01V56.1l6.94-4.01c0.67-0.38,1.5,0.1,1.5,0.87v12.82	C78.31,66.55,77.48,67.03,76.81,66.65z"/>
</svg>
