<?xml version="1.0" encoding="utf-8"?>
<!-- Generator: Adobe Illustrator 26.3.1, SVG Export Plug-In . SVG Version: 6.00 Build 0)  -->
<svg version="1.1" id="Vrstva_1" xmlns="http://www.w3.org/2000/svg" xmlns:xlink="http://www.w3.org/1999/xlink" x="0px" y="0px"
	 viewBox="0 0 118.74 118.74" style="enable-background:new 0 0 118.74 118.74;" xml:space="preserve">
<style type="text/css">
	.st0{fill:url(#SVGID_1_);}
	.st1{fill:#0E101F;}
	.st2{fill:#FCD213;}
	.st3{fill:#010202;}
</style>
<g>
</g>
<path class="st2" d="M26.18,2.95C14.36,5.12,5.12,14.36,2.95,26.18C1.04,36.62,0,47.78,0,59.37s1.04,22.75,2.95,33.19
	c2.17,11.81,11.41,21.05,23.22,23.22c10.44,1.92,21.6,2.95,33.19,2.95s22.75-1.04,33.19-2.95c11.81-2.17,21.05-11.41,23.22-23.22
	c1.92-10.44,2.95-21.6,2.95-33.19c0-11.61-1.04-22.78-2.96-33.23C113.61,14.35,104.39,5.13,92.6,2.96C82.15,1.04,70.98,0,59.37,0
	C47.78,0,36.62,1.04,26.18,2.95z"/>
<g>
	<path d="M77.01,62.17c-1.75-1.75-4.08-2.72-6.56-2.72s-4.81,0.97-6.56,2.72l-5.91,5.91l-7.32-7.32l5.91-5.91
		c1.75-1.75,2.72-4.08,2.72-6.56c0-2.48-0.97-4.81-2.72-6.56l-7.88-7.88c-1.75-1.75-4.08-2.72-6.56-2.72
		c-2.48,0-4.81,0.97-6.56,2.72c-5.91,5.91-5.91,15.53,0,21.44l27.88,27.88c2.96,2.96,6.84,4.43,10.72,4.43
		c3.88,0,7.76-1.48,10.72-4.43c1.75-1.75,2.72-4.08,2.72-6.56c0-2.48-0.97-4.81-2.72-6.56L77.01,62.17z"/>
</g>
</svg>
