<?xml version="1.0" encoding="utf-8"?>
<!-- Generator: Adobe Illustrator 26.3.1, SVG Export Plug-In . SVG Version: 6.00 Build 0)  -->
<svg version="1.1" id="Vrstva_1" xmlns="http://www.w3.org/2000/svg" xmlns:xlink="http://www.w3.org/1999/xlink" x="0px" y="0px"
	 viewBox="0 0 118.74 118.74" style="enable-background:new 0 0 118.74 118.74;" xml:space="preserve">
<style type="text/css">
	.st0{fill:url(#SVGID_1_);}
	.st1{fill:#0E101F;}
	.st2{fill:#FCD213;}
	.st3{fill:#010202;}
</style>
<g>
</g>
<path class="st2" d="M26.18,2.95C14.36,5.12,5.12,14.36,2.95,26.18C1.04,36.62,0,47.78,0,59.37s1.04,22.75,2.95,33.19
	c2.17,11.81,11.41,21.05,23.22,23.22c10.44,1.92,21.6,2.95,33.19,2.95s22.75-1.04,33.19-2.95c11.81-2.17,21.05-11.41,23.22-23.22
	c1.92-10.44,2.95-21.6,2.95-33.19c0-11.61-1.04-22.78-2.96-33.23C113.61,14.35,104.39,5.13,92.6,2.96C82.15,1.04,70.98,0,59.37,0
	C47.78,0,36.62,1.04,26.18,2.95z"/>
<path d="M41.55,35.57c0.55,0,1.11,0.14,1.66,0.45l35.64,20.46c2.23,1.28,2.23,4.49,0,5.77L43.21,82.72
	c-0.54,0.31-1.11,0.45-1.66,0.45c-2.07,0-3.86-2-3.19-4.28l4.29-14.58c0.34-1.16,1.28-2.04,2.46-2.31l11.79-2.66l-11.78-2.61
	c-1.18-0.26-2.13-1.15-2.47-2.31l-4.29-14.57C37.69,37.57,39.49,35.57,41.55,35.57 M41.55,29.57c-2.92,0-5.72,1.41-7.49,3.77
	c-1.77,2.36-2.3,5.35-1.46,8.2l4.29,14.57c0.36,1.21,0.94,2.31,1.71,3.25c-0.77,0.94-1.35,2.04-1.71,3.25L32.61,77.2
	c-0.84,2.85-0.31,5.84,1.46,8.2c1.77,2.36,4.56,3.77,7.49,3.77c1.61,0,3.22-0.43,4.65-1.25l35.64-20.46
	c2.89-1.66,4.68-4.76,4.68-8.09c0-3.33-1.79-6.43-4.68-8.09L46.2,30.82C44.78,30,43.17,29.57,41.55,29.57L41.55,29.57z"/>
</svg>
