<?xml version="1.0" encoding="utf-8"?>
<!-- Generator: Adobe Illustrator 26.3.1, SVG Export Plug-In . SVG Version: 6.00 Build 0)  -->
<svg version="1.1" id="Vrstva_1" xmlns="http://www.w3.org/2000/svg" xmlns:xlink="http://www.w3.org/1999/xlink" x="0px" y="0px"
	 viewBox="0 0 118.74 118.74" style="enable-background:new 0 0 118.74 118.74;" xml:space="preserve">
<style type="text/css">
	.st0{fill:url(#SVGID_1_);}
	.st1{fill:#0E101F;}
	.st2{fill:#FCD213;}
	.st3{fill:#010202;}
</style>
<g>
</g>
<path class="st2" d="M26.18,2.95C14.36,5.12,5.12,14.36,2.95,26.18C1.04,36.62,0,47.78,0,59.37s1.04,22.75,2.95,33.19
	c2.17,11.81,11.41,21.05,23.22,23.22c10.44,1.92,21.6,2.95,33.19,2.95s22.75-1.04,33.19-2.95c11.81-2.17,21.05-11.41,23.22-23.22
	c1.92-10.44,2.95-21.6,2.95-33.19c0-11.61-1.04-22.78-2.96-33.23C113.61,14.35,104.39,5.13,92.6,2.96C82.15,1.04,70.98,0,59.37,0
	C47.78,0,36.62,1.04,26.18,2.95z"/>
<g>
	<path d="M36.9,68.36c4.28,0,7.75-3.47,7.75-7.75s-3.47-7.75-7.75-7.75s-7.75,3.47-7.75,7.75S32.61,68.36,36.9,68.36z"/>
	<path d="M36.9,72.47c-9.78,0-17.73,7.96-17.73,17.73h10.11c0-4.2,3.42-7.62,7.62-7.62c4.2,0,7.62,3.42,7.62,7.62h10.11
		C54.63,80.43,46.67,72.47,36.9,72.47z"/>
	<path d="M74.09,60.61c0,4.28,3.47,7.75,7.75,7.75s7.75-3.47,7.75-7.75s-3.47-7.75-7.75-7.75S74.09,56.33,74.09,60.61z"/>
	<path d="M81.85,72.47c-9.78,0-17.73,7.96-17.73,17.73h10.11c0-4.2,3.42-7.62,7.62-7.62c4.2,0,7.62,3.42,7.62,7.62h10.11
		C99.58,80.43,91.62,72.47,81.85,72.47z"/>
	<g>
		<path d="M61.09,34.09v-5.56h-9c-2.12,0-3.84,1.72-3.84,3.84v20.26c0,2.12,1.72,3.84,3.84,3.84h14.56c2.12,0,3.84-1.72,3.84-3.84
			v-14.7h-5.56C62.81,37.93,61.09,36.21,61.09,34.09z"/>
		<polygon points="63.77,28.68 63.77,35.25 70.34,35.25 		"/>
	</g>
</g>
</svg>
