<?xml version="1.0" encoding="utf-8"?>
<!-- Generator: Adobe Illustrator 26.3.1, SVG Export Plug-In . SVG Version: 6.00 Build 0)  -->
<svg version="1.1" id="Vrstva_1" xmlns="http://www.w3.org/2000/svg" xmlns:xlink="http://www.w3.org/1999/xlink" x="0px" y="0px"
	 viewBox="0 0 118.74 118.74" style="enable-background:new 0 0 118.74 118.74;" xml:space="preserve">
<style type="text/css">
	.st0{fill:url(#SVGID_1_);}
	.st1{fill:#0E101F;}
	.st2{fill:#FCD213;}
	.st3{fill:#010202;}
</style>
<g>
</g>
<path class="st2" d="M26.18,2.95C14.36,5.12,5.12,14.36,2.95,26.18C1.04,36.62,0,47.78,0,59.37s1.04,22.75,2.95,33.19
	c2.17,11.81,11.41,21.05,23.22,23.22c10.44,1.92,21.6,2.95,33.19,2.95s22.75-1.04,33.19-2.95c11.81-2.17,21.05-11.41,23.22-23.22
	c1.92-10.44,2.95-21.6,2.95-33.19c0-11.61-1.04-22.78-2.96-33.23C113.61,14.35,104.39,5.13,92.6,2.96C82.15,1.04,70.98,0,59.37,0
	C47.78,0,36.62,1.04,26.18,2.95z"/>
<path d="M73.76,35.73H44.98c-8.81,0-15.95,7.14-15.95,15.95v31.33h44.72c8.81,0,15.95-7.14,15.95-15.95V51.68
	C89.71,42.87,82.57,35.73,73.76,35.73z M63.93,68.58h-21.5c-1.1,0-2-0.9-2-2V52.16c0-1.1,0.9-2,2-2h21.5c1.1,0,2,0.9,2,2v14.42
	C65.93,67.68,65.03,68.58,63.93,68.58z M76.81,66.65l-6.94-4.01V56.1l6.94-4.01c0.67-0.38,1.5,0.1,1.5,0.87v12.82
	C78.31,66.55,77.48,67.03,76.81,66.65z"/>
</svg>
