<?xml version="1.0" encoding="utf-8"?>
<!-- Generator: Adobe Illustrator 26.3.1, SVG Export Plug-In . SVG Version: 6.00 Build 0)  -->
<svg version="1.1" id="Vrstva_1" xmlns="http://www.w3.org/2000/svg" xmlns:xlink="http://www.w3.org/1999/xlink" x="0px" y="0px"
	 viewBox="0 0 118.74 118.74" style="enable-background:new 0 0 118.74 118.74;" xml:space="preserve">
<style type="text/css">
	.st0{fill:url(#SVGID_1_);}
	.st1{fill:#0E101F;}
	.st2{fill:#FCD213;}
	.st3{fill:#010202;}
</style>
<g>
</g>
<path class="st2" d="M26.18,2.95C14.36,5.12,5.12,14.36,2.95,26.18C1.04,36.62,0,47.78,0,59.37s1.04,22.75,2.95,33.19
	c2.17,11.81,11.41,21.05,23.22,23.22c10.44,1.92,21.6,2.95,33.19,2.95s22.75-1.04,33.19-2.95c11.81-2.17,21.05-11.41,23.22-23.22
	c1.92-10.44,2.95-21.6,2.95-33.19c0-11.61-1.04-22.78-2.96-33.23C113.61,14.35,104.39,5.13,92.6,2.96C82.15,1.04,70.98,0,59.37,0
	C47.78,0,36.62,1.04,26.18,2.95z"/>
<g>
	<path d="M58.86,54.54c-3.08,0-5.48,2.33-5.48,6.17c0,3.84,2.4,6.17,5.48,6.17c3.08,0,5.48-2.33,5.48-6.17
		C64.34,56.88,61.87,54.54,58.86,54.54z"/>
	<path d="M93.63,46.13c-1.26-11.05-9.97-19.76-21.02-21.01l-0.17-0.02c-8.68-0.98-17.44-0.98-26.13,0l-0.17,0.02
		c-11.05,1.25-19.77,9.96-21.02,21.01c-0.5,4.4-0.75,8.82-0.74,13.24c0,0,0,0.27,0,0.32c0,20.04,2.65,32.03,2.65,32.03v0h0
		c0.01,0,11.99,2.65,32.03,2.65c0.04,0,0.07,0,0.11,0c0.07,0,0.14,0,0.21,0c4.36,0,8.72-0.25,13.06-0.74l0.15-0.02
		c11.06-1.25,19.78-9.98,21.02-21.04l0.04-0.32C94.62,63.58,94.61,54.81,93.63,46.13z M74.28,73.39c-3.08,0-5.14-1.1-6.44-2.19
		c-0.75-0.62-1.37-1.37-1.78-2.26h-0.34c-0.48,0.89-1.03,1.64-1.78,2.26c-1.3,1.1-3.15,2.19-6.1,2.19
		c-6.24,0-11.31-5.21-11.31-12.68s5.07-12.68,11.31-12.68c2.12,0,3.56,0.62,4.59,1.37c0.62,0.41,1.1,0.89,1.58,1.37h0.34v-2.4h6.51
		v14.74c0,2.4,1.65,4.11,3.77,4.11c2.74,0,4.8-1.99,4.8-8.22c0-10.62-8.5-19.19-20.22-19.19c-10.97,0-19.88,8.91-19.88,20.56
		c0,11.65,8.91,20.56,19.88,20.56c3.91,0,6.99-1.03,9.12-2.06c1.23-0.62,2.33-1.3,3.22-2.06l3.77,4.8c-1.17,1.17-2.6,2.12-4.18,2.95
		c-2.74,1.44-6.72,2.88-11.93,2.88c-14.39,0-26.73-12.34-26.73-27.07c0-14.74,12.34-27.07,26.73-27.07
		c15.42,0,27.07,11.72,27.07,25.7C86.27,68.25,81.13,73.39,74.28,73.39z"/>
</g>
</svg>
