<?xml version="1.0" encoding="utf-8"?>
<!-- Generator: Adobe Illustrator 26.3.1, SVG Export Plug-In . SVG Version: 6.00 Build 0)  -->
<svg version="1.1" id="Vrstva_1" xmlns="http://www.w3.org/2000/svg" xmlns:xlink="http://www.w3.org/1999/xlink" x="0px" y="0px"
	 viewBox="0 0 118.74 118.74" style="enable-background:new 0 0 118.74 118.74;" xml:space="preserve">
<style type="text/css">
	.st0{fill:url(#SVGID_1_);}
	.st1{fill:#0E101F;}
	.st2{fill:#FCD213;}
	.st3{fill:#010202;}
</style>
<g>
</g>
<path class="st2" d="M26.18,2.95C14.36,5.12,5.12,14.36,2.95,26.18C1.04,36.62,0,47.78,0,59.37s1.04,22.75,2.95,33.19
	c2.17,11.81,11.41,21.05,23.22,23.22c10.44,1.92,21.6,2.95,33.19,2.95s22.75-1.04,33.19-2.95c11.81-2.17,21.05-11.41,23.22-23.22
	c1.92-10.44,2.95-21.6,2.95-33.19c0-11.61-1.04-22.78-2.96-33.23C113.61,14.35,104.39,5.13,92.6,2.96C82.15,1.04,70.98,0,59.37,0
	C47.78,0,36.62,1.04,26.18,2.95z"/>
<g>
	<path d="M78.33,52.3v22.37c0,7.15-5.82,12.97-12.97,12.97H52.78c-7.15,0-12.97-5.82-12.97-12.97V50.39c0-0.25,0.01-0.51,0.02-0.76
		v-6.26c0-3.87,1.27-7.45,3.42-10.33c-6.12,3.37-10.27,9.89-10.27,17.35v24.27c0,10.92,8.88,19.8,19.8,19.8h12.58
		c10.92,0,19.8-8.88,19.8-19.8V50.39c0-0.74-0.04-1.48-0.12-2.2C83.25,50.12,80.94,51.57,78.33,52.3z"/>
	<path d="M66.76,24.28c-11.48,0-20.82,9.34-20.82,20.82v3.49H67.9c9.85,0,17.86-8.01,17.86-17.86v-6.44H66.76z M67.9,41.61H53.36
		c1.55-5.95,6.97-10.35,13.4-10.35h12.02C78.5,37.01,73.73,41.61,67.9,41.61z"/>
	<circle cx="50.8" cy="60.74" r="5.24"/>
	<circle cx="67.33" cy="60.74" r="5.24"/>
</g>
</svg>
