<?xml version="1.0" encoding="utf-8"?>
<!-- Generator: Adobe Illustrator 26.3.1, SVG Export Plug-In . SVG Version: 6.00 Build 0)  -->
<svg version="1.1" id="Vrstva_1" xmlns="http://www.w3.org/2000/svg" xmlns:xlink="http://www.w3.org/1999/xlink" x="0px" y="0px"
	 viewBox="0 0 118.74 118.74" style="enable-background:new 0 0 118.74 118.74;" xml:space="preserve">
<style type="text/css">
	.st0{fill:url(#SVGID_1_);}
	.st1{fill:#0E101F;}
	.st2{fill:#FCD213;}
	.st3{fill:#010202;}
</style>
<g>
</g>
<path class="st2" d="M26.18,2.95C14.36,5.12,5.12,14.36,2.95,26.18C1.04,36.62,0,47.78,0,59.37s1.04,22.75,2.95,33.19
	c2.17,11.81,11.41,21.05,23.22,23.22c10.44,1.92,21.6,2.95,33.19,2.95s22.75-1.04,33.19-2.95c11.81-2.17,21.05-11.41,23.22-23.22
	c1.92-10.44,2.95-21.6,2.95-33.19c0-11.61-1.04-22.78-2.96-33.23C113.61,14.35,104.39,5.13,92.6,2.96C82.15,1.04,70.98,0,59.37,0
	C47.78,0,36.62,1.04,26.18,2.95z"/>
<path d="M88.59,55.97H57.67c-1.59-7.18-8.11-12.51-15.83-12.24c-8.04,0.28-14.7,6.86-15.07,14.9c-0.42,8.98,6.74,16.39,15.63,16.39
	c7.47,0,13.71-5.24,15.27-12.25h10.11v0.81c0,1.88,1.52,3.4,3.4,3.4h0c1.88,0,3.4-1.52,3.4-3.4v-0.81h3.82v3.81
	c0,1.88,1.52,3.4,3.4,3.4h0c1.88,0,3.4-1.52,3.4-3.4v-3.81h3.4c1.88,0,3.4-1.52,3.4-3.4v0C91.99,57.49,90.47,55.97,88.59,55.97z
	 M42.4,64.61c-2.89,0-5.24-2.34-5.24-5.24s2.34-5.24,5.24-5.24s5.24,2.34,5.24,5.24S45.29,64.61,42.4,64.61z"/>
</svg>
