<?xml version="1.0" encoding="utf-8"?>
<!-- Generator: Adobe Illustrator 26.3.1, SVG Export Plug-In . SVG Version: 6.00 Build 0)  -->
<svg version="1.1" id="Vrstva_1" xmlns="http://www.w3.org/2000/svg" xmlns:xlink="http://www.w3.org/1999/xlink" x="0px" y="0px"
	 viewBox="0 0 118.74 118.74" style="enable-background:new 0 0 118.74 118.74;" xml:space="preserve">
<style type="text/css">
	.st0{fill:url(#SVGID_1_);}
	.st1{fill:#0E101F;}
	.st2{fill:#FCD213;}
	.st3{fill:#010202;}
</style>
<g>
</g>
<path class="st2" d="M26.18,2.95C14.36,5.12,5.12,14.36,2.95,26.18C1.04,36.62,0,47.78,0,59.37s1.04,22.75,2.95,33.19
	c2.17,11.81,11.41,21.05,23.22,23.22c10.44,1.92,21.6,2.95,33.19,2.95s22.75-1.04,33.19-2.95c11.81-2.17,21.05-11.41,23.22-23.22
	c1.92-10.44,2.95-21.6,2.95-33.19c0-11.61-1.04-22.78-2.96-33.23C113.61,14.35,104.39,5.13,92.6,2.96C82.15,1.04,70.98,0,59.37,0
	C47.78,0,36.62,1.04,26.18,2.95z"/>
<g>
	<path d="M77.33,49.84h-6.81L54.48,91.87h6.81l4.5-11.79h16.27l4.5,11.79h6.81L77.33,49.84z M68.14,73.93l5.79-15.17l5.79,15.17
		H68.14z"/>
	<path d="M57.38,65.41c-1.94-1.45-3.7-2.91-5.3-4.34C57,55.51,61.8,48.89,64.92,41.63h7v-6.8H52.05v-7.96h-6.8v7.96H25.38v6.8h32.04
		c-2.71,5.35-6.4,10.33-10.23,14.66c-4.89-5.22-7.17-9.15-7.21-9.22l-5.93,3.33c0.2,0.35,2.82,4.93,8.43,10.86
		c-6.85,6.79-12.93,11.08-13.05,11.16l3.88,5.58c0.51-0.35,6.88-4.83,14.07-11.98c2.2,1.97,4.71,4,7.52,6.01L57.38,65.41z"/>
</g>
</svg>
