<?xml version="1.0" encoding="utf-8"?>
<!-- Generator: Adobe Illustrator 26.3.1, SVG Export Plug-In . SVG Version: 6.00 Build 0)  -->
<svg version="1.1" id="Vrstva_1" xmlns="http://www.w3.org/2000/svg" xmlns:xlink="http://www.w3.org/1999/xlink" x="0px" y="0px"
	 viewBox="0 0 118.74 118.74" style="enable-background:new 0 0 118.74 118.74;" xml:space="preserve">
<style type="text/css">
	.st0{fill:url(#SVGID_1_);}
	.st1{fill:#0E101F;}
	.st2{fill:#FCD213;}
	.st3{fill:#010202;}
</style>
<g>
</g>
<path class="st2" d="M26.18,2.95C14.36,5.12,5.12,14.36,2.95,26.18C1.04,36.62,0,47.78,0,59.37s1.04,22.75,2.95,33.19
	c2.17,11.81,11.41,21.05,23.22,23.22c10.44,1.92,21.6,2.95,33.19,2.95s22.75-1.04,33.19-2.95c11.81-2.17,21.05-11.41,23.22-23.22
	c1.92-10.44,2.95-21.6,2.95-33.19c0-11.61-1.04-22.78-2.96-33.23C113.61,14.35,104.39,5.13,92.6,2.96C82.15,1.04,70.98,0,59.37,0
	C47.78,0,36.62,1.04,26.18,2.95z"/>
<g>
	<path d="M97.49,57.83c-7.82-15.36-22.42-24.9-38.12-24.9s-30.3,9.54-38.12,24.9l-0.78,1.54l0.78,1.54
		c7.82,15.36,22.42,24.9,38.12,24.9s30.3-9.54,38.12-24.9l0.78-1.54L97.49,57.83z M59.37,79.01c-12.6,0-24.42-7.48-31.23-19.64
		c6.81-12.16,18.63-19.64,31.23-19.64s24.42,7.48,31.23,19.64C83.79,71.53,71.97,79.01,59.37,79.01z"/>
	<path d="M59.37,43.99c-8.48,0-15.38,6.9-15.38,15.38s6.9,15.38,15.38,15.38s15.38-6.9,15.38-15.38S67.85,43.99,59.37,43.99z
		 M59.37,67.95c-4.73,0-8.58-3.85-8.58-8.58s3.85-8.58,8.58-8.58s8.58,3.85,8.58,8.58S64.1,67.95,59.37,67.95z"/>
</g>
</svg>
