<?xml version="1.0" encoding="utf-8"?>
<!-- Generator: Adobe Illustrator 26.3.1, SVG Export Plug-In . SVG Version: 6.00 Build 0)  -->
<svg version="1.1" id="Vrstva_1" xmlns="http://www.w3.org/2000/svg" xmlns:xlink="http://www.w3.org/1999/xlink" x="0px" y="0px"
	 viewBox="0 0 118.74 118.74" style="enable-background:new 0 0 118.74 118.74;" xml:space="preserve">
<style type="text/css">
	.st0{fill:url(#SVGID_1_);}
	.st1{fill:#0E101F;}
	.st2{fill:#FCD213;}
	.st3{fill:#010202;}
</style>
<g>
</g>
<path class="st2" d="M26.18,2.95C14.36,5.12,5.12,14.36,2.95,26.18C1.04,36.62,0,47.78,0,59.37s1.04,22.75,2.95,33.19
	c2.17,11.81,11.41,21.05,23.22,23.22c10.44,1.92,21.6,2.95,33.19,2.95s22.75-1.04,33.19-2.95c11.81-2.17,21.05-11.41,23.22-23.22
	c1.92-10.44,2.95-21.6,2.95-33.19c0-11.61-1.04-22.78-2.96-33.23C113.61,14.35,104.39,5.13,92.6,2.96C82.15,1.04,70.98,0,59.37,0
	C47.78,0,36.62,1.04,26.18,2.95z"/>
<g>
	<path d="M79.84,65.87c1.63-0.18,3.28-0.28,4.92-0.28v-18.3c0-8.81-7.14-15.95-15.95-15.95H40.03c-8.81,0-15.95,7.14-15.95,15.95
		v31.33h44.57l2.93,0.08c0-1.64,0.09-3.29,0.28-4.92v0c0.47-4.16,3.75-7.44,7.91-7.91L79.84,65.87z M38.16,61.16
		c-2.81,0-5.09-2.28-5.09-5.09c0-2.81,2.28-5.09,5.09-5.09c2.81,0,5.09,2.28,5.09,5.09C43.26,58.88,40.98,61.16,38.16,61.16z
		 M54.42,61.16c-2.81,0-5.09-2.28-5.09-5.09c0-2.81,2.28-5.09,5.09-5.09c2.81,0,5.09,2.28,5.09,5.09
		C59.52,58.88,57.24,61.16,54.42,61.16z M70.68,61.16c-2.81,0-5.09-2.28-5.09-5.09c0-2.81,2.28-5.09,5.09-5.09
		c2.81,0,5.09,2.28,5.09,5.09C75.77,58.88,73.49,61.16,70.68,61.16z"/>
	<polygon points="87.79,79.03 87.79,70.14 81.72,70.14 81.72,79.03 74.86,75.03 74.86,81.62 84.76,87.39 94.65,81.62 94.65,75.03 	
		"/>
</g>
</svg>
