<?xml version="1.0" encoding="utf-8"?>
<!-- Generator: Adobe Illustrator 26.3.1, SVG Export Plug-In . SVG Version: 6.00 Build 0)  -->
<svg version="1.1" id="Vrstva_1" xmlns="http://www.w3.org/2000/svg" xmlns:xlink="http://www.w3.org/1999/xlink" x="0px" y="0px"
	 viewBox="0 0 118.74 118.74" style="enable-background:new 0 0 118.74 118.74;" xml:space="preserve">
<style type="text/css">
	.st0{fill:url(#SVGID_1_);}
	.st1{fill:#0E101F;}
	.st2{fill:#FCD213;}
	.st3{fill:#010202;}
</style>
<g>
</g>
<path class="st2" d="M26.18,2.95C14.36,5.12,5.12,14.36,2.95,26.18C1.04,36.62,0,47.78,0,59.37s1.04,22.75,2.95,33.19
	c2.17,11.81,11.41,21.05,23.22,23.22c10.44,1.92,21.6,2.95,33.19,2.95s22.75-1.04,33.19-2.95c11.81-2.17,21.05-11.41,23.22-23.22
	c1.92-10.44,2.95-21.6,2.95-33.19c0-11.61-1.04-22.78-2.96-33.23C113.61,14.35,104.39,5.13,92.6,2.96C82.15,1.04,70.98,0,59.37,0
	C47.78,0,36.62,1.04,26.18,2.95z"/>
<g>
	<path d="M78.89,45.27c3.34,0,6.05-2.71,6.05-6.05s-2.71-6.05-6.05-6.05c-3.34,0-6.05,2.71-6.05,6.05S75.55,45.27,78.89,45.27z"/>
	<path d="M78.89,46.38c-5.47,0-9.9,4.43-9.9,9.9h19.8C88.79,50.82,84.36,46.38,78.89,46.38z"/>
	<path d="M47.75,65.92c-10.86,0-19.66,8.8-19.66,19.66h39.32C67.42,74.72,58.61,65.92,47.75,65.92z"/>
	<path d="M47.75,62.36c5.92,0,10.72-4.8,10.72-10.72c0-5.92-4.8-10.72-10.72-10.72c-5.92,0-10.72,4.8-10.72,10.72
		C37.03,57.56,41.83,62.36,47.75,62.36z"/>
	<path d="M90.65,66.65l-11.76-6.86l-11.76,6.86v7.83l8.73-5.09V79.5h-4.59c0.51,1.97,0.77,4,0.77,6.07h9.88V69.39l8.73,5.09V66.65z"
		/>
</g>
</svg>
