<?xml version="1.0" encoding="utf-8"?>
<!-- Generator: Adobe Illustrator 26.3.1, SVG Export Plug-In . SVG Version: 6.00 Build 0)  -->
<svg version="1.1" id="Vrstva_1" xmlns="http://www.w3.org/2000/svg" xmlns:xlink="http://www.w3.org/1999/xlink" x="0px" y="0px"
	 viewBox="0 0 118.74 118.74" style="enable-background:new 0 0 118.74 118.74;" xml:space="preserve">
<style type="text/css">
	.st0{fill:url(#SVGID_1_);}
	.st1{fill:#0E101F;}
	.st2{fill:#FCD213;}
	.st3{fill:#010202;}
</style>
<path class="st2" d="M26.18,2.95C14.36,5.12,5.12,14.36,2.95,26.18C1.04,36.62,0,47.78,0,59.37s1.04,22.75,2.95,33.19
	c2.17,11.81,11.41,21.05,23.22,23.22c10.44,1.92,21.6,2.95,33.19,2.95s22.75-1.04,33.19-2.95c11.81-2.17,21.05-11.41,23.22-23.22
	c1.92-10.44,2.95-21.6,2.95-33.19c0-11.61-1.04-22.78-2.96-33.23C113.61,14.35,104.39,5.13,92.6,2.96C82.15,1.04,70.98,0,59.37,0
	C47.78,0,36.62,1.04,26.18,2.95z"/>
<g>
	<path d="M80.31,29.81v-2.87H65.2c-9.31,0-16.86,7.55-16.86,16.86v0h17.98C74.04,43.79,80.31,37.53,80.31,29.81z"/>
	<polygon points="76.21,78.87 76.21,72 70.15,72 70.15,78.87 63.28,78.87 63.28,84.94 70.15,84.94 70.15,91.81 76.21,91.81 
		76.21,84.94 83.09,84.94 83.09,78.87 	"/>
	<path d="M60.29,76.92c0.47-4.16,3.75-7.44,7.91-7.91l0.06-0.01c3.27-0.37,6.57-0.37,9.83,0l0.06,0.01c0.56,0.06,1.1,0.18,1.63,0.34
		V48.95c0-1.89-0.33-3.7-0.93-5.39c-3.44,3.14-7.85,4.86-12.54,4.86l-17.98,0h-4.62v-4.62c0-2.9,0.57-5.71,1.69-8.36
		c0.21-0.49,0.44-0.98,0.68-1.45c-6.09,2.24-10.43,8.1-10.43,14.97v23.62c0,8.81,7.14,15.95,15.95,15.95h9.04
		c-0.16-0.53-0.28-1.07-0.34-1.64l-0.01-0.12C59.91,83.49,59.92,80.19,60.29,76.92L60.29,76.92z M65.77,53.92
		c2.81,0,5.09,2.28,5.09,5.09s-2.28,5.09-5.09,5.09s-5.09-2.28-5.09-5.09S62.95,53.92,65.77,53.92z M49.68,64.11
		c-2.81,0-5.09-2.28-5.09-5.09s2.28-5.09,5.09-5.09c2.81,0,5.09,2.28,5.09,5.09S52.49,64.11,49.68,64.11z"/>
</g>
</svg>
