<?xml version="1.0" encoding="utf-8"?>
<!-- Generator: Adobe Illustrator 26.3.1, SVG Export Plug-In . SVG Version: 6.00 Build 0)  -->
<svg version="1.1" id="Vrstva_1" xmlns="http://www.w3.org/2000/svg" xmlns:xlink="http://www.w3.org/1999/xlink" x="0px" y="0px"
	 viewBox="0 0 118.74 118.74" style="enable-background:new 0 0 118.74 118.74;" xml:space="preserve">
<style type="text/css">
	.st0{fill:url(#SVGID_1_);}
	.st1{fill:#0E101F;}
	.st2{fill:#FCD213;}
	.st3{fill:#010202;}
</style>
<g>
</g>
<path class="st2" d="M26.18,2.95C14.36,5.12,5.12,14.36,2.95,26.18C1.04,36.62,0,47.78,0,59.37s1.04,22.75,2.95,33.19
	c2.17,11.81,11.41,21.05,23.22,23.22c10.44,1.92,21.6,2.95,33.19,2.95s22.75-1.04,33.19-2.95c11.81-2.17,21.05-11.41,23.22-23.22
	c1.92-10.44,2.95-21.6,2.95-33.19c0-11.61-1.04-22.78-2.96-33.23C113.61,14.35,104.39,5.13,92.6,2.96C82.15,1.04,70.98,0,59.37,0
	C47.78,0,36.62,1.04,26.18,2.95z"/>
<path d="M59.37,25.89c18.46,0,33.48,15.02,33.48,33.48S77.83,92.85,59.37,92.85H32.16c0.85-4.67,0.88-10.48-1.67-16.44l-0.15-0.34
	l-0.18-0.32c-2.79-4.97-4.27-10.63-4.27-16.37C25.89,40.91,40.91,25.89,59.37,25.89 M59.37,19.09c-22.25,0-40.28,18.03-40.28,40.28
	c0,7.16,1.87,13.88,5.14,19.71c4.47,10.46-1.56,20.57-1.56,20.57h36.69c22.25,0,40.28-18.03,40.28-40.28S81.62,19.09,59.37,19.09
	L59.37,19.09z M63.12,50.32v1.81h-0.26c-0.36-0.36-0.72-0.72-1.19-1.03c-0.78-0.57-1.86-1.03-3.47-1.03c-4.71,0-8.54,3.93-8.54,9.57
	s3.83,9.57,8.54,9.57c2.22,0,3.62-0.83,4.61-1.66c0.57-0.47,0.98-1.03,1.35-1.71h0.26c0.31,0.67,0.78,1.24,1.35,1.71
	c0.98,0.83,2.54,1.66,4.86,1.66c5.17,0,9.05-3.88,9.05-10.87c0-10.56-8.8-19.4-20.44-19.4c-10.87,0-20.18,9.31-20.18,20.44
	s9.31,20.44,20.18,20.44c3.93,0,6.93-1.09,9-2.17c1.19-0.62,2.28-1.35,3.16-2.22l-2.85-3.62c-0.67,0.57-1.5,1.09-2.43,1.55
	c-1.6,0.78-3.93,1.55-6.88,1.55c-8.28,0-15.01-6.73-15.01-15.52c0-8.8,6.73-15.52,15.01-15.52c8.85,0,15.26,6.47,15.26,14.49
	c0,4.71-1.55,6.21-3.62,6.21c-1.6,0-2.85-1.29-2.85-3.1V50.32H63.12z M58.98,64.29c-2.33,0-4.14-1.76-4.14-4.66
	c0-2.9,1.81-4.66,4.14-4.66c2.28,0,4.14,1.76,4.14,4.66C63.12,62.53,61.31,64.29,58.98,64.29z"/>
</svg>
