<?xml version="1.0" encoding="utf-8"?>
<!-- Generator: Adobe Illustrator 26.3.1, SVG Export Plug-In . SVG Version: 6.00 Build 0)  -->
<svg version="1.1" id="Vrstva_1" xmlns="http://www.w3.org/2000/svg" xmlns:xlink="http://www.w3.org/1999/xlink" x="0px" y="0px"
     viewBox="0 0 118.74 118.74" style="enable-background:new 0 0 118.74 118.74;" xml:space="preserve">
<style type="text/css">
	.st0{fill:url(#SVGID_1_);}
	.st1{fill:#0E101F;}
	.st2{fill:#FCD213;}
	.st3{fill:#010202;}
</style>
    <g>
	<path class="st2" d="M81.24,31.11c-5.84-5.84-13.6-9.05-21.86-9.05s-16.02,3.21-21.86,9.05c-5.84,5.84-9.05,13.6-9.05,21.86
		c0,8.26,3.22,16.02,9.05,21.86l21.86,21.86l21.86-21.86C93.29,62.77,93.29,43.16,81.24,31.11z M76.43,70.02L59.38,87.07
		L42.33,70.02c-9.4-9.4-9.4-24.7,0-34.1c4.7-4.7,10.88-7.05,17.05-7.05c6.17,0,12.35,2.35,17.05,7.05
		c4.55,4.55,7.06,10.61,7.06,17.05C83.49,59.41,80.98,65.46,76.43,70.02z"/>
        <path class="st2" d="M59.38,47.73c-2.89,0-5.24,2.34-5.24,5.24s2.34,5.24,5.24,5.24s5.24-2.34,5.24-5.24S62.27,47.73,59.38,47.73z"/>
</g>
</svg>
