<?xml version="1.0" encoding="utf-8"?>
<!-- Generator: Adobe Illustrator 26.3.1, SVG Export Plug-In . SVG Version: 6.00 Build 0)  -->
<svg version="1.1" id="Vrstva_1" xmlns="http://www.w3.org/2000/svg" xmlns:xlink="http://www.w3.org/1999/xlink" x="0px" y="0px"
     viewBox="0 0 118.74 118.74" style="enable-background:new 0 0 118.74 118.74;" xml:space="preserve">
<style type="text/css">
	.st0{fill:url(#SVGID_1_);}
	.st1{fill:#0E101F;}
	.st2{fill:#FCD213;}
	.st3{fill:#010202;}
</style>
    <g>
	<path class="st2" d="M83.54,31.73H76.9v-6.22h-6.8v6.22H48.65v-6.22h-6.8v6.22H35.2c-4.09,0-7.42,3.33-7.42,7.42v46.67
		c0,4.09,3.33,7.42,7.42,7.42h48.34c4.09,0,7.42-3.33,7.42-7.42V39.14C90.96,35.05,87.63,31.73,83.54,31.73z M84.16,85.81
		c0,0.34-0.28,0.62-0.62,0.62H35.2c-0.34,0-0.62-0.28-0.62-0.62V39.14c0-0.34,0.28-0.62,0.62-0.62h48.34c0.34,0,0.62,0.28,0.62,0.62
		V85.81z"/>
        <rect class="st2" x="55.06" y="44.19" width="8.63" height="8.63"/>
        <rect class="st2" x="69.66" y="44.19" width="8.63" height="8.63"/>
        <rect class="st2" x="40.46" y="58.17" width="8.63" height="8.63"/>
        <rect class="st2" x="55.06" y="58.17" width="8.63" height="8.63"/>
        <rect class="st2" x="69.66" y="58.17" width="8.63" height="8.63"/>
        <rect class="st2" x="40.46" y="72.14" width="8.63" height="8.63"/>
        <rect class="st2" x="55.06" y="72.14" width="8.63" height="8.63"/>
</g>
</svg>
