<svg xmlns="http://www.w3.org/2000/svg" xmlns:xlink="http://www.w3.org/1999/xlink" viewBox="0 0 24 30" version="1.1" x="0px" y="0px"><title>icon/eye-of-horus</title><desc>Created with Sketch.</desc><g stroke="none" stroke-width="1" fill="none" fill-rule="evenodd"><path d="M12.9040587,14.8098865 L11.5122602,17.5925136 C10.4684814,19.6811595 8.33519699,21 6,21 C4.89585763,21 4,20.1041424 4,19 C4,17.8958576 4.89585763,17 6,17 L7.5,17 C7.77614237,17 8,17.2238576 8,17.5 C8,17.7761424 7.77614237,18 7.5,18 L6,18 C5.44814237,18 5,18.4481424 5,19 C5,19.5518576 5.44814237,20 6,20 C7.9563379,20 9.74331064,18.8952566 10.6178176,17.1453309 L11.9360134,14.5098578 C10.9839069,14.1461507 10.0650911,13.5923853 9.18765248,12.8904344 C8.6193796,12.4358161 8.10882474,11.9495734 7.66267293,11.4628623 C7.4974513,11.2826205 7.36211372,11.1259489 7.25834792,11 L1.5,11 C1.22385763,11 1,10.7761424 1,10.5 C1,10.2238576 1.22385763,10 1.5,10 L7.25834792,10 C7.36211372,9.87405112 7.4974513,9.71737946 7.66267293,9.53713769 C8.10882474,9.05042662 8.6193796,8.56418389 9.18765248,8.1095656 C10.8310032,6.79488505 12.6194945,6 14.5,6 C16.3805055,6 18.1689968,6.79488505 19.8123475,8.1095656 C20.3806204,8.56418389 20.8911753,9.05042662 21.3373271,9.53713769 C21.6068517,9.83116451 21.7968515,10.0624686 21.9,10.2 C22.0333333,10.3777778 22.0333333,10.6222222 21.9,10.8 C21.7968515,10.9375314 21.6068517,11.1688355 21.3373271,11.4628623 C20.8911753,11.9495734 20.3806204,12.4358161 19.8123475,12.8904344 C18.315293,14.088078 16.6977892,14.8543543 15,14.9812954 L15,20.5 C15,20.7761424 14.7761424,21 14.5,21 C14.2238576,21 14,20.7761424 14,20.5 L14,14.9812954 C13.6307509,14.9536872 13.2652994,14.8958378 12.9040587,14.8098865 L12.9040587,14.8098865 Z M20.6001729,10.2128623 C20.1869497,9.76207338 19.7131296,9.31081611 19.1876525,8.8904344 C17.7060032,7.70511495 16.1194945,7 14.5,7 C12.8805055,7 11.2939968,7.70511495 9.81234752,8.8904344 C9.2868704,9.31081611 8.81305026,9.76207338 8.39982707,10.2128623 C8.30258462,10.318945 8.2173213,10.4153043 8.14454906,10.5 C8.2173213,10.5846957 8.30258462,10.681055 8.39982707,10.7871377 C8.81305026,11.2379266 9.2868704,11.6891839 9.81234752,12.1095656 C11.2939968,13.2948851 12.8805055,14 14.5,14 C16.1194945,14 17.7060032,13.2948851 19.1876525,12.1095656 C19.7131296,11.6891839 20.1869497,11.2379266 20.6001729,10.7871377 C20.6974154,10.681055 20.7826787,10.5846957 20.8554509,10.5 C20.7826787,10.4153043 20.6974154,10.318945 20.6001729,10.2128623 Z M16,10.5 C16,9.67214237 15.3278576,9 14.5,9 C13.6721424,9 13,9.67214237 13,10.5 C13,11.3278576 13.6721424,12 14.5,12 C15.3278576,12 16,11.3278576 16,10.5 Z M17,10.5 C17,11.8801424 15.8801424,13 14.5,13 C13.1198576,13 12,11.8801424 12,10.5 C12,9.11985763 13.1198576,8 14.5,8 C15.8801424,8 17,9.11985763 17,10.5 Z M5.8002341,6.98105721 C5.93864749,6.83751741 6.10082637,6.6783985 6.28585995,6.50759828 C6.81208616,6.021851 7.41833859,5.53684906 8.0976499,5.08397485 C10.0486029,3.7833395 12.2027866,3 14.5,3 C16.3509372,3 18.1229354,3.59066607 19.7572479,4.57125354 C20.3260195,4.91251649 20.8377557,5.27804236 21.2853689,5.64427135 C21.5566566,5.86623402 21.7485249,6.04141811 21.8535534,6.14644661 C22.0488155,6.34170876 22.0488155,6.65829124 21.8535534,6.85355339 C21.6582912,7.04881554 21.3417088,7.04881554 21.1464466,6.85355339 C21.0639751,6.77108189 20.8964684,6.61814098 20.6521311,6.41822865 C20.2403693,6.08133264 19.7677305,5.74373351 19.2427521,5.42874646 C17.7520646,4.53433393 16.1490628,4 14.5,4 C12.4222134,4 10.4513971,4.7166605 8.6523501,5.91602515 C8.01916141,6.33815094 7.45353884,6.790649 6.96414005,7.24240172 C6.67315353,7.51100466 6.47444974,7.71706785 6.37628835,7.8292523 C6.2813443,7.93775978 6.14418129,8 6,8 L1.5,8 C1.22385763,8 1,7.77614237 1,7.5 C1,7.22385763 1.22385763,7 1.5,7 L5.78201614,7 C5.78795092,6.99381241 5.79402369,6.98749764 5.8002341,6.98105721 Z" fill="#000000" fill-rule="nonzero"/></g><text x="0" y="39" fill="#000000" font-size="5px" font-weight="bold" font-family="'Helvetica Neue', Helvetica, Arial-Unicode, Arial, Sans-serif">Created by Travis Avery</text><text x="0" y="44" fill="#000000" font-size="5px" font-weight="bold" font-family="'Helvetica Neue', Helvetica, Arial-Unicode, Arial, Sans-serif">from the Noun Project</text></svg>