<?xml version="1.0" encoding="utf-8"?>
<!-- Generator: Adobe Illustrator 26.3.1, SVG Export Plug-In . SVG Version: 6.00 Build 0)  -->
<svg version="1.1" id="Vrstva_1" xmlns="http://www.w3.org/2000/svg" xmlns:xlink="http://www.w3.org/1999/xlink" x="0px" y="0px"
	 viewBox="0 0 118.74 118.74" style="enable-background:new 0 0 118.74 118.74;" xml:space="preserve">
<style type="text/css">
	.st0{fill:url(#SVGID_1_);}
	.st1{fill:#0E101F;}
	.st2{fill:#FCD213;}
	.st3{fill:#010202;}
</style>
<g>
</g>
<path class="st2" d="M26.18,2.95C14.36,5.12,5.12,14.36,2.95,26.18C1.04,36.62,0,47.78,0,59.37s1.04,22.75,2.95,33.19
	c2.17,11.81,11.41,21.05,23.22,23.22c10.44,1.92,21.6,2.95,33.19,2.95s22.75-1.04,33.19-2.95c11.81-2.17,21.05-11.41,23.22-23.22
	c1.92-10.44,2.95-21.6,2.95-33.19c0-11.61-1.04-22.78-2.96-33.23C113.61,14.35,104.39,5.13,92.6,2.96C82.15,1.04,70.98,0,59.37,0
	C47.78,0,36.62,1.04,26.18,2.95z"/>
<path d="M80.14,59.37c0-1.25-0.13-2.46-0.34-3.65l3.48-3.73c0.9-0.96,1.07-2.4,0.41-3.55l-2.7-4.67c-0.66-1.14-1.99-1.72-3.27-1.42
	l-4.97,1.15c-1.86-1.57-3.99-2.8-6.32-3.64l-1.49-4.89c-0.39-1.26-1.55-2.12-2.87-2.12h-5.39c-1.32,0-2.48,0.86-2.87,2.12
	l-1.49,4.89c-2.33,0.84-4.46,2.08-6.32,3.64l-4.97-1.15c-1.29-0.3-2.62,0.28-3.27,1.42l-2.7,4.67c-0.66,1.14-0.5,2.58,0.41,3.55
	l3.48,3.73c-0.21,1.19-0.34,2.4-0.34,3.65c0,1.25,0.13,2.46,0.34,3.65l-3.48,3.73c-0.9,0.96-1.07,2.4-0.41,3.55l2.7,4.67
	c0.66,1.14,1.99,1.72,3.27,1.42l4.97-1.15c1.86,1.57,3.99,2.8,6.32,3.64l1.49,4.89c0.39,1.26,1.55,2.12,2.87,2.12h5.39
	c1.32,0,2.48-0.86,2.87-2.12l1.49-4.89c2.33-0.84,4.46-2.08,6.32-3.64l4.97,1.15c1.29,0.3,2.61-0.28,3.27-1.42l2.7-4.67
	c0.66-1.14,0.5-2.58-0.41-3.55l-3.48-3.73C80.01,61.83,80.14,60.62,80.14,59.37z M61.19,73.23c-9.13,1.16-16.84-6.55-15.68-15.68
	c0.79-6.22,5.81-11.25,12.04-12.04c9.13-1.16,16.84,6.55,15.68,15.68C72.44,67.41,67.41,72.44,61.19,73.23z"/>
</svg>
