<?xml version="1.0" encoding="utf-8"?>
<!-- Generator: Adobe Illustrator 26.3.1, SVG Export Plug-In . SVG Version: 6.00 Build 0)  -->
<svg version="1.1" id="Vrstva_1" xmlns="http://www.w3.org/2000/svg" xmlns:xlink="http://www.w3.org/1999/xlink" x="0px" y="0px"
	 viewBox="0 0 118.74 118.74" style="enable-background:new 0 0 118.74 118.74;" xml:space="preserve">
<style type="text/css">
	.st0{fill:url(#SVGID_1_);}
	.st1{fill:#0E101F;}
	.st2{fill:#FCD213;}
	.st3{fill:#010202;}
</style>
<path class="st2" d="M26.18,2.95C14.36,5.12,5.12,14.36,2.95,26.18C1.04,36.62,0,47.78,0,59.37s1.04,22.75,2.95,33.19
	c2.17,11.81,11.41,21.05,23.22,23.22c10.44,1.92,21.6,2.95,33.19,2.95s22.75-1.04,33.19-2.95c11.81-2.17,21.05-11.41,23.22-23.22
	c1.92-10.44,2.95-21.6,2.95-33.19c0-11.61-1.04-22.78-2.96-33.23C113.61,14.35,104.39,5.13,92.6,2.96C82.15,1.04,70.98,0,59.37,0
	C47.78,0,36.62,1.04,26.18,2.95z"/>
<g>
	<path d="M56.82,31.02c-5.26,0-9.52,4.26-9.52,9.52v8.19v4.39h11.91h0.46c4.22,0,8.03,1.78,10.73,4.62h1.51
		c8.81,0,15.95-7.14,15.95-15.95V31.02H56.82z"/>
	<path d="M63.6,72.84c0.39-3.46,2.74-6.32,5.92-7.45c-1.12-4.4-5.11-7.65-9.85-7.65h-0.46H30.89v10.78
		c0,8.81,7.14,15.95,15.95,15.95h17.13c-0.17-0.54-0.29-1.1-0.35-1.68l-0.01-0.12C63.23,79.4,63.23,76.1,63.6,72.84L63.6,72.84z"/>
	<polygon points="79.53,67.91 73.47,67.91 73.47,74.78 66.59,74.78 66.59,80.85 73.47,80.85 73.47,87.72 79.53,87.72 79.53,80.85 
		86.4,80.85 86.4,74.78 79.53,74.78 	"/>
</g>
</svg>
