<?xml version="1.0" encoding="utf-8"?>
<!-- Generator: Adobe Illustrator 26.3.1, SVG Export Plug-In . SVG Version: 6.00 Build 0)  -->
<svg version="1.1" id="Vrstva_1" xmlns="http://www.w3.org/2000/svg" xmlns:xlink="http://www.w3.org/1999/xlink" x="0px" y="0px"
	 viewBox="0 0 118.74 118.74" style="enable-background:new 0 0 118.74 118.74;" xml:space="preserve">
<style type="text/css">
	.st0{fill:url(#SVGID_1_);}
	.st1{fill:#0E101F;}
	.st2{fill:#FCD213;}
	.st3{fill:#010202;}
</style>
<g>
</g>
<path class="st2" d="M26.18,2.95C14.36,5.12,5.12,14.36,2.95,26.18C1.04,36.62,0,47.78,0,59.37s1.04,22.75,2.95,33.19
	c2.17,11.81,11.41,21.05,23.22,23.22c10.44,1.92,21.6,2.95,33.19,2.95s22.75-1.04,33.19-2.95c11.81-2.17,21.05-11.41,23.22-23.22
	c1.92-10.44,2.95-21.6,2.95-33.19c0-11.61-1.04-22.78-2.96-33.23C113.61,14.35,104.39,5.13,92.6,2.96C82.15,1.04,70.98,0,59.37,0
	C47.78,0,36.62,1.04,26.18,2.95z"/>
<g>
	<path d="M59.37,30.55c-15.89,0-28.82,12.93-28.82,28.82s12.93,28.82,28.82,28.82s28.82-12.93,28.82-28.82S75.26,30.55,59.37,30.55z
		 M59.37,81.39c-12.14,0-22.02-9.88-22.02-22.02s9.88-22.02,22.02-22.02s22.02,9.88,22.02,22.02S71.51,81.39,59.37,81.39z"/>
	<path d="M56.93,54.45c0-2.86-2.33-5.19-5.19-5.19s-5.19,2.33-5.19,5.19c0,2.86,2.33,5.19,5.19,5.19S56.93,57.32,56.93,54.45z"/>
	<path d="M66.86,49.26c-2.86,0-5.19,2.33-5.19,5.19c0,2.86,2.33,5.19,5.19,5.19c2.86,0,5.19-2.33,5.19-5.19
		C72.05,51.59,69.72,49.26,66.86,49.26z"/>
	<path d="M59.37,72.77c5.16,0,9.5-3.48,10.82-8.23H48.55C49.87,69.29,54.21,72.77,59.37,72.77z"/>
</g>
</svg>
