<?xml version="1.0" encoding="utf-8"?>
<!-- Generator: Adobe Illustrator 26.3.1, SVG Export Plug-In . SVG Version: 6.00 Build 0)  -->
<svg version="1.1" id="Vrstva_1" xmlns="http://www.w3.org/2000/svg" xmlns:xlink="http://www.w3.org/1999/xlink" x="0px" y="0px"
	 viewBox="0 0 118.74 118.74" style="enable-background:new 0 0 118.74 118.74;" xml:space="preserve">
<style type="text/css">
	.st0{fill:url(#SVGID_1_);}
	.st1{fill:#0E101F;}
	.st2{fill:#FCD213;}
	.st3{fill:#010202;}
</style>
<g>
</g>
<path class="st2" d="M26.18,2.95C14.36,5.12,5.12,14.36,2.95,26.18C1.04,36.62,0,47.78,0,59.37s1.04,22.75,2.95,33.19
	c2.17,11.81,11.41,21.05,23.22,23.22c10.44,1.92,21.6,2.95,33.19,2.95s22.75-1.04,33.19-2.95c11.81-2.17,21.05-11.41,23.22-23.22
	c1.92-10.44,2.95-21.6,2.95-33.19c0-11.61-1.04-22.78-2.96-33.23C113.61,14.35,104.39,5.13,92.6,2.96C82.15,1.04,70.98,0,59.37,0
	C47.78,0,36.62,1.04,26.18,2.95z"/>
<path d="M92.08,54.57c-2.37-16.05-16.41-28.15-32.65-28.15c-18.2,0-33.01,14.81-33.01,33.01c0,16.24,12.1,30.28,28.15,32.65
	l1.69,0.25l36.07-36.07L92.08,54.57z M33.21,59.43c0-14.45,11.76-26.21,26.21-26.21c11.39,0,21.41,7.5,24.89,18.04
	c-0.02,0-0.03,0-0.05,0c-18.2,0-33.01,14.81-33.01,33.01c0,0.02,0,0.03,0,0.05C40.72,80.83,33.21,70.82,33.21,59.43z M80.66,58.3
	L58.3,80.67C59.9,69.08,69.08,59.9,80.66,58.3z"/>
</svg>
