<?xml version="1.0" encoding="utf-8"?>
<!-- Generator: Adobe Illustrator 26.3.1, SVG Export Plug-In . SVG Version: 6.00 Build 0)  -->
<svg version="1.1" id="Vrstva_1" xmlns="http://www.w3.org/2000/svg" xmlns:xlink="http://www.w3.org/1999/xlink" x="0px" y="0px"
	 viewBox="0 0 118.74 118.74" style="enable-background:new 0 0 118.74 118.74;" xml:space="preserve">
<style type="text/css">
	.st0{fill:url(#SVGID_1_);}
	.st1{fill:#0E101F;}
	.st2{fill:#FCD213;}
	.st3{fill:#010202;}
</style>
<g>
</g>
<path class="st2" d="M26.18,2.95C14.36,5.12,5.12,14.36,2.95,26.18C1.04,36.62,0,47.78,0,59.37s1.04,22.75,2.95,33.19
	c2.17,11.81,11.41,21.05,23.22,23.22c10.44,1.92,21.6,2.95,33.19,2.95s22.75-1.04,33.19-2.95c11.81-2.17,21.05-11.41,23.22-23.22
	c1.92-10.44,2.95-21.6,2.95-33.19c0-11.61-1.04-22.78-2.96-33.23C113.61,14.35,104.39,5.13,92.6,2.96C82.15,1.04,70.98,0,59.37,0
	C47.78,0,36.62,1.04,26.18,2.95z"/>
<g>
	<path d="M48.65,56.28l0-10.41c0-5.58,4.13-10.47,9.69-10.99c6.38-0.6,11.76,4.42,11.76,10.68h6.8c0-9.56-7.7-17.36-17.23-17.52
		c-9.8-0.16-17.82,8.18-17.82,17.99l0,10.26H37.7c-1.66,0-3,1.34-3,3v28.42c0,1.66,1.34,3,3,3h43.33c1.66,0,3-1.34,3-3V59.28
		c0-1.66-1.34-3-3-3H48.65z M77.24,83.91H41.5V63.08h35.73V83.91z"/>
	<path d="M59.77,69.22h-0.8c-1.66,0-3,1.34-3,3v1.94c0,1.66,1.34,3,3,3h0.8c1.66,0,3-1.34,3-3v-1.94
		C62.77,70.56,61.43,69.22,59.77,69.22z"/>
</g>
</svg>
