<?xml version="1.0" encoding="utf-8"?>
<!-- Generator: Adobe Illustrator 26.3.1, SVG Export Plug-In . SVG Version: 6.00 Build 0)  -->
<svg version="1.1" id="Vrstva_1" xmlns="http://www.w3.org/2000/svg" xmlns:xlink="http://www.w3.org/1999/xlink" x="0px" y="0px"
	 viewBox="0 0 118.74 118.74" style="enable-background:new 0 0 118.74 118.74;" xml:space="preserve">
<style type="text/css">
	.st0{fill:url(#SVGID_1_);}
	.st1{fill:#0E101F;}
	.st2{fill:#FCD213;}
	.st3{fill:#010202;}
</style>
<g>
</g>
<path class="st2" d="M26.18,2.95C14.36,5.12,5.12,14.36,2.95,26.18C1.04,36.62,0,47.78,0,59.37s1.04,22.75,2.95,33.19
	c2.17,11.81,11.41,21.05,23.22,23.22c10.44,1.92,21.6,2.95,33.19,2.95s22.75-1.04,33.19-2.95c11.81-2.17,21.05-11.41,23.22-23.22
	c1.92-10.44,2.95-21.6,2.95-33.19c0-11.61-1.04-22.78-2.96-33.23C113.61,14.35,104.39,5.13,92.6,2.96C82.15,1.04,70.98,0,59.37,0
	C47.78,0,36.62,1.04,26.18,2.95z"/>
<g>
	<path d="M48.98,57.06h20.78C69.53,50.58,68.31,44.6,66.27,40c-1.98-4.47-4.5-7.04-6.9-7.04s-4.91,2.56-6.9,7.04
		C50.43,44.6,49.21,50.58,48.98,57.06z"/>
	<path d="M69.76,61.68H48.98c0.23,6.48,1.45,12.46,3.49,17.06c1.98,4.47,4.5,7.04,6.9,7.04s4.91-2.56,6.9-7.04
		C68.31,74.15,69.53,68.16,69.76,61.68z"/>
	<path d="M74.39,57.06h13.61C87,44.57,78.01,34.33,66.15,31.46c1.63,1.63,3.1,3.87,4.34,6.67C72.78,43.29,74.14,49.94,74.39,57.06z"
		/>
	<path d="M48.25,38.13c1.24-2.8,2.71-5.04,4.34-6.67c-11.86,2.87-20.85,13.11-21.84,25.6h13.61C44.6,49.94,45.96,43.29,48.25,38.13z
		"/>
	<path d="M44.36,61.68H30.75c0.99,12.49,9.98,22.73,21.84,25.6c-1.63-1.63-3.1-3.87-4.34-6.67C45.96,75.45,44.6,68.8,44.36,61.68z"
		/>
	<path d="M70.49,80.61c-1.24,2.8-2.71,5.04-4.34,6.67C78.01,84.41,87,74.17,87.99,61.68H74.39C74.14,68.8,72.78,75.45,70.49,80.61z"
		/>
</g>
</svg>
