<?xml version="1.0" encoding="utf-8"?>
<svg version="1.1" id="Vrstva_1" xmlns="http://www.w3.org/2000/svg" xmlns:xlink="http://www.w3.org/1999/xlink" x="0px" y="0px"
     viewBox="0 0 118.74 118.74" style="enable-background:new 0 0 118.74 118.74;" xml:space="preserve">
<style type="text/css">
	.st0{fill:url(#SVGID_1_);}
	.st1{fill:#0E101F;}
	.st2{fill:#FCD213;}
	.st3{fill:#010202;}
</style>
    <path class="st2" d="M26.18,2.95C14.36,5.12,5.12,14.36,2.95,26.18C1.04,36.62,0,47.78,0,59.37s1.04,22.75,2.95,33.19
	c2.17,11.81,11.41,21.05,23.22,23.22c10.44,1.92,21.6,2.95,33.19,2.95s22.75-1.04,33.19-2.95c11.81-2.17,21.05-11.41,23.22-23.22
	c1.92-10.44,2.95-21.6,2.95-33.19c0-11.61-1.04-22.78-2.96-33.23C113.61,14.35,104.39,5.13,92.6,2.96C82.15,1.04,70.98,0,59.37,0
	C47.78,0,36.62,1.04,26.18,2.95z"/>
    <g transform="scale(3 3.5) translate(8 5)">
        <path d="M12,16c2.206,0,4-1.795,4-4V6c0-2.206-1.794-4-4-4S8,3.794,8,6v6C8,14.205,9.794,16,12,16z"/>
        <path d="M19,12v-2c0-0.552-0.447-1-1-1s-1,0.448-1,1v2c0,2.757-2.243,5-5,5s-5-2.243-5-5v-2c0-0.552-0.447-1-1-1s-1,0.448-1,1v2   c0,3.52,2.613,6.432,6,6.92V20H8c-0.553,0-1,0.447-1,1s0.447,1,1,1h8c0.553,0,1-0.447,1-1s-0.447-1-1-1h-3v-1.08   C16.387,18.432,19,15.52,19,12z"/>
    </g>
</svg>
