<?xml version="1.0" encoding="utf-8"?>
<!-- Generator: Adobe Illustrator 26.3.1, SVG Export Plug-In . SVG Version: 6.00 Build 0)  -->
<svg version="1.1" id="Vrstva_1" xmlns="http://www.w3.org/2000/svg" xmlns:xlink="http://www.w3.org/1999/xlink" x="0px" y="0px"
	 viewBox="0 0 118.74 118.74" style="enable-background:new 0 0 118.74 118.74;" xml:space="preserve">
<style type="text/css">
	.st0{fill:url(#SVGID_1_);}
	.st1{fill:#0E101F;}
	.st2{fill:#FCD213;}
	.st3{fill:#010202;}
</style>
<g>
</g>
<path class="st2" d="M26.18,2.95C14.36,5.12,5.12,14.36,2.95,26.18C1.04,36.62,0,47.78,0,59.37s1.04,22.75,2.95,33.19
	c2.17,11.81,11.41,21.05,23.22,23.22c10.44,1.92,21.6,2.95,33.19,2.95s22.75-1.04,33.19-2.95c11.81-2.17,21.05-11.41,23.22-23.22
	c1.92-10.44,2.95-21.6,2.95-33.19c0-11.61-1.04-22.78-2.96-33.23C113.61,14.35,104.39,5.13,92.6,2.96C82.15,1.04,70.98,0,59.37,0
	C47.78,0,36.62,1.04,26.18,2.95z"/>
<g>
	<path d="M59.37,43.74c-2.89,0-5.24,2.34-5.24,5.24s2.34,5.24,5.24,5.24s5.24-2.34,5.24-5.24S62.26,43.74,59.37,43.74z"/>
	<rect x="55.96" y="58.4" width="6.83" height="16.6"/>
	<path d="M89.7,48.57c-1.17-10.33-9.21-18.35-19.53-19.52l-0.14-0.02c-7.07-0.8-14.24-0.8-21.32,0l-0.13,0.01
		c-10.33,1.17-18.36,9.2-19.53,19.52c-0.8,7.07-0.81,14.24-0.01,21.32l0.03,0.25c1.16,10.34,9.2,18.38,19.52,19.55l0.13,0.02
		c3.53,0.4,7.09,0.6,10.65,0.6c3.56,0,7.13-0.2,10.67-0.6l0.1-0.01c10.34-1.17,18.37-9.21,19.54-19.55l0.03-0.25
		C90.51,62.82,90.5,55.65,89.7,48.57z M82.95,69.13l-0.03,0.25c-0.81,7.17-6.38,12.74-13.56,13.55l-0.1,0.01
		c-6.57,0.74-13.22,0.74-19.78,0l-0.13-0.02c-7.17-0.81-12.74-6.38-13.54-13.55l-0.03-0.25c-0.74-6.57-0.73-13.22,0.01-19.79
		c0.81-7.16,6.38-12.72,13.55-13.53l0.13-0.01c3.28-0.37,6.59-0.56,9.9-0.56c3.3,0,6.61,0.19,9.89,0.56l0.14,0.02
		c7.16,0.81,12.73,6.37,13.54,13.53C83.69,55.91,83.69,62.56,82.95,69.13z"/>
</g>
</svg>
