<?xml version="1.0" encoding="utf-8"?>
<!-- Generator: Adobe Illustrator 26.3.1, SVG Export Plug-In . SVG Version: 6.00 Build 0)  -->
<svg version="1.1" id="Vrstva_1" xmlns="http://www.w3.org/2000/svg" xmlns:xlink="http://www.w3.org/1999/xlink" x="0px" y="0px"
	 viewBox="0 0 118.74 118.74" style="enable-background:new 0 0 118.74 118.74;" xml:space="preserve">
<style type="text/css">
	.st0{fill:url(#SVGID_1_);}
	.st1{fill:#0E101F;}
	.st2{fill:#FCD213;}
	.st3{fill:#010202;}
</style>
<g>
</g>
<path class="st2" d="M26.18,2.95C14.36,5.12,5.12,14.36,2.95,26.18C1.04,36.62,0,47.78,0,59.37s1.04,22.75,2.95,33.19
	c2.17,11.81,11.41,21.05,23.22,23.22c10.44,1.92,21.6,2.95,33.19,2.95s22.75-1.04,33.19-2.95c11.81-2.17,21.05-11.41,23.22-23.22
	c1.92-10.44,2.95-21.6,2.95-33.19c0-11.61-1.04-22.78-2.96-33.23C113.61,14.35,104.39,5.13,92.6,2.96C82.15,1.04,70.98,0,59.37,0
	C47.78,0,36.62,1.04,26.18,2.95z"/>
<g>
	<rect x="55.97" y="61.49" width="6.8" height="4.31"/>
	<path d="M62.18,53.02c0-1.55-1.26-2.81-2.81-2.81s-2.81,1.26-2.81,2.81v3.45h5.61V53.02z"/>
	<path d="M84.29,38.61l-23.91-8.55c-0.65-0.23-1.37-0.23-2.02,0l-23.91,8.55c0,0-5.86,42.64,24.92,50.25
		C90.15,81.25,84.29,38.61,84.29,38.61z M70.88,71.08H47.86V56.47h1.9v-3.45c0-5.3,4.31-9.61,9.61-9.61s9.61,4.31,9.61,9.61v3.45
		h1.9V71.08z"/>
</g>
</svg>
