<?xml version="1.0" encoding="utf-8"?>
<!-- Generator: Adobe Illustrator 26.3.1, SVG Export Plug-In . SVG Version: 6.00 Build 0)  -->
<svg version="1.1" id="Vrstva_1" xmlns="http://www.w3.org/2000/svg" xmlns:xlink="http://www.w3.org/1999/xlink" x="0px" y="0px"
	 viewBox="0 0 118.74 118.74" style="enable-background:new 0 0 118.74 118.74;" xml:space="preserve">
<style type="text/css">
	.st0{fill:url(#SVGID_1_);}
	.st1{fill:#0E101F;}
	.st2{fill:#FCD213;}
	.st3{fill:#010202;}
</style>
<g>
</g>
<path class="st2" d="M26.18,2.95C14.36,5.12,5.12,14.36,2.95,26.18C1.04,36.62,0,47.78,0,59.37s1.04,22.75,2.95,33.19
	c2.17,11.81,11.41,21.05,23.22,23.22c10.44,1.92,21.6,2.95,33.19,2.95s22.75-1.04,33.19-2.95c11.81-2.17,21.05-11.41,23.22-23.22
	c1.92-10.44,2.95-21.6,2.95-33.19c0-11.61-1.04-22.78-2.96-33.23C113.61,14.35,104.39,5.13,92.6,2.96C82.15,1.04,70.98,0,59.37,0
	C47.78,0,36.62,1.04,26.18,2.95z"/>
<g>
	<path d="M87.89,48.15L67.71,68.33H52.9v-0.1h-0.1V53.42l13.83-13.83H44.98c-8.81,0-15.95,7.14-15.95,15.95v31.33h44.72
		c8.81,0,15.95-7.14,15.95-15.95V55.53C89.71,52.87,89.04,50.36,87.89,48.15z"/>
	<polygon points="57.14,63.93 57.2,63.93 57.2,63.98 65.5,63.98 82.25,47.24 73.89,38.88 57.14,55.63 	"/>
	<path d="M88.29,41.19c1.27-1.27,1.27-3.34,0-4.62l-3.74-3.74c-0.62-0.62-1.44-0.96-2.31-0.96c-0.87,0-1.69,0.34-2.31,0.96
		l-3.83,3.83l8.36,8.36L88.29,41.19z"/>
</g>
</svg>
