<?xml version="1.0" encoding="utf-8"?>
<!-- Generator: Adobe Illustrator 26.3.1, SVG Export Plug-In . SVG Version: 6.00 Build 0)  -->
<svg version="1.1" id="Vrstva_1" xmlns="http://www.w3.org/2000/svg" xmlns:xlink="http://www.w3.org/1999/xlink" x="0px" y="0px"
	 viewBox="0 0 118.74 118.74" style="enable-background:new 0 0 118.74 118.74;" xml:space="preserve">
<style type="text/css">
	.st0{fill:url(#SVGID_1_);}
	.st1{fill:#0E101F;}
	.st2{fill:#FCD213;}
	.st3{fill:#010202;}
</style>
<g>
</g>
<path class="st2" d="M26.18,2.95C14.36,5.12,5.12,14.36,2.95,26.18C1.04,36.62,0,47.78,0,59.37s1.04,22.75,2.95,33.19
	c2.17,11.81,11.41,21.05,23.22,23.22c10.44,1.92,21.6,2.95,33.19,2.95s22.75-1.04,33.19-2.95c11.81-2.17,21.05-11.41,23.22-23.22
	c1.92-10.44,2.95-21.6,2.95-33.19c0-11.61-1.04-22.78-2.96-33.23C113.61,14.35,104.39,5.13,92.6,2.96C82.15,1.04,70.98,0,59.37,0
	C47.78,0,36.62,1.04,26.18,2.95z"/>
<g>
	<path d="M59.37,29.83c-16.29,0-29.54,13.25-29.54,29.54c0,16.29,13.25,29.54,29.54,29.54s29.53-13.25,29.53-29.54
		C88.91,43.08,75.66,29.83,59.37,29.83z M59.37,82.11c-12.54,0-22.74-10.2-22.74-22.74s10.2-22.73,22.74-22.73
		s22.73,10.2,22.73,22.73S71.91,82.11,59.37,82.11z"/>
	<path d="M69.01,50.94L56.32,63.63l-5.47-5.47c-1.17-1.17-3.07-1.17-4.24,0l-0.57,0.57c-1.17,1.17-1.17,3.07,0,4.24l8.15,8.15
		c1.17,1.17,3.07,1.17,4.24,0l15.38-15.37c1.17-1.17,1.17-3.07,0-4.24l-0.57-0.57C72.08,49.77,70.18,49.77,69.01,50.94z"/>
</g>
</svg>
