<?xml version="1.0" encoding="utf-8"?>
<!-- Generator: Adobe Illustrator 26.3.1, SVG Export Plug-In . SVG Version: 6.00 Build 0)  -->
<svg version="1.1" id="Vrstva_1" xmlns="http://www.w3.org/2000/svg" xmlns:xlink="http://www.w3.org/1999/xlink" x="0px" y="0px"
	 viewBox="0 0 118.74 118.74" style="enable-background:new 0 0 118.74 118.74;" xml:space="preserve">
<style type="text/css">
	.st0{fill:url(#SVGID_1_);}
	.st1{fill:#0E101F;}
	.st2{fill:#FCD213;}
	.st3{fill:#010202;}
</style>
<g>
</g>
<path class="st2" d="M26.18,2.95C14.36,5.12,5.12,14.36,2.95,26.18C1.04,36.62,0,47.78,0,59.37s1.04,22.75,2.95,33.19
	c2.17,11.81,11.41,21.05,23.22,23.22c10.44,1.92,21.6,2.95,33.19,2.95s22.75-1.04,33.19-2.95c11.81-2.17,21.05-11.41,23.22-23.22
	c1.92-10.44,2.95-21.6,2.95-33.19c0-11.61-1.04-22.78-2.96-33.23C113.61,14.35,104.39,5.13,92.6,2.96C82.15,1.04,70.98,0,59.37,0
	C47.78,0,36.62,1.04,26.18,2.95z"/>
<g>
	<path d="M71.07,56.41c-0.01,0-0.02,0-0.02,0l-0.03,0.05l0.03,0.05l0.07-0.03l-0.03-0.07L71.07,56.41z"/>
	<path d="M84.58,36.54H62.77v-5.6h-6.8v5.6H34.16c-4.55,0-8.23,3.68-8.23,8.23V87.8h58.64c4.54,0,8.23-3.68,8.23-8.23v-34.8
		C92.81,40.22,89.12,36.54,84.58,36.54z M40.82,50.23h12.48v12.48H40.82V50.23z M73.12,77.65H45.63v-4.5h27.49V77.65z M71.07,63.32
		c-3.78,0-6.85-3.07-6.85-6.85c0-3.78,3.07-6.85,6.85-6.85c3.78,0,6.85,3.07,6.85,6.85C77.92,60.25,74.86,63.32,71.07,63.32z"/>
</g>
</svg>
