<?xml version="1.0" encoding="utf-8"?>
<!-- Generator: Adobe Illustrator 26.3.1, SVG Export Plug-In . SVG Version: 6.00 Build 0)  -->
<svg version="1.1" id="Vrstva_1" xmlns="http://www.w3.org/2000/svg" xmlns:xlink="http://www.w3.org/1999/xlink" x="0px" y="0px"
	 viewBox="0 0 118.74 118.74" style="enable-background:new 0 0 118.74 118.74;" xml:space="preserve">
<style type="text/css">
	.st0{fill:url(#SVGID_1_);}
	.st1{fill:#0E101F;}
	.st2{fill:#FCD213;}
	.st3{fill:#010202;}
</style>
<g>
</g>
<path class="st2" d="M26.18,2.95C14.36,5.12,5.12,14.36,2.95,26.18C1.04,36.62,0,47.78,0,59.37s1.04,22.75,2.95,33.19
	c2.17,11.81,11.41,21.05,23.22,23.22c10.44,1.92,21.6,2.95,33.19,2.95s22.75-1.04,33.19-2.95c11.81-2.17,21.05-11.41,23.22-23.22
	c1.92-10.44,2.95-21.6,2.95-33.19c0-11.61-1.04-22.78-2.96-33.23C113.61,14.35,104.39,5.13,92.6,2.96C82.15,1.04,70.98,0,59.37,0
	C47.78,0,36.62,1.04,26.18,2.95z"/>
<g>
	<polygon points="34.34,58.04 27.54,58.04 27.54,85.07 43.92,85.07 43.92,78.26 34.34,78.26 	"/>
	<rect x="46.09" y="58.04" width="6.8" height="26.91"/>
	<polygon points="65.26,70.29 62.62,58.04 55.69,58.04 61.47,85.07 69.05,85.07 74.83,58.04 67.9,58.04 	"/>
	<polygon points="91.2,64.44 91.2,57.64 76.66,57.64 76.66,85.07 91.2,85.07 91.2,78.26 83.46,78.26 83.46,74.75 90.13,74.75 
		90.13,67.95 83.46,67.95 83.46,64.44 	"/>
	<path d="M49.33,46.89c-3.32,0-6.02,2.7-6.02,6.01h12.03C55.35,49.59,52.65,46.89,49.33,46.89z"/>
	<path d="M49.33,40.64c6.77,0,12.27,5.5,12.27,12.27h6.96c0-10.62-8.61-19.23-19.23-19.23c-10.62,0-19.23,8.61-19.23,19.23h6.96
		C37.06,46.14,42.57,40.64,49.33,40.64z"/>
</g>
</svg>
